STARTFONT 2.1
FONT -ADECW-Hei-Medium-R-Normal--24-240-75-75-M-240-DEC.CNS11643.1986-2
SIZE 24 75 75
FONTBOUNDINGBOX 24 24 0 -6

STARTPROPERTIES 26
FOUNDRY "ADECW"
FAMILY_NAME "Hei"
WEIGHT_NAME "Medium"
SLANT "R"
SETWIDTH_NAME "Normal"
ADD_STYLE_NAME ""
PIXEL_SIZE 24
POINT_SIZE 240
RESOLUTION_X 75
RESOLUTION_Y 75
SPACING "M"
AVERAGE_WIDTH 240
CHARSET_REGISTRY "DEC.CNS11643.1986"
CHARSET_ENCODING "2"
DEVICE_FONT_NAME "Hei-DEC.CNS11643.1986-2"
CHARSET_COLLECTIONS "DEC.CNS11643.1986 2"
FULL_NAME "Hei DEC.CNS11643.1986 2"
CAP_HEIGHT 18
X_HEIGHT 13
COPYRIGHT ""
NOTICE ""
WEIGHT 10
QUAD_WIDTH 24
DEFAULT_CHAR 65278
FONT_DESCENT 6
FONT_ASCENT 18
ENDPROPERTIES

CHARS 13736

STARTCHAR A121
ENCODING 41249
SWIDTH 960 0
DWIDTH 24 0
BBX 24 24 0 -6
BITMAP
000000
000000
000030
000030
000030
030060
030060
0380E0
0180C0
01C1C0
00C180
00E380
007700
007E00
003C00
003E00
007700
00E380
01C1C0
0780F0
1E007C
38001E
000000
000000
ENDCHAR

STARTCHAR A122
ENCODING 41250
SWIDTH 960 0
DWIDTH 24 0
BBX 24 24 0 -6
BITMAP
000000
000000
060000
060000
060000
060000
060000
0607F0
07FFF0
7FF830
7E0030
060060
060060
0600C0
0600C0
060006
060006
060006
060006
07FFFE
03FFFE
000000
000000
000000
ENDCHAR

STARTCHAR A123
ENCODING 41251
SWIDTH 960 0
DWIDTH 24 0
BBX 24 24 0 -6
BITMAP
000000
000000
30000C
30000C
30000C
30000C
30000C
30000C
30000C
30000C
30000C
30000C
30000C
30000C
30000C
30000C
30000C
30000C
30000C
30000C
3FFFFC
3FFFFC
000000
000000
ENDCHAR

STARTCHAR A124
ENCODING 41252
SWIDTH 960 0
DWIDTH 24 0
BBX 24 24 0 -6
BITMAP
000000
000000
7FFFFC
7FFFFC
300000
300000
300000
300000
300000
300000
300000
300000
300000
300000
300000
300000
300000
300000
300000
300000
3FFFFC
1FFFFC
000000
000000
ENDCHAR

STARTCHAR A125
ENCODING 41253
SWIDTH 960 0
DWIDTH 24 0
BBX 24 24 0 -6
BITMAP
000000
000000
0FFFFE
0FFFFE
0C0000
0C0000
0C0000
0C0000
0C0000
0C0000
0C0000
0C0000
0C0000
0C0000
0C0000
0C0000
180000
180000
180000
300000
300000
600000
400000
000000
ENDCHAR

STARTCHAR A126
ENCODING 41254
SWIDTH 960 0
DWIDTH 24 0
BBX 24 24 0 -6
BITMAP
000000
000000
7FFFFE
7FFFFE
00C000
00C000
00C000
00C000
00FFF0
00FFF0
00C030
00C030
00C030
00C030
018030
018030
018030
030030
030030
060030
0C0030
180FF0
3007E0
000000
ENDCHAR

STARTCHAR A127
ENCODING 41255
SWIDTH 960 0
DWIDTH 24 0
BBX 24 24 0 -6
BITMAP
000000
000000
000000
7FFFFE
7FFFFE
018180
018180
018180
018180
018180
018180
018180
018180
018180
018180
018180
030180
030180
030180
060180
060180
0C0180
180180
000000
ENDCHAR

STARTCHAR A128
ENCODING 41256
SWIDTH 960 0
DWIDTH 24 0
BBX 24 24 0 -6
BITMAP
000000
0000C0
0007C0
003F00
1FF800
1FF000
003000
003000
003000
003000
7FFFFE
7FFFFE
003000
003000
003000
003000
003000
003000
003006
003006
003FFE
003FFE
000000
000000
ENDCHAR

STARTCHAR A129
ENCODING 41257
SWIDTH 960 0
DWIDTH 24 0
BBX 24 24 0 -6
BITMAP
000000
1FFFF8
1FFFF8
000000
000000
000000
000000
000000
000000
7FFFFE
7FFFFE
001800
001800
001800
001800
001800
001800
001800
001800
001800
001800
01F800
00F000
000000
ENDCHAR

STARTCHAR A12A
ENCODING 41258
SWIDTH 960 0
DWIDTH 24 0
BBX 24 24 0 -6
BITMAP
000000
000000
3FFFFC
3FFFFC
30000C
30000C
30000C
30000C
30000C
30000C
30000C
30000C
30000C
30000C
30000C
30000C
30000C
30000C
30000C
30000C
3FFFFC
3FFFFC
000000
000000
ENDCHAR

STARTCHAR A12B
ENCODING 41259
SWIDTH 960 0
DWIDTH 24 0
BBX 24 24 0 -6
BITMAP
000000
001800
001800
001800
0C1830
0C1830
0C1830
0C1830
0C1830
0C1830
0C1830
0C1830
0FFFF0
0FFFF0
001800
001800
001800
001800
001800
001800
001800
001800
001800
000000
ENDCHAR

STARTCHAR A12C
ENCODING 41260
SWIDTH 960 0
DWIDTH 24 0
BBX 24 24 0 -6
BITMAP
000000
0001C0
0003C0
000780
000F18
001E38
003C78
00F8F0
03E3E0
07C780
1F0F00
1C7E00
01FE00
03E600
0F8600
0E0600
000600
000600
000600
000600
000600
000600
000600
000000
ENDCHAR

STARTCHAR A12D
ENCODING 41261
SWIDTH 960 0
DWIDTH 24 0
BBX 24 24 0 -6
BITMAP
000000
7FFFFE
7FFFFE
001800
001800
0C1800
0C1800
0C1FFC
0C1FFC
0C180C
0C180C
0FFFFC
07FFFC
00000C
00000C
00001C
00001C
000018
000018
000018
0007F8
0007F0
0003C0
000000
ENDCHAR

STARTCHAR A12E
ENCODING 41262
SWIDTH 960 0
DWIDTH 24 0
BBX 24 24 0 -6
BITMAP
000000
006000
006000
006000
7FFFFE
7FFFFE
01C000
03C000
038000
06FFC0
0FFFE0
3F8060
798060
718060
618060
018060
018060
018060
018060
018060
018060
0187E0
0187E0
000000
ENDCHAR

STARTCHAR A12F
ENCODING 41263
SWIDTH 960 0
DWIDTH 24 0
BBX 24 24 0 -6
BITMAP
000000
0C0000
0C0000
0C0000
0C0000
0C0000
0FFFF8
0FFFF8
0C0000
0C0000
0C0000
0FFFFC
07FFFC
00000C
00000C
00001C
3FFFFC
3FFFF8
000018
000038
0007F0
0007F0
000000
000000
ENDCHAR

STARTCHAR A130
ENCODING 41264
SWIDTH 960 0
DWIDTH 24 0
BBX 24 24 0 -6
BITMAP
000000
7FFF80
7FFFC0
00C0C0
00C0C0
00C0C0
00C0C0
7FFFC0
7FFFC0
00C0C0
00C0C0
00C0C0
00C0E0
7FFF60
7FFF60
00C060
00C060
00C06C
00C07C
00C03E
00C03E
00C03E
00C000
000000
ENDCHAR

STARTCHAR A131
ENCODING 41265
SWIDTH 960 0
DWIDTH 24 0
BBX 24 24 0 -6
BITMAP
000000
0FFFE0
0FFFE0
000000
000000
000000
000000
7FFFFE
7FFFFE
006300
006300
00E300
00C300
00C300
01C300
018300
038300
078300
0F0300
7E0300
7C0300
000300
000300
000000
ENDCHAR

STARTCHAR A132
ENCODING 41266
SWIDTH 960 0
DWIDTH 24 0
BBX 24 24 0 -6
BITMAP
000000
030C00
030C00
070C00
070C00
0E0C00
0EFFF8
1CFFFC
7C0C0C
7C0C0C
6C0C0C
0C0C0C
0C1C0C
0C1C0C
0C181C
0C1818
0C3818
0C3838
0C7038
0CF030
0DE770
0DC7F0
0C01C0
000000
ENDCHAR

STARTCHAR A133
ENCODING 41267
SWIDTH 960 0
DWIDTH 24 0
BBX 24 24 0 -6
BITMAP
000000
030000
030000
070000
070FC0
0E1FE0
1E1860
3C1860
3C1860
7C1860
6C1860
0C1860
0C1860
0C1860
0C1860
0C3860
0C3860
0C3066
0C3066
0C7066
0CE066
0DC07E
0D807E
000000
ENDCHAR

STARTCHAR A134
ENCODING 41268
SWIDTH 960 0
DWIDTH 24 0
BBX 24 24 0 -6
BITMAP
000000
018000
038000
031FC0
061FE0
060060
0E3060
1E3860
3E3860
3E3860
763060
663060
067070
066070
066030
066030
06E038
06C01C
07C01C
07C00E
078006
060000
060000
000000
ENDCHAR

STARTCHAR A135
ENCODING 41269
SWIDTH 960 0
DWIDTH 24 0
BBX 24 24 0 -6
BITMAP
000000
001800
001800
001800
001800
001800
3FFFF8
3FFFFC
30180C
30180C
303C0C
003C00
003C00
007C00
006C00
00EC00
00EC00
01CC00
03CC00
038C0C
070C0C
1F0FFC
3C0FF8
000000
ENDCHAR

STARTCHAR A136
ENCODING 41270
SWIDTH 960 0
DWIDTH 24 0
BBX 24 24 0 -6
BITMAP
000000
018000
038000
030000
07FFF8
0FFFFC
0E600C
1C600C
1C600C
38600C
30600C
07FC0C
07FE0C
00660C
00E60C
00C66C
01C67C
01C7FC
0383FC
07000C
0E001C
0C00F8
0000F8
000000
ENDCHAR

STARTCHAR A137
ENCODING 41271
SWIDTH 960 0
DWIDTH 24 0
BBX 24 24 0 -6
BITMAP
000000
01E000
1FE1FC
1F03FE
180306
180306
180306
180306
180306
180306
180306
180306
18C306
1BC306
1F8306
3E0306
780306
60033E
00033E
000306
000300
000300
000300
000000
ENDCHAR

STARTCHAR A138
ENCODING 41272
SWIDTH 960 0
DWIDTH 24 0
BBX 24 24 0 -6
BITMAP
000000
003000
003000
003000
3FFF80
3FFF80
006380
006300
00E300
01C300
03C306
03830E
07030C
1FC3FC
3CC3F8
39C198
0181C0
0380C0
0300E0
030070
073FF0
1FFFF8
1FE018
000000
ENDCHAR

STARTCHAR A139
ENCODING 41273
SWIDTH 960 0
DWIDTH 24 0
BBX 24 24 0 -6
BITMAP
000000
060600
060600
060600
060600
060600
060600
060600
7FC600
7FC600
060600
060600
060600
060600
060600
060600
07C60C
07C60C
1F060C
7C060C
70070C
0007FC
0003FC
000000
ENDCHAR

STARTCHAR A13A
ENCODING 41274
SWIDTH 960 0
DWIDTH 24 0
BBX 24 24 0 -6
BITMAP
000000
1FFFF0
1FFFF0
0300E0
0300C0
0301C0
070180
07F980
07F9FE
0639FE
0E3806
0E3006
1E300E
3E700C
3FE00C
73E00C
71C01C
03E018
0FE018
7F0018
7807F8
0007F8
000000
000000
ENDCHAR

STARTCHAR A13B
ENCODING 41275
SWIDTH 960 0
DWIDTH 24 0
BBX 24 24 0 -6
BITMAP
000000
003000
003000
003000
003000
0FFFE0
0FFFF0
003030
003030
003030
003030
003030
7FFFFE
7FFFFE
003C00
007E00
007E00
00E780
01E3C0
07C1F0
1F807C
7E003E
70000E
000000
ENDCHAR

STARTCHAR A13C
ENCODING 41276
SWIDTH 960 0
DWIDTH 24 0
BBX 24 24 0 -6
BITMAP
000000
003000
003000
033300
073380
0E31E0
1C30F0
383038
303018
00F000
00F000
030000
0F0000
7F0000
7F8000
01E000
00FC00
007F00
000F80
0003E0
0000FC
00007C
000000
000000
ENDCHAR

STARTCHAR A13D
ENCODING 41277
SWIDTH 960 0
DWIDTH 24 0
BBX 24 24 0 -6
BITMAP
000000
003000
003000
003000
003000
7FFFFE
7FFFFE
003000
003000
003000
0FFFF0
1FFFF8
183018
183018
183018
183018
183018
183018
183018
1830F8
1830F8
183000
003000
000000
ENDCHAR

STARTCHAR A13E
ENCODING 41278
SWIDTH 960 0
DWIDTH 24 0
BBX 24 24 0 -6
BITMAP
000000
7FFFFC
7FFFFC
0C1800
0C1800
1C3800
183800
383000
303000
3FFFFE
7FFFFE
606C00
60EC00
00EC00
01CC00
01CC00
038C00
038C06
070C0E
0F0C0C
1C0FFC
380FF8
380000
000000
ENDCHAR

STARTCHAR A13F
ENCODING 41279
SWIDTH 960 0
DWIDTH 24 0
BBX 24 24 0 -6
BITMAP
000000
03FC00
03FE00
018600
018600
038618
070618
0F07F8
0E07F8
000000
000000
1FFFE0
1FFFE0
038060
03C0E0
01E1C0
0077C0
003F00
001E00
007F80
0FF3FC
1FC0FC
1C0000
000000
ENDCHAR

STARTCHAR A140
ENCODING 41280
SWIDTH 960 0
DWIDTH 24 0
BBX 24 24 0 -6
BITMAP
000000
000000
000000
0FFFE0
0FFFF0
0C1830
0C1830
0C1830
0C1830
0C1830
0C1830
7FFFFE
7FFFFE
181830
181830
181830
181830
181830
1FFFFE
1FFFFE
000000
000000
000000
000000
ENDCHAR

STARTCHAR A141
ENCODING 41281
SWIDTH 960 0
DWIDTH 24 0
BBX 24 24 0 -6
BITMAP
000000
060000
060000
0FFFFC
1FFFFC
3C0000
7FFFF0
77FFF0
000000
3FFFF0
3FFFF0
000030
000070
000060
000060
000060
000070
000070
000030
000036
00003E
00003E
00001E
000000
ENDCHAR

STARTCHAR A142
ENCODING 41282
SWIDTH 960 0
DWIDTH 24 0
BBX 24 24 0 -6
BITMAP
000000
0180C0
0180C0
0180C0
0180C0
0180C0
01FFC0
00FFC0
0000C0
0000C0
0000C0
0000C0
07FFC0
07FFC0
0060C0
0060C0
0060C0
0060C0
00E0C0
01E0C0
01C0C0
0380C0
0380C0
000000
ENDCHAR

STARTCHAR A143
ENCODING 41283
SWIDTH 960 0
DWIDTH 24 0
BBX 24 24 0 -6
BITMAP
000000
00C300
00C300
00C300
0CC330
0CC330
0CC330
0CC330
0CC330
0CC330
0CC330
0CC330
0FC3F0
07C3E0
00C300
00C300
00C300
01C300
038300
038300
070300
070300
0E0300
000000
ENDCHAR

STARTCHAR A144
ENCODING 41284
SWIDTH 960 0
DWIDTH 24 0
BBX 24 24 0 -6
BITMAP
000000
018300
018300
018300
018300
018300
3FFFFC
3FFFFC
01FF00
01B300
019B00
018F00
7FFFFE
7FFFFE
018300
018300
018300
038300
038300
070300
0E0300
1E0300
180300
000000
ENDCHAR

STARTCHAR A145
ENCODING 41285
SWIDTH 960 0
DWIDTH 24 0
BBX 24 24 0 -6
BITMAP
000000
060000
07FFFC
0FFFFC
0E0000
0C0000
1C0000
3C0000
7C0000
6C0000
4C0000
0C0000
0CFFFC
0CFFFC
0C0000
0C0000
0C0000
0C0000
0C0000
0C0000
0C0000
0FFFFE
0FFFFE
000000
ENDCHAR

STARTCHAR A146
ENCODING 41286
SWIDTH 960 0
DWIDTH 24 0
BBX 24 24 0 -6
BITMAP
000000
018000
038000
038000
073FFE
073FFE
0E00C0
1E00C0
3E00C0
7E00C0
7600C0
6600C0
0600C0
0600C0
0600C0
0600C0
0600C0
0600C0
0600C0
0600C0
063FFE
063FFE
060000
000000
ENDCHAR

STARTCHAR A147
ENCODING 41287
SWIDTH 960 0
DWIDTH 24 0
BBX 24 24 0 -6
BITMAP
000000
030000
030300
070300
0E0300
0E0300
1E0300
3E0300
3E0300
760300
7603FC
6603FC
060300
060300
060300
060300
060300
060300
060300
060300
07FFFE
07FFFE
060000
000000
ENDCHAR

STARTCHAR A148
ENCODING 41288
SWIDTH 960 0
DWIDTH 24 0
BBX 24 24 0 -6
BITMAP
000000
018C00
038C00
031C00
071800
0E3FFE
1C3FFE
1C3000
3C7000
7CE000
6CFFF0
4C1FF0
0C00E0
0C03C0
0C0780
0C0F00
0C0E00
0C1C06
0C1806
0C1806
0C1806
0C1FFE
0C1FFE
000000
ENDCHAR

STARTCHAR A149
ENCODING 41289
SWIDTH 960 0
DWIDTH 24 0
BBX 24 24 0 -6
BITMAP
000000
000800
001C00
003E00
007F00
00E780
01E3E0
03C0F0
0F8078
1F003E
7C000E
700000
07FFF0
07FFF0
001800
001800
001800
001800
001800
001800
001800
7FFFFE
7FFFFE
000000
ENDCHAR

STARTCHAR A14A
ENCODING 41290
SWIDTH 960 0
DWIDTH 24 0
BBX 24 24 0 -6
BITMAP
000000
000000
001800
003C00
007E00
00EF80
01C7C0
0FC1F0
7F80FE
78001E
000000
001800
001800
001800
001830
0C1830
0C1830
0C1830
0C1830
0C1830
0FFFF0
07FFE0
000000
000000
ENDCHAR

STARTCHAR A14B
ENCODING 41291
SWIDTH 960 0
DWIDTH 24 0
BBX 24 24 0 -6
BITMAP
000000
00600C
00600C
0060CC
0060CC
0060CC
0060CC
7FFFCC
7FFFCC
0060CC
0060CC
3060CC
3860CC
1860CC
1C60CC
0C60CC
0E60CC
0660CC
0060CC
00600C
00600C
07F03C
07F03C
000000
ENDCHAR

STARTCHAR A14C
ENCODING 41292
SWIDTH 960 0
DWIDTH 24 0
BBX 24 24 0 -6
BITMAP
000000
06000C
06000C
0E000C
1C000C
3FFCCC
3FFCCC
7000CC
6000CC
6000CC
1FF0CC
1FF0CC
00E0CC
01C0CC
03C0CC
0780CC
0F00CC
0E00CC
1C0CCC
1C0C0C
181C0C
1FFC3C
1FF03C
000000
ENDCHAR

STARTCHAR A14D
ENCODING 41293
SWIDTH 960 0
DWIDTH 24 0
BBX 24 24 0 -6
BITMAP
000000
000000
1FFFFC
3FFFFC
30C600
30C600
30C600
30C6E0
30C7E0
30FFE0
31FE60
37E660
37C660
30C7E0
30C7E0
30C618
30C038
30FFF8
30FFF0
300000
3FFFFE
1FFFFE
000000
000000
ENDCHAR

STARTCHAR A14E
ENCODING 41294
SWIDTH 960 0
DWIDTH 24 0
BBX 24 24 0 -6
BITMAP
000000
033660
033660
033660
033660
033660
033660
033660
033660
7FFFFE
7FFFFE
033660
033660
033660
033660
073660
073660
0E3660
1C3660
183660
383660
703660
603060
000000
ENDCHAR

STARTCHAR A14F
ENCODING 41295
SWIDTH 960 0
DWIDTH 24 0
BBX 24 24 0 -6
BITMAP
000000
000000
060000
067FFE
067FFE
0600C0
0600C0
7FE0C0
7FE0C0
0600C0
0600C0
0600C0
0600C0
0600C0
0600C0
0670C0
07F0C0
1FC0C0
7E00C0
7000C0
000FC0
000F80
000000
000000
ENDCHAR

STARTCHAR A150
ENCODING 41296
SWIDTH 960 0
DWIDTH 24 0
BBX 24 24 0 -6
BITMAP
000000
000000
0FFFE0
0FFFE0
01C0E0
01C3C0
00E780
007F00
003E00
007F00
03F7E0
3FE1FC
3F183C
001800
001800
001800
1FFFF8
1FFFF8
001800
001800
001800
7FFFFE
7FFFFE
000000
ENDCHAR

STARTCHAR A151
ENCODING 41297
SWIDTH 960 0
DWIDTH 24 0
BBX 24 24 0 -6
BITMAP
000000
030000
0307F0
030FF8
070C18
070C18
060C18
0FFC18
0FFC18
0C3C18
1C7C18
1E6CF8
3FECF8
67CC00
41CC00
01CC00
038C00
038C06
070C06
1E0C06
7C0FFE
700FFE
000000
000000
ENDCHAR

STARTCHAR A152
ENCODING 41298
SWIDTH 960 0
DWIDTH 24 0
BBX 24 24 0 -6
BITMAP
000000
001800
001800
001800
7FFFFE
7FFFFE
00F700
01E380
0381E0
0F00F8
7E183E
78180E
001800
3FFFFC
3FFFFC
00180C
00380C
00700C
00F00C
01E01C
07C01C
1F81F8
1E01F0
000000
ENDCHAR

STARTCHAR A153
ENCODING 41299
SWIDTH 960 0
DWIDTH 24 0
BBX 24 24 0 -6
BITMAP
000000
001800
001800
001800
3FFFFC
7FFFFE
600006
600006
6FFFE6
6FFFE6
001800
001800
001800
001800
001800
001800
001800
001800
001800
001800
001800
00F800
00F800
000000
ENDCHAR

STARTCHAR A154
ENCODING 41300
SWIDTH 960 0
DWIDTH 24 0
BBX 24 24 0 -6
BITMAP
000000
001800
001800
001800
3FFFFC
7FFFFE
603006
603006
603006
603006
003000
3FFF80
3FFF80
006180
006180
00E380
00C300
01C300
01C30C
07830C
0F871C
3E07F8
3807F8
000000
ENDCHAR

STARTCHAR A155
ENCODING 41301
SWIDTH 960 0
DWIDTH 24 0
BBX 24 24 0 -6
BITMAP
000000
001800
003800
007C00
00EE00
03C700
0F83C0
3F19F0
7C18FE
70181E
0318C0
0318C0
0718E0
0F18F0
1E1878
1C183C
38181E
78180E
701800
001800
001800
00F800
00F800
000000
ENDCHAR

STARTCHAR A156
ENCODING 41302
SWIDTH 960 0
DWIDTH 24 0
BBX 24 24 0 -6
BITMAP
000000
0FFFF8
1FFFFC
18000C
18000C
18000C
1FFFFC
1FFFF8
180C00
180C00
180C00
180C00
19FFC0
19FFE0
180C60
380C60
381C60
301860
303862
707866
71F066
63C07E
03803E
000000
ENDCHAR

STARTCHAR A157
ENCODING 41303
SWIDTH 960 0
DWIDTH 24 0
BBX 24 24 0 -6
BITMAP
000000
000C00
000C00
060C18
060C18
060C18
060C18
060C18
060C18
07FFF8
03FFF0
001800
001800
7FFFFC
7FFFFC
00300C
00701C
007018
00E018
07E038
1F8030
3E03F0
3803E0
000000
ENDCHAR

STARTCHAR A158
ENCODING 41304
SWIDTH 960 0
DWIDTH 24 0
BBX 24 24 0 -6
BITMAP
000000
003000
003800
001C00
003E00
00F700
03C3C0
0F81F0
3E007E
78001E
700000
001800
001800
001800
001800
0C1830
0C1830
0C1830
0C1830
0C1830
0FFFF0
07FFE0
000000
000000
ENDCHAR

STARTCHAR A159
ENCODING 41305
SWIDTH 960 0
DWIDTH 24 0
BBX 24 24 0 -6
BITMAP
000000
0C0000
0C0000
0C7FFE
0C7FFE
3F8180
7FC180
6CC180
6CC180
6CC180
6CC180
6CC180
6CC180
6CC180
6FC180
6FC180
6CC180
6C0180
6C0180
0C0180
0C0F80
0C0F80
0C0000
000000
ENDCHAR

STARTCHAR A15A
ENCODING 41306
SWIDTH 960 0
DWIDTH 24 0
BBX 24 24 0 -6
BITMAP
000000
001800
001800
001800
1FFFFE
3FFFFE
300000
300000
300000
318000
318180
318380
318780
31FF00
31FC00
31E000
318030
318030
318030
318030
31FFF0
21FFE0
600000
000000
ENDCHAR

STARTCHAR A15B
ENCODING 41307
SWIDTH 960 0
DWIDTH 24 0
BBX 24 24 0 -6
BITMAP
000000
001800
001800
001800
0FFFFE
1FFFFE
180C00
180C00
180C00
180C00
180C00
180C00
181E00
181E00
181E00
183F00
183F80
387380
38F1C0
31E0E0
77C0F0
6F007C
0E001C
000000
ENDCHAR

STARTCHAR A15C
ENCODING 41308
SWIDTH 960 0
DWIDTH 24 0
BBX 24 24 0 -6
BITMAP
000000
060000
060000
067FFC
067FFE
060186
370186
378186
378186
37C186
77C186
76C186
660186
060386
060306
060306
060306
060706
060E0E
060E0E
061CEC
06F8FC
06F038
000000
ENDCHAR

STARTCHAR A15D
ENCODING 41309
SWIDTH 960 0
DWIDTH 24 0
BBX 24 24 0 -6
BITMAP
000000
001980
0019C0
0018E0
0018E0
001C60
0FFFFE
1FFFFE
180C00
180C30
180E70
180E60
180660
180760
1803E0
1803C0
1803C0
187380
1BF7D8
1FCFFC
7E7EFC
70F83C
00C00C
000000
ENDCHAR

STARTCHAR A15E
ENCODING 41310
SWIDTH 960 0
DWIDTH 24 0
BBX 24 24 0 -6
BITMAP
000000
060060
060060
060060
060060
060060
7FE060
7FEFFE
060FFE
060066
0660E6
07E0E6
07C0CE
0F00CC
1E00CC
3E00CC
7601CC
6601CC
06038C
06078C
06070C
1E0EFC
1E1CF8
000000
ENDCHAR

STARTCHAR A15F
ENCODING 41311
SWIDTH 960 0
DWIDTH 24 0
BBX 24 24 0 -6
BITMAP
000000
060000
0E0000
0FFFFC
1FFFFC
3C0000
780000
7FFFF0
0FFFF0
000000
3FFFF8
3FFFF8
001838
001830
001830
003830
003830
007030
01F030
03C036
0F8036
1E003E
1C001C
000000
ENDCHAR

STARTCHAR A160
ENCODING 41312
SWIDTH 960 0
DWIDTH 24 0
BBX 24 24 0 -6
BITMAP
000000
000000
1FFFE0
1FFFE0
0001C0
000780
000F00
001C0C
7FF83C
7FF67C
00F7F0
01F7C0
03B380
03B1C0
0730E0
0E30F0
1E3078
38303E
70301E
703000
00F000
00F000
000000
000000
ENDCHAR

STARTCHAR A161
ENCODING 41313
SWIDTH 960 0
DWIDTH 24 0
BBX 24 24 0 -6
BITMAP
000000
380000
3C0000
1E3F80
063F80
003180
003180
003180
603180
7831C0
3C30C0
1C30C0
0670C0
0660E0
0E60E0
0C6070
1CE038
19C03C
3BC01C
3B800E
370006
770000
600000
000000
ENDCHAR

STARTCHAR A162
ENCODING 41314
SWIDTH 960 0
DWIDTH 24 0
BBX 24 24 0 -6
BITMAP
000000
700600
780600
3C0600
0C0600
000600
000600
01FFF0
01FFF0
600E30
700E30
380C70
181C60
001860
061860
0E3860
0E3860
1C7066
1CF066
39E066
39C066
73807E
63807E
000000
ENDCHAR

STARTCHAR A163
ENCODING 41315
SWIDTH 960 0
DWIDTH 24 0
BBX 24 24 0 -6
BITMAP
000000
300300
3C0300
1E0380
0E0180
000180
00FFFC
00FFFC
70038C
7C030C
3E030C
0E030C
00030C
03030C
03070C
07060C
0E0E0C
0E1E0C
1C1C0C
1C381C
187818
38F1F8
30E1F0
000000
ENDCHAR

STARTCHAR A164
ENCODING 41316
SWIDTH 960 0
DWIDTH 24 0
BBX 24 24 0 -6
BITMAP
000000
003070
003078
00303C
00700C
7FFFFE
7FFFFE
006000
006000
00E060
00E060
00F060
01F0E0
03B8E0
07B8C0
0F1DC0
1E0F80
3C0F80
780F00
701FC0
007DF8
0FF87E
0FC01E
000000
ENDCHAR

STARTCHAR A165
ENCODING 41317
SWIDTH 960 0
DWIDTH 24 0
BBX 24 24 0 -6
BITMAP
000000
318300
398300
1F8380
1F0380
0F0180
1E0180
7E3FF8
773FF8
030318
0F0318
0F0338
1F0730
1B0730
3B0630
3B0E30
730C30
630C70
031C66
033C66
037866
3F707E
3F007E
000000
ENDCHAR

STARTCHAR A166
ENCODING 41318
SWIDTH 960 0
DWIDTH 24 0
BBX 24 24 0 -6
BITMAP
000000
000000
000000
7FFFF8
7FFFF8
003070
003038
003018
003000
003000
003000
3FFFF0
3FFFF0
003000
003000
003000
003000
003000
003000
003000
7FFFFE
7FFFFE
000000
000000
ENDCHAR

STARTCHAR A167
ENCODING 41319
SWIDTH 960 0
DWIDTH 24 0
BBX 24 24 0 -6
BITMAP
000000
001800
001800
001800
001800
001800
1FFFF8
3FFFFC
30180C
30180C
30180C
30180C
30180C
30198C
3019CC
301FEC
30FFEC
33F86C
33800C
30000C
30000C
3000FC
3000FC
000000
ENDCHAR

STARTCHAR A168
ENCODING 41320
SWIDTH 960 0
DWIDTH 24 0
BBX 24 24 0 -6
BITMAP
000000
000000
0FBFF0
1FFFF0
18C030
18C060
18C060
1FC0C0
1FC1C0
18C180
18C300
18C300
1FC600
1FCC00
18DC00
38F806
38F006
30F006
30F006
30FFFE
77DFFC
67C000
000000
000000
ENDCHAR

STARTCHAR A169
ENCODING 41321
SWIDTH 960 0
DWIDTH 24 0
BBX 24 24 0 -6
BITMAP
000000
3F8180
7F8180
638180
630180
670180
66FFFE
6EFFFE
6C0186
6E0186
6E0386
670306
630306
638706
618606
638606
6F0606
6F0E06
671E06
603C06
60386E
60707C
60607C
000000
ENDCHAR

STARTCHAR A16A
ENCODING 41322
SWIDTH 960 0
DWIDTH 24 0
BBX 24 24 0 -6
BITMAP
000000
018180
018180
038180
078180
0FFFFE
1EFFFE
1E0180
3E0180
7E0180
660180
06FFFE
06FFFE
06181E
061C1C
060C38
060E70
060FF0
0607E0
0607E0
061FF8
06FC3E
07F01E
000000
ENDCHAR

STARTCHAR A16B
ENCODING 41323
SWIDTH 960 0
DWIDTH 24 0
BBX 24 24 0 -6
BITMAP
000000
0306C0
0306E0
0707F0
0E0778
0E0338
1C0300
1FFFFE
3FFFFE
7C0700
7C0F00
6C0F00
0C0F00
0C0F00
0C1F00
0C1B00
0C1B00
0C3B06
0C7306
0CF306
0DE30E
0DC3FE
0C01FC
000000
ENDCHAR

STARTCHAR A16C
ENCODING 41324
SWIDTH 960 0
DWIDTH 24 0
BBX 24 24 0 -6
BITMAP
000000
030000
033FF8
037FFC
07600C
0E600C
0E7FFC
1C7FF8
1C6380
3C6180
3C6180
7C6180
6C6180
0C61C0
0C61C0
0C60C0
0C60E0
0C6060
0CE070
0DC038
0FC01C
0F800C
0C0000
000000
ENDCHAR

STARTCHAR A16D
ENCODING 41325
SWIDTH 960 0
DWIDTH 24 0
BBX 24 24 0 -6
BITMAP
000000
00C000
01D800
01D800
039800
03B800
073000
0E7FFE
1E7FFE
3EE180
7FC180
778180
060180
07FFFE
07FFFE
060180
060180
060180
060180
060180
060180
060180
060180
000000
ENDCHAR

STARTCHAR A16E
ENCODING 41326
SWIDTH 960 0
DWIDTH 24 0
BBX 24 24 0 -6
BITMAP
000000
060000
060000
0EFFFC
0DFFFE
1D8006
3998C6
3998C6
7998C0
7818C0
1818C0
1818C0
1818C0
1818C0
1818C0
1818C0
1818C0
1838C0
1838C6
1870C6
18E0FE
19C0FE
1B80C0
000000
ENDCHAR

STARTCHAR A16F
ENCODING 41327
SWIDTH 960 0
DWIDTH 24 0
BBX 24 24 0 -6
BITMAP
000000
030000
070300
070700
0E0F80
0E1FC0
0C3CE0
1CF878
3FF03C
3FFFFE
7C3FEE
6C0000
4C0000
0C0000
0DFFF8
0DFFF8
0C0018
0C0038
0C0070
0C00E0
0C01C0
0C0380
0C0700
000000
ENDCHAR

STARTCHAR A170
ENCODING 41328
SWIDTH 960 0
DWIDTH 24 0
BBX 24 24 0 -6
BITMAP
000000
00C000
01CFE0
018FE0
038E60
070660
070E70
0E0C38
1E1C3C
3E381C
76798E
667386
060300
060700
060E60
060E70
060C30
061C38
061818
06187C
06FFFC
06FFCC
06000C
000000
ENDCHAR

STARTCHAR A171
ENCODING 41329
SWIDTH 960 0
DWIDTH 24 0
BBX 24 24 0 -6
BITMAP
000000
030100
030380
0707C0
070FE0
0E0EF0
0E1C78
1C783C
1DF83E
3DF836
3C1830
7C1830
6C1830
0C1830
0C1830
0C1830
0C1C30
0C1C30
0C1C30
0C3830
0C7830
0CF030
0CE030
000000
ENDCHAR

STARTCHAR A172
ENCODING 41330
SWIDTH 960 0
DWIDTH 24 0
BBX 24 24 0 -6
BITMAP
000000
030C00
070F00
070780
0E03C0
0C03E0
1C0360
3C0300
7C3330
6C3338
4C331C
0C331C
0C330C
0C330E
0C7306
0C6306
0CE300
0CE306
0DC306
0D8306
0C0306
0C03FE
0C03FE
000000
ENDCHAR

STARTCHAR A173
ENCODING 41331
SWIDTH 960 0
DWIDTH 24 0
BBX 24 24 0 -6
BITMAP
000000
030000
070000
06FFFC
0EFFFC
0E0000
1C0000
3C0000
3C0000
7DFFFE
6DFFFE
0C0700
0C0600
0C0660
0C0E70
0C0C30
0C1C38
0C1838
0C181C
0C39FC
0C3FFE
0DFF86
0DF006
000000
ENDCHAR

STARTCHAR A174
ENCODING 41332
SWIDTH 960 0
DWIDTH 24 0
BBX 24 24 0 -6
BITMAP
000000
030180
030180
030180
077FFE
067FFE
0E0180
0E0180
1E0180
3E0180
763FFC
667FFE
066186
066186
066186
066186
066186
066186
066186
066186
0661BE
0661BE
060180
000000
ENDCHAR

STARTCHAR A175
ENCODING 41333
SWIDTH 960 0
DWIDTH 24 0
BBX 24 24 0 -6
BITMAP
000000
060600
060600
060600
0E0600
0EFFF8
0CFFF8
1C0600
1C6630
3C6630
3C6630
7C6630
6C6630
0C6630
0C7FF0
0C3FE0
0C0600
0C060C
0C060C
0C070C
0C07FC
0C03FC
0C0000
000000
ENDCHAR

STARTCHAR A176
ENCODING 41334
SWIDTH 960 0
DWIDTH 24 0
BBX 24 24 0 -6
BITMAP
000000
030000
030000
03FFFC
07FFFC
0E3060
0E3060
1C3060
1C3060
3C3060
3CFFFE
7CFFFE
6C0360
0C0760
0C0E60
0C1C60
0C3C60
0C7860
0DE060
0FC0E0
0F07E0
0C07C0
0C0000
000000
ENDCHAR

STARTCHAR A177
ENCODING 41335
SWIDTH 960 0
DWIDTH 24 0
BBX 24 24 0 -6
BITMAP
000000
030000
037FFE
067FFE
0E00E0
0C01C0
1C01C0
1C0380
3C03C0
7C07E0
6C0F60
0C1F30
0C3B18
0C730C
0DE306
0C0300
0C0300
0C0300
0C0300
0C0300
0C0300
0C0300
0C0300
000000
ENDCHAR

STARTCHAR A178
ENCODING 41336
SWIDTH 960 0
DWIDTH 24 0
BBX 24 24 0 -6
BITMAP
000000
060000
06FFF0
06FFF8
0E0C18
0E0C18
0C7FF8
1CFFF0
1CCC00
3CCC00
3CCC00
7CFFFC
6C7FFC
0C0C0C
0C0C0C
0C0C0C
0C0C0C
0C0C0C
0C0CDC
0C0CFC
0C0C78
0C0C00
0C0C00
000000
ENDCHAR

STARTCHAR A179
ENCODING 41337
SWIDTH 960 0
DWIDTH 24 0
BBX 24 24 0 -6
BITMAP
000000
030000
030FF0
071FF8
071818
0E1818
1C1818
1C1FF8
3C1FF8
7C1818
6C1818
4C1818
0C1FF8
0C1FF8
0C1818
0C1818
0C1818
0C3818
0C3018
0C7018
0C6018
0CE1F8
0DC1F8
000000
ENDCHAR

STARTCHAR A17A
ENCODING 41338
SWIDTH 960 0
DWIDTH 24 0
BBX 24 24 0 -6
BITMAP
000000
030030
0301F0
033FE0
073F80
073000
0E3000
0E3000
0E3FFE
1C3FFE
3C3060
7C3060
6C3060
0C3060
0C3060
0C7060
0C7060
0CE060
0CE060
0CC060
0DC060
0F8060
0F0060
000000
ENDCHAR

STARTCHAR A17B
ENCODING 41339
SWIDTH 960 0
DWIDTH 24 0
BBX 24 24 0 -6
BITMAP
000000
63FFFC
73FFFC
381800
1C3800
0C3000
003000
003FF0
007FF0
006030
006030
006070
00E060
06C060
06FFE0
0EFFE0
1C0060
1C00E0
3800C0
3800C0
7000C0
6FFFFE
0FFFFE
000000
ENDCHAR

STARTCHAR A17C
ENCODING 41340
SWIDTH 960 0
DWIDTH 24 0
BBX 24 24 0 -6
BITMAP
000000
00000C
1FFC0C
1FFC6C
00006C
00006C
00006C
00006C
7FFF6C
7FFF6C
03606C
03606C
03606C
07606C
07606C
06606C
0E636C
0C636C
1C630C
18630C
787F0C
707F3C
00003C
000000
ENDCHAR

STARTCHAR A17D
ENCODING 41341
SWIDTH 960 0
DWIDTH 24 0
BBX 24 24 0 -6
BITMAP
000000
0000CC
0FF0CC
1FF8CC
1E18CC
1F98CC
1BD8CC
19F8CC
1878CC
183FCC
1FFFCC
7FF8CC
7C18CC
1818CC
1818CC
1818CC
1818CC
3818CC
3818CC
701C0C
60FCCC
00FCFC
00007C
000000
ENDCHAR

STARTCHAR A17E
ENCODING 41342
SWIDTH 960 0
DWIDTH 24 0
BBX 24 24 0 -6
BITMAP
000000
000C00
000C00
000C00
07FFE0
07FFE0
001C60
003860
007060
00E7E0
01C7E0
0180C0
0180C0
3FFFF8
3FFFF8
01B0D8
0331D8
033198
073398
0E3318
0C3638
19F7F8
31FDF0
000000
ENDCHAR

STARTCHAR A1A1
ENCODING 41377
SWIDTH 960 0
DWIDTH 24 0
BBX 24 24 0 -6
BITMAP
000000
000000
000000
000000
000000
000000
000000
000000
000000
000000
000000
000000
000000
000000
000000
000000
000000
000000
000000
000000
000000
000000
000000
000000
ENDCHAR

STARTCHAR A1A2
ENCODING 41378
SWIDTH 960 0
DWIDTH 24 0
BBX 24 24 0 -6
BITMAP
000000
000000
000000
000000
000000
000000
000000
000000
000000
000000
000000
000000
003800
007C00
007E00
007E00
003E00
000C00
001C00
003800
006000
000000
000000
000000
ENDCHAR

STARTCHAR A1A3
ENCODING 41379
SWIDTH 960 0
DWIDTH 24 0
BBX 24 24 0 -6
BITMAP
000000
000000
000000
000000
000000
000000
000000
000000
000000
000000
000000
000000
000000
00E000
007800
003C00
001E00
000F00
000F00
000600
000000
000000
000000
000000
ENDCHAR

STARTCHAR A1A4
ENCODING 41380
SWIDTH 960 0
DWIDTH 24 0
BBX 24 24 0 -6
BITMAP
000000
000000
000000
000000
000000
000000
000000
001800
007E00
00E700
01C380
018180
018180
01C380
00E700
007E00
001800
000000
000000
000000
000000
000000
000000
000000
ENDCHAR

STARTCHAR A1A5
ENCODING 41381
SWIDTH 960 0
DWIDTH 24 0
BBX 24 24 0 -6
BITMAP
000000
000000
000000
000000
000000
000000
000000
000000
000000
000000
000000
000000
000000
000000
001800
003C00
007E00
007E00
003C00
001800
000000
000000
000000
000000
ENDCHAR

STARTCHAR A1A6
ENCODING 41382
SWIDTH 960 0
DWIDTH 24 0
BBX 24 24 0 -6
BITMAP
000000
000000
000000
000000
000000
000000
000000
007C00
00FE00
01FF00
01FF00
01FF00
01FF00
01FF00
00FE00
007C00
000000
000000
000000
000000
000000
000000
000000
000000
ENDCHAR

STARTCHAR A1A7
ENCODING 41383
SWIDTH 960 0
DWIDTH 24 0
BBX 24 24 0 -6
BITMAP
000000
000000
000000
001800
003C00
007E00
007E00
007E00
003C00
001800
000000
000000
001800
003C00
007E00
007E00
003E00
000C00
001C00
003800
007000
000000
000000
000000
ENDCHAR

STARTCHAR A1A8
ENCODING 41384
SWIDTH 960 0
DWIDTH 24 0
BBX 24 24 0 -6
BITMAP
000000
000000
000000
001800
003C00
007E00
007E00
007E00
003C00
001800
000000
000000
001800
003C00
007E00
007E00
007E00
003C00
001800
000000
000000
000000
000000
000000
ENDCHAR

STARTCHAR A1A9
ENCODING 41385
SWIDTH 960 0
DWIDTH 24 0
BBX 24 24 0 -6
BITMAP
000000
000000
003C00
00FF00
01C780
0383C0
0701C0
0781C0
03C3C0
038780
000E00
001C00
001C00
001800
001800
001800
000000
001800
003C00
003C00
001800
000000
000000
000000
ENDCHAR

STARTCHAR A1AA
ENCODING 41386
SWIDTH 960 0
DWIDTH 24 0
BBX 24 24 0 -6
BITMAP
000000
000000
001800
003C00
007C00
007C00
007C00
003C00
003C00
003C00
003C00
003800
001800
001800
001800
000800
000000
001800
003C00
003C00
001800
000000
000000
000000
ENDCHAR

STARTCHAR A1AB
ENCODING 41387
SWIDTH 960 0
DWIDTH 24 0
BBX 24 24 0 -6
BITMAP
000000
000000
000000
001800
003C00
007E00
007E00
007E00
003C00
001800
000000
000000
000000
001800
003C00
007E00
007E00
007E00
003C00
001800
000000
000000
000000
000000
ENDCHAR

STARTCHAR A1AC
ENCODING 41388
SWIDTH 960 0
DWIDTH 24 0
BBX 24 24 0 -6
BITMAP
000000
000000
000000
000000
000000
000000
000000
000000
000000
0E1C38
1F3E7C
1F3E7C
1F3E7C
0E1C38
000000
000000
000000
000000
000000
000000
000000
000000
000000
000000
ENDCHAR

STARTCHAR A1AD
ENCODING 41389
SWIDTH 960 0
DWIDTH 24 0
BBX 24 24 0 -6
BITMAP
000000
000000
000000
000000
000000
000000
000000
000000
000000
0700E0
0F81F0
0F81F0
0F81F0
0700E0
000000
000000
000000
000000
000000
000000
000000
000000
000000
000000
ENDCHAR

STARTCHAR A1AE
ENCODING 41390
SWIDTH 960 0
DWIDTH 24 0
BBX 24 24 0 -6
BITMAP
000000
000000
000000
000000
000000
000000
000000
000000
000000
000000
000000
000000
003800
007C00
007C00
003C00
000C00
000C00
001800
007000
000000
000000
000000
000000
ENDCHAR

STARTCHAR A1AF
ENCODING 41391
SWIDTH 960 0
DWIDTH 24 0
BBX 24 24 0 -6
BITMAP
000000
000000
000000
000000
000000
000000
000000
000000
000000
000000
000000
000000
000000
006000
007800
003C00
001E00
000E00
000E00
000400
000000
000000
000000
000000
ENDCHAR

STARTCHAR A1B0
ENCODING 41392
SWIDTH 960 0
DWIDTH 24 0
BBX 24 24 0 -6
BITMAP
000000
000000
000000
000000
000000
000000
000000
000000
000000
000000
000000
000000
000000
000000
003800
007C00
007C00
003800
000000
000000
000000
000000
000000
000000
ENDCHAR

STARTCHAR A1B1
ENCODING 41393
SWIDTH 960 0
DWIDTH 24 0
BBX 24 24 0 -6
BITMAP
000000
000000
000000
000000
000000
000000
000000
000000
003C00
007E00
00FF00
00FF00
00FF00
007E00
003C00
000000
000000
000000
000000
000000
000000
000000
000000
000000
ENDCHAR

STARTCHAR A1B2
ENCODING 41394
SWIDTH 960 0
DWIDTH 24 0
BBX 24 24 0 -6
BITMAP
000000
000000
000000
000000
000000
001800
003C00
007E00
007E00
003C00
001800
000000
000000
003800
007C00
007C00
003C00
001C00
001800
003000
006000
000000
000000
000000
ENDCHAR

STARTCHAR A1B3
ENCODING 41395
SWIDTH 960 0
DWIDTH 24 0
BBX 24 24 0 -6
BITMAP
000000
000000
000000
000000
000000
003800
007C00
007C00
007C00
003800
000000
000000
000000
003800
007C00
007C00
007C00
003800
000000
000000
000000
000000
000000
000000
ENDCHAR

STARTCHAR A1B4
ENCODING 41396
SWIDTH 960 0
DWIDTH 24 0
BBX 24 24 0 -6
BITMAP
000000
000000
000000
007C00
01FF00
01C380
038380
03C380
03C780
01CF80
000F00
000C00
001C00
001800
001800
000000
001800
003C00
003C00
001800
000000
000000
000000
000000
ENDCHAR

STARTCHAR A1B5
ENCODING 41397
SWIDTH 960 0
DWIDTH 24 0
BBX 24 24 0 -6
BITMAP
000000
000000
000000
001800
003C00
003C00
003C00
003C00
003C00
003C00
001800
001800
001800
001800
000800
000000
001800
003C00
003C00
001800
000000
000000
000000
000000
ENDCHAR

STARTCHAR A1B6
ENCODING 41398
SWIDTH 960 0
DWIDTH 24 0
BBX 24 24 0 -6
BITMAP
000000
001800
001800
001800
001800
001800
001800
001800
001800
001800
001800
001800
001800
001800
001800
001800
001800
001800
001800
001800
001800
001800
001800
000000
ENDCHAR

STARTCHAR A1B7
ENCODING 41399
SWIDTH 960 0
DWIDTH 24 0
BBX 24 24 0 -6
BITMAP
000000
000000
000000
000000
000000
000000
000000
000000
000000
000000
0FFFF0
0FFFF0
0FFFF0
000000
000000
000000
000000
000000
000000
000000
000000
000000
000000
000000
ENDCHAR

STARTCHAR A1B8
ENCODING 41400
SWIDTH 960 0
DWIDTH 24 0
BBX 24 24 0 -6
BITMAP
000000
600000
600000
600000
600000
600000
600000
600000
600000
600000
600000
600000
600000
600000
600000
600000
600000
600000
600000
600000
600000
600000
600000
000000
ENDCHAR

STARTCHAR A1B9
ENCODING 41401
SWIDTH 960 0
DWIDTH 24 0
BBX 24 24 0 -6
BITMAP
000000
000000
000000
000000
000000
000000
000000
000000
000000
000000
000000
07FFE0
07FFE0
000000
000000
000000
000000
000000
000000
000000
000000
000000
000000
000000
ENDCHAR

STARTCHAR A1BA
ENCODING 41402
SWIDTH 960 0
DWIDTH 24 0
BBX 24 24 0 -6
BITMAP
000000
400000
400000
400000
400000
400000
400000
400000
400000
400000
400000
400000
400000
400000
400000
400000
400000
400000
400000
400000
400000
400000
400000
000000
ENDCHAR

STARTCHAR A1BB
ENCODING 41403
SWIDTH 960 0
DWIDTH 24 0
BBX 24 24 0 -6
BITMAP
000000
000000
000000
000000
000000
000000
000000
000000
000000
000000
000000
000000
000000
000000
000000
000000
000000
000000
000000
000000
000000
7FFFFE
7FFFFE
000000
ENDCHAR

STARTCHAR A1BC
ENCODING 41404
SWIDTH 960 0
DWIDTH 24 0
BBX 24 24 0 -6
BITMAP
000000
7C0000
1E0000
0E0000
0E0000
3C0000
780000
600000
600000
7C0000
3E0000
0E0000
0E0000
3C0000
780000
600000
600000
780000
3E0000
0E0000
0E0000
3C0000
780000
000000
ENDCHAR

STARTCHAR A1BD
ENCODING 41405
SWIDTH 960 0
DWIDTH 24 0
BBX 24 24 0 -6
BITMAP
000000
000000
000000
000000
000000
000000
000000
000000
000000
000000
000000
000000
000000
000000
000000
000000
080810
1C1C38
3E3E7C
77776E
63E3C6
41C182
000000
000000
ENDCHAR

STARTCHAR A1BE
ENCODING 41406
SWIDTH 960 0
DWIDTH 24 0
BBX 24 24 0 -6
BITMAP
000000
000006
00000C
00001C
000038
000030
000030
000070
000060
000060
0000E0
0000E0
0000E0
0000E0
000060
000060
000070
000030
000030
000018
00001C
00000E
000006
000000
ENDCHAR

STARTCHAR A1BF
ENCODING 41407
SWIDTH 960 0
DWIDTH 24 0
BBX 24 24 0 -6
BITMAP
000000
600000
700000
380000
180000
1C0000
0C0000
0E0000
0E0000
060000
060000
060000
060000
060000
060000
0E0000
0E0000
0C0000
1C0000
180000
300000
700000
400000
000000
ENDCHAR

STARTCHAR A1C0
ENCODING 41408
SWIDTH 960 0
DWIDTH 24 0
BBX 24 24 0 -6
BITMAP
000000
000000
000000
000000
000000
000000
000000
000000
000000
000000
000000
000000
000000
000000
000000
000000
01FF80
07FFE0
1F01F0
38003C
70000C
600006
400002
000000
ENDCHAR

STARTCHAR A1C1
ENCODING 41409
SWIDTH 960 0
DWIDTH 24 0
BBX 24 24 0 -6
BITMAP
000000
400002
600006
30001C
1C0038
0F01F0
07FFE0
00FF00
000000
000000
000000
000000
000000
000000
000000
000000
000000
000000
000000
000000
000000
000000
000000
000000
ENDCHAR

STARTCHAR A1C2
ENCODING 41410
SWIDTH 960 0
DWIDTH 24 0
BBX 24 24 0 -6
BITMAP
000000
000006
00000C
00000C
00001C
00001C
00001C
00001C
00001C
000018
000038
000060
000070
000038
00001C
00001C
00001C
00001C
00001C
00001C
00000C
00000E
000006
000000
ENDCHAR

STARTCHAR A1C3
ENCODING 41411
SWIDTH 960 0
DWIDTH 24 0
BBX 24 24 0 -6
BITMAP
000000
600000
700000
300000
300000
300000
300000
300000
380000
180000
1C0000
0E0000
1E0000
180000
380000
300000
300000
300000
300000
300000
300000
700000
600000
000000
ENDCHAR

STARTCHAR A1C4
ENCODING 41412
SWIDTH 960 0
DWIDTH 24 0
BBX 24 24 0 -6
BITMAP
000000
000000
000000
000000
000000
000000
000000
000000
000000
000000
000000
000000
000000
000000
000000
000000
000000
003800
007C00
1FEFF8
3FC7FC
600006
400002
000000
ENDCHAR

STARTCHAR A1C5
ENCODING 41413
SWIDTH 960 0
DWIDTH 24 0
BBX 24 24 0 -6
BITMAP
000000
400002
600006
3FE7FC
1FEFF0
003C00
003800
000000
000000
000000
000000
000000
000000
000000
000000
000000
000000
000000
000000
000000
000000
000000
000000
000000
ENDCHAR

STARTCHAR A1C6
ENCODING 41414
SWIDTH 960 0
DWIDTH 24 0
BBX 24 24 0 -6
BITMAP
000000
00000E
00003C
0000F8
0000E0
0000C0
0000C0
0000C0
0000C0
0000C0
0000C0
0000C0
0000C0
0000C0
0000C0
0000C0
0000C0
0000C0
0000C0
0000E0
0000F8
00003E
00000E
000000
ENDCHAR

STARTCHAR A1C7
ENCODING 41415
SWIDTH 960 0
DWIDTH 24 0
BBX 24 24 0 -6
BITMAP
000000
700000
7C0000
1F0000
070000
030000
030000
030000
030000
030000
030000
030000
030000
030000
030000
030000
030000
030000
030000
070000
1E0000
7C0000
700000
000000
ENDCHAR

STARTCHAR A1C8
ENCODING 41416
SWIDTH 960 0
DWIDTH 24 0
BBX 24 24 0 -6
BITMAP
000000
000000
000000
000000
000000
000000
000000
000000
000000
000000
000000
000000
000000
000000
000000
1FFFF8
1FFFF8
38001C
30000C
70000E
600006
600006
400002
000000
ENDCHAR

STARTCHAR A1C9
ENCODING 41417
SWIDTH 960 0
DWIDTH 24 0
BBX 24 24 0 -6
BITMAP
000000
400002
600006
600006
70000E
30000C
3FFFFC
1FFFF8
000000
000000
000000
000000
000000
000000
000000
000000
000000
000000
000000
000000
000000
000000
000000
000000
ENDCHAR

STARTCHAR A1CA
ENCODING 41418
SWIDTH 960 0
DWIDTH 24 0
BBX 24 24 0 -6
BITMAP
000000
0000FE
0000FC
0000F8
0000F8
0000F0
0000F0
0000E0
0000E0
0000E0
0000E0
0000E0
0000E0
0000E0
0000E0
0000E0
0000E0
0000F0
0000F0
0000F8
0000F8
0000FC
0000FE
000000
ENDCHAR

STARTCHAR A1CB
ENCODING 41419
SWIDTH 960 0
DWIDTH 24 0
BBX 24 24 0 -6
BITMAP
000000
7E0000
3E0000
3E0000
1E0000
1E0000
0E0000
0E0000
0E0000
0E0000
0E0000
0E0000
0E0000
0E0000
0E0000
0E0000
0E0000
0E0000
1E0000
1E0000
3E0000
3E0000
7E0000
000000
ENDCHAR

STARTCHAR A1CC
ENCODING 41420
SWIDTH 960 0
DWIDTH 24 0
BBX 24 24 0 -6
BITMAP
000000
000000
000000
000000
000000
000000
000000
000000
000000
000000
000000
000000
000000
000000
000000
000000
7FFFFE
7FFFFE
7FFFFE
7C003E
70000E
600006
400002
000000
ENDCHAR

STARTCHAR A1CD
ENCODING 41421
SWIDTH 960 0
DWIDTH 24 0
BBX 24 24 0 -6
BITMAP
000000
400002
600006
78001E
7E007E
7FFFFE
7FFFFE
000000
000000
000000
000000
000000
000000
000000
000000
000000
000000
000000
000000
000000
000000
000000
000000
000000
ENDCHAR

STARTCHAR A1CE
ENCODING 41422
SWIDTH 960 0
DWIDTH 24 0
BBX 24 24 0 -6
BITMAP
000000
000000
0018C0
0018C0
003180
003180
006300
00C600
018C00
018C00
031800
031800
031800
018C00
018C00
00C600
006300
003180
003180
0018C0
0018C0
000000
000000
000000
ENDCHAR

STARTCHAR A1CF
ENCODING 41423
SWIDTH 960 0
DWIDTH 24 0
BBX 24 24 0 -6
BITMAP
000000
000000
033000
033000
019800
019800
00CC00
006600
003300
001980
000CC0
000CC0
000CC0
001980
001980
003300
006600
00CC00
00CC00
019800
019800
000000
000000
000000
ENDCHAR

STARTCHAR A1D0
ENCODING 41424
SWIDTH 960 0
DWIDTH 24 0
BBX 24 24 0 -6
BITMAP
000000
000000
000000
000000
000000
000000
000000
000000
000000
001800
003C00
006700
01C380
0398C0
067E70
1CE718
3381CC
0700E0
1C0038
38001C
200004
000000
000000
000000
ENDCHAR

STARTCHAR A1D1
ENCODING 41425
SWIDTH 960 0
DWIDTH 24 0
BBX 24 24 0 -6
BITMAP
000000
000000
200004
38001C
1C0038
0700E0
2381C4
38E71C
1C7E38
0718E0
0381C0
00E700
007E00
001800
000000
000000
000000
000000
000000
000000
000000
000000
000000
000000
ENDCHAR

STARTCHAR A1D2
ENCODING 41426
SWIDTH 960 0
DWIDTH 24 0
BBX 24 24 0 -6
BITMAP
000000
000000
000300
000700
000E00
000C00
001800
003800
003000
006000
00E000
00C000
00E000
006000
003000
003800
001800
000C00
000E00
000700
000300
000000
000000
000000
ENDCHAR

STARTCHAR A1D3
ENCODING 41427
SWIDTH 960 0
DWIDTH 24 0
BBX 24 24 0 -6
BITMAP
000000
000000
00C000
00E000
006000
003000
003800
001800
000C00
000E00
000700
000300
000700
000E00
000C00
001C00
003800
003000
006000
00E000
00C000
000000
000000
000000
ENDCHAR

STARTCHAR A1D4
ENCODING 41428
SWIDTH 960 0
DWIDTH 24 0
BBX 24 24 0 -6
BITMAP
000000
000000
000000
000000
000000
000000
000000
000000
000000
000000
000000
000000
000000
001800
003C00
006600
01C300
0381C0
060060
0C0030
180018
000000
000000
000000
ENDCHAR

STARTCHAR A1D5
ENCODING 41429
SWIDTH 960 0
DWIDTH 24 0
BBX 24 24 0 -6
BITMAP
000000
000000
000000
100008
180038
0E0070
0700C0
018380
00E700
007C00
001800
000000
000000
000000
000000
000000
000000
000000
000000
000000
000000
000000
000000
000000
ENDCHAR

STARTCHAR A1D6
ENCODING 41430
SWIDTH 960 0
DWIDTH 24 0
BBX 24 24 0 -6
BITMAP
000000
000000
000000
000FFE
000FFE
000C00
000C00
000C00
000C00
000C00
000C00
000C00
000C00
000C00
000C00
000C00
000C00
000C00
000C00
000C00
000C00
000C00
000C00
000000
ENDCHAR

STARTCHAR A1D7
ENCODING 41431
SWIDTH 960 0
DWIDTH 24 0
BBX 24 24 0 -6
BITMAP
000000
003000
003000
003000
003000
003000
003000
003000
003000
003000
003000
003000
003000
003000
003000
003000
003000
003000
7FF000
7FF000
000000
000000
000000
000000
ENDCHAR

STARTCHAR A1D8
ENCODING 41432
SWIDTH 960 0
DWIDTH 24 0
BBX 24 24 0 -6
BITMAP
000000
000000
000000
000000
000000
000000
000000
000000
000000
000000
000000
000000
7FFFF0
7FFFF0
000030
000030
000030
000030
000030
000030
000030
000030
000030
000000
ENDCHAR

STARTCHAR A1D9
ENCODING 41433
SWIDTH 960 0
DWIDTH 24 0
BBX 24 24 0 -6
BITMAP
000000
180000
180000
180000
180000
180000
180000
180000
180000
180000
1FFFFE
1FFFFE
000000
000000
000000
000000
000000
000000
000000
000000
000000
000000
000000
000000
ENDCHAR

STARTCHAR A1DA
ENCODING 41434
SWIDTH 960 0
DWIDTH 24 0
BBX 24 24 0 -6
BITMAP
000000
000000
000000
000FFE
000FFE
000C06
000DFE
000DFE
000D80
000D80
000D80
000D80
000D80
000D80
000D80
000D80
000D80
000D80
000D80
000D80
000D80
000F80
000F80
000000
ENDCHAR

STARTCHAR A1DB
ENCODING 41435
SWIDTH 960 0
DWIDTH 24 0
BBX 24 24 0 -6
BITMAP
000000
01F000
01F000
01B000
01B000
01B000
01B000
01B000
01B000
01B000
01B000
01B000
01B000
01B000
01B000
7FB000
7FB000
603000
7FF000
7FF000
000000
000000
000000
000000
ENDCHAR

STARTCHAR A1DC
ENCODING 41436
SWIDTH 960 0
DWIDTH 24 0
BBX 24 24 0 -6
BITMAP
000000
000000
000000
000000
000000
000000
000000
000000
000000
000000
000000
000000
7FFFF0
7FFFF0
600030
7FFFB0
7FFFB0
0001B0
0001B0
0001B0
0001B0
0001F0
0001F0
000000
ENDCHAR

STARTCHAR A1DD
ENCODING 41437
SWIDTH 960 0
DWIDTH 24 0
BBX 24 24 0 -6
BITMAP
000000
1F0000
1F0000
1B0000
1B0000
1B0000
1B0000
1BFFFE
1BFFFE
180006
1FFFFE
1FFFFE
000000
000000
000000
000000
000000
000000
000000
000000
000000
000000
000000
000000
ENDCHAR

STARTCHAR A1DE
ENCODING 41438
SWIDTH 960 0
DWIDTH 24 0
BBX 24 24 0 -6
BITMAP
000000
000000
000006
00000C
00001C
000018
000030
000030
000030
000060
000060
000060
000060
000060
000060
000030
000030
000030
000018
00001C
00000C
000006
000000
000000
ENDCHAR

STARTCHAR A1DF
ENCODING 41439
SWIDTH 960 0
DWIDTH 24 0
BBX 24 24 0 -6
BITMAP
000000
000000
600000
700000
380000
180000
1C0000
0C0000
0C0000
0E0000
0E0000
060000
060000
0E0000
0E0000
0C0000
0C0000
180000
180000
300000
700000
600000
000000
000000
ENDCHAR

STARTCHAR A1E0
ENCODING 41440
SWIDTH 960 0
DWIDTH 24 0
BBX 24 24 0 -6
BITMAP
000000
000000
000006
00000C
00000C
00000C
00000C
00000C
00001C
00001C
000038
000030
000038
00001C
00001C
00000C
00000C
00000C
00000C
00000C
000004
000006
000000
000000
ENDCHAR

STARTCHAR A1E1
ENCODING 41441
SWIDTH 960 0
DWIDTH 24 0
BBX 24 24 0 -6
BITMAP
000000
000000
600000
700000
300000
300000
300000
300000
300000
380000
180000
0C0000
1C0000
380000
300000
300000
300000
300000
300000
300000
600000
600000
000000
000000
ENDCHAR

STARTCHAR A1E2
ENCODING 41442
SWIDTH 960 0
DWIDTH 24 0
BBX 24 24 0 -6
BITMAP
000000
000000
00001E
00007C
0000F0
0000E0
0000E0
0000E0
0000E0
0000E0
0000E0
0000E0
0000E0
0000E0
0000E0
0000E0
0000E0
0000E0
0000E0
0000F8
00003C
00001E
000000
000000
ENDCHAR

STARTCHAR A1E3
ENCODING 41443
SWIDTH 960 0
DWIDTH 24 0
BBX 24 24 0 -6
BITMAP
000000
000000
700000
3C0000
0F0000
070000
070000
070000
070000
070000
070000
070000
070000
070000
070000
070000
070000
070000
070000
0E0000
3C0000
700000
000000
000000
ENDCHAR

STARTCHAR A1E4
ENCODING 41444
SWIDTH 960 0
DWIDTH 24 0
BBX 24 24 0 -6
BITMAP
000000
000006
00000C
000018
00001C
00003E
00003E
00003E
00001C
000000
000000
000000
000000
000000
000000
000000
000000
000000
000000
000000
000000
000000
000000
000000
ENDCHAR

STARTCHAR A1E5
ENCODING 41445
SWIDTH 960 0
DWIDTH 24 0
BBX 24 24 0 -6
BITMAP
000000
380000
7C0000
7C0000
7C0000
3C0000
180000
380000
700000
000000
000000
000000
000000
000000
000000
000000
000000
000000
000000
000000
000000
000000
000000
000000
ENDCHAR

STARTCHAR A1E6
ENCODING 41446
SWIDTH 960 0
DWIDTH 24 0
BBX 24 24 0 -6
BITMAP
000000
000186
00030C
000618
00071C
000FBE
000FBE
000FBE
00071C
000000
000000
000000
000000
000000
000000
000000
000000
000000
000000
000000
000000
000000
000000
000000
ENDCHAR

STARTCHAR A1E7
ENCODING 41447
SWIDTH 960 0
DWIDTH 24 0
BBX 24 24 0 -6
BITMAP
000000
38E000
7DF000
7DF000
7DF000
3CF000
186000
30C000
618000
000000
000000
000000
000000
000000
000000
000000
000000
000000
000000
000000
000000
000000
000000
000000
ENDCHAR

STARTCHAR A1E8
ENCODING 41448
SWIDTH 960 0
DWIDTH 24 0
BBX 24 24 0 -6
BITMAP
000000
630000
39C000
1CE000
1E7000
0E7000
063000
000000
000000
000000
000000
000000
000000
000000
000000
000000
000000
000000
000000
000000
000000
000000
000000
000000
ENDCHAR

STARTCHAR A1E9
ENCODING 41449
SWIDTH 960 0
DWIDTH 24 0
BBX 24 24 0 -6
BITMAP
000000
00018C
0001CE
0003DE
00039C
000738
000630
000C60
000000
000000
000000
000000
000000
000000
000000
000000
000000
000000
000000
000000
000000
000000
000000
000000
ENDCHAR

STARTCHAR A1EA
ENCODING 41450
SWIDTH 960 0
DWIDTH 24 0
BBX 24 24 0 -6
BITMAP
000000
300000
780000
780000
3C0000
1C0000
0E0000
060000
000000
000000
000000
000000
000000
000000
000000
000000
000000
000000
000000
000000
000000
000000
000000
000000
ENDCHAR

STARTCHAR A1EB
ENCODING 41451
SWIDTH 960 0
DWIDTH 24 0
BBX 24 24 0 -6
BITMAP
000000
00000C
00001E
00001E
00003C
000038
000070
0000C0
000000
000000
000000
000000
000000
000000
000000
000000
000000
000000
000000
000000
000000
000000
000000
000000
ENDCHAR

STARTCHAR A1EC
ENCODING 41452
SWIDTH 960 0
DWIDTH 24 0
BBX 24 24 0 -6
BITMAP
000000
000000
000300
006300
006300
006300
0063E0
007FE0
03FF00
03E300
006300
006300
0063E0
007FE0
03FF00
03E300
006300
006300
006300
006300
006000
000000
000000
000000
ENDCHAR

STARTCHAR A1ED
ENCODING 41453
SWIDTH 960 0
DWIDTH 24 0
BBX 24 24 0 -6
BITMAP
000000
000000
007000
01F800
038C00
030C00
030C00
019800
01F800
00F7F0
01E7F0
03C0C0
06E0C0
0E6180
1C3180
1C3B00
1C1E00
0E0F30
0F3FF0
07F9E0
01C000
000000
000000
000000
ENDCHAR

STARTCHAR A1EE
ENCODING 41454
SWIDTH 960 0
DWIDTH 24 0
BBX 24 24 0 -6
BITMAP
000000
000000
001800
181818
1C1838
0E1870
0718E0
0399C0
01DB80
00FF00
7FFFFC
7FFFFC
00FF00
01DB80
0399C0
0718E0
0E1870
1C1838
38181C
001800
001800
000000
000000
000000
ENDCHAR

STARTCHAR A1EF
ENCODING 41455
SWIDTH 960 0
DWIDTH 24 0
BBX 24 24 0 -6
BITMAP
000000
000000
181C18
1C3E38
0E3E70
073EE0
039DC0
01C380
00E700
0E7E70
1F3CF8
1F3CF8
1F7EF8
0EE770
01C380
0381C0
0738E0
0E7C70
1C7C38
387C1C
10380C
000000
000000
000000
ENDCHAR

STARTCHAR A1F0
ENCODING 41456
SWIDTH 960 0
DWIDTH 24 0
BBX 24 24 0 -6
BITMAP
000000
000000
003C00
00FE00
01EF00
01CF00
01EE00
00F800
007C00
01FF00
01CF80
01C780
01F380
00FF00
003E00
000F00
00F780
00F380
00F780
007F00
003C00
000000
000000
000000
ENDCHAR

STARTCHAR A1F1
ENCODING 41457
SWIDTH 960 0
DWIDTH 24 0
BBX 24 24 0 -6
BITMAP
000000
000000
000000
003818
007C3C
007C3C
00F87C
00F0F8
01F0F8
01E1F0
03C1E0
03C3E0
0783C0
070780
0E0700
0E0E00
1C0E00
181C00
301800
003000
000000
000000
000000
000000
ENDCHAR

STARTCHAR A1F2
ENCODING 41458
SWIDTH 960 0
DWIDTH 24 0
BBX 24 24 0 -6
BITMAP
000000
000000
007C00
01FF00
0783C0
0E00E0
0C0060
180030
180030
300018
300018
300018
300018
300018
180030
180030
0C0060
0E00E0
0783C0
01FF00
007C00
000000
000000
000000
ENDCHAR

STARTCHAR A1F3
ENCODING 41459
SWIDTH 960 0
DWIDTH 24 0
BBX 24 24 0 -6
BITMAP
000000
000000
007C00
01FF00
07FFC0
0FFFE0
0FFFE0
1FFFF0
1FFFF0
3FFFF8
3FFFF8
3FFFF8
3FFFF8
3FFFF8
1FFFF0
1FFFF0
0FFFE0
0FFFE0
07FFC0
01FF00
007C00
000000
000000
000000
ENDCHAR

STARTCHAR A1F4
ENCODING 41460
SWIDTH 960 0
DWIDTH 24 0
BBX 24 24 0 -6
BITMAP
000000
000000
001800
001800
003C00
003C00
007E00
006600
00E700
00C300
01C380
018180
0381C0
0300C0
0700E0
060060
0E0070
0C0030
1C0038
1FFFF8
1FFFF8
000000
000000
000000
ENDCHAR

STARTCHAR A1F5
ENCODING 41461
SWIDTH 960 0
DWIDTH 24 0
BBX 24 24 0 -6
BITMAP
000000
000000
001800
001800
003C00
003C00
007E00
007E00
00FF00
00FF00
01FF80
01FF80
03FFC0
03FFC0
07FFE0
07FFE0
0FFFF0
0FFFF0
1FFFF8
1FFFF8
1FFFF8
000000
000000
000000
ENDCHAR

STARTCHAR A1F6
ENCODING 41462
SWIDTH 960 0
DWIDTH 24 0
BBX 24 24 0 -6
BITMAP
000000
000000
007C00
01FF00
0783C0
0E00E0
0C7C60
18FE30
19C730
338398
330198
330198
330198
338398
19C730
18FE30
0C7C60
0E00E0
0783C0
01FF00
007C00
000000
000000
000000
ENDCHAR

STARTCHAR A1F7
ENCODING 41463
SWIDTH 960 0
DWIDTH 24 0
BBX 24 24 0 -6
BITMAP
000000
000000
001800
001800
003C00
003C00
007E00
006600
07C7E0
7FC3FC
1E0078
0700E0
0381C0
038180
038180
0318C0
033EC0
0767E0
07C3E0
0F00F0
0C0030
000000
000000
000000
ENDCHAR

STARTCHAR A1F8
ENCODING 41464
SWIDTH 960 0
DWIDTH 24 0
BBX 24 24 0 -6
BITMAP
000000
000000
001800
001800
003C00
003C00
007E00
007E00
7FFFFC
7FFFFC
1FFFF8
0FFFE0
03FFC0
03FF80
03FF80
03FF80
03FF80
07E7C0
07C3C0
0F01E0
0E0060
000000
000000
000000
ENDCHAR

STARTCHAR A1F9
ENCODING 41465
SWIDTH 960 0
DWIDTH 24 0
BBX 24 24 0 -6
BITMAP
000000
000000
001800
003C00
007E00
00E700
01C380
0381C0
0700E0
0E0070
1C0038
38001C
1C0038
0E0070
0700E0
0381C0
01C380
00E700
007E00
003C00
001800
000000
000000
000000
ENDCHAR

STARTCHAR A1FA
ENCODING 41466
SWIDTH 960 0
DWIDTH 24 0
BBX 24 24 0 -6
BITMAP
000000
000000
001800
003C00
007E00
00FF00
01FF80
03FFC0
07FFE0
0FFFF0
1FFFF8
3FFFFC
1FFFF8
0FFFF0
07FFE0
03FFC0
01FF80
00FF00
007E00
003C00
001800
000000
000000
000000
ENDCHAR

STARTCHAR A1FB
ENCODING 41467
SWIDTH 960 0
DWIDTH 24 0
BBX 24 24 0 -6
BITMAP
000000
000000
000000
1FFFF0
1FFFF0
180030
180030
180030
180030
180030
180030
180030
180030
180030
180030
180030
180030
180030
1FFFF0
1FFFF0
000000
000000
000000
000000
ENDCHAR

STARTCHAR A1FC
ENCODING 41468
SWIDTH 960 0
DWIDTH 24 0
BBX 24 24 0 -6
BITMAP
000000
000000
000000
1FFFF0
1FFFF0
1FFFF0
1FFFF0
1FFFF0
1FFFF0
1FFFF0
1FFFF0
1FFFF0
1FFFF0
1FFFF0
1FFFF0
1FFFF0
1FFFF0
1FFFF0
1FFFF0
1FFFF0
000000
000000
000000
000000
ENDCHAR

STARTCHAR A1FD
ENCODING 41469
SWIDTH 960 0
DWIDTH 24 0
BBX 24 24 0 -6
BITMAP
000000
000000
1FFFF8
1FFFF8
1C0038
0C0030
0E0070
060060
0700E0
0300C0
0381C0
018180
01C380
00C300
00E700
006600
007E00
003C00
003C00
001800
001800
000000
000000
000000
ENDCHAR

STARTCHAR A1FE
ENCODING 41470
SWIDTH 960 0
DWIDTH 24 0
BBX 24 24 0 -6
BITMAP
000000
000000
1FFFF8
1FFFF8
1FFFF8
0FFFF0
0FFFF0
07FFE0
07FFE0
03FFC0
03FFC0
01FF80
01FF80
00FF00
00FF00
007E00
007E00
003C00
003C00
001800
001800
000000
000000
000000
ENDCHAR

STARTCHAR A221
ENCODING 41505
SWIDTH 960 0
DWIDTH 24 0
BBX 24 24 0 -6
BITMAP
000000
1FFFFC
3FFFFC
300000
300000
306000
30E000
31FFFC
33FFFC
3F98CC
3E39CC
3C718C
30F39C
31E71C
37CF18
371E38
303C30
3031F0
3001F0
300000
300000
3FFFFE
1FFFFE
000000
ENDCHAR

STARTCHAR A222
ENCODING 41506
SWIDTH 960 0
DWIDTH 24 0
BBX 24 24 0 -6
BITMAP
000000
1FFFFC
3FFFFC
300C00
300C00
300C00
300C00
37FFF8
37FFF8
300000
303E00
307F00
306300
306300
306300
306300
306318
30E318
31C3F8
3383F8
300000
3FFFFE
1FFFFE
000000
ENDCHAR

STARTCHAR A223
ENCODING 41507
SWIDTH 960 0
DWIDTH 24 0
BBX 24 24 0 -6
BITMAP
000000
00000C
7FF00C
7FF80C
00180C
00180C
00180C
00180C
00180C
00180C
00180C
1FFFFC
3FFFF8
301800
301800
301800
301800
301800
301800
301800
301FFE
300FFE
300000
000000
ENDCHAR

STARTCHAR A224
ENCODING 41508
SWIDTH 960 0
DWIDTH 24 0
BBX 24 24 0 -6
BITMAP
000000
07FFFC
0FFFFC
0C0000
0DFFF0
0DFFF0
0CC300
0CC300
0CC300
0CC300
0CC300
0FFFFC
0FFFFC
0C0700
0C0F00
181B00
183300
186300
30C300
318300
330300
660F00
000E00
000000
ENDCHAR

STARTCHAR A225
ENCODING 41509
SWIDTH 960 0
DWIDTH 24 0
BBX 24 24 0 -6
BITMAP
000000
007FFC
007FFC
3E0038
7F0030
630070
6300E0
6300C0
6300C0
6300C0
6300C0
637FFE
637FFE
6300C0
6300C0
7F00C0
3E00C0
0000C0
0000C0
0000C0
000DC0
000FC0
000780
000000
ENDCHAR

STARTCHAR A226
ENCODING 41510
SWIDTH 960 0
DWIDTH 24 0
BBX 24 24 0 -6
BITMAP
000000
3FFFF8
3FFFFC
30180C
30180C
30380C
30300C
30700C
3FFFFC
3FFFFC
30E30C
30C30C
31C30C
31E70C
31F60C
303E0C
301F0C
303F8C
30FBCC
37F1CC
37C0CC
3FFFFC
1FFFF8
000000
ENDCHAR

STARTCHAR A227
ENCODING 41511
SWIDTH 960 0
DWIDTH 24 0
BBX 24 24 0 -6
BITMAP
000000
018000
038000
078000
0F0000
1E0000
1FFFF8
3FFFFC
36000C
37818C
33C38C
30F70C
307E0C
303E0C
303E0C
307F0C
30F78C
30E1CC
33C0EC
37806C
36000C
3FFFFC
1FFFF8
000000
ENDCHAR

STARTCHAR A228
ENCODING 41512
SWIDTH 960 0
DWIDTH 24 0
BBX 24 24 0 -6
BITMAP
000000
0C0000
0C7FF8
0C7FFC
0C000C
0C000C
0C000C
7F800C
7F9FFC
0C3FF8
0C3000
0C3000
0C3000
0C3000
0C3000
0C3000
0DB000
0FB006
1F3006
7E3006
70300E
003FFE
003FFC
000000
ENDCHAR

STARTCHAR A229
ENCODING 41513
SWIDTH 960 0
DWIDTH 24 0
BBX 24 24 0 -6
BITMAP
000000
0C0300
0C0700
0C0600
0C0E00
0C1FFE
0C3FFE
7FF800
7FF000
0C0000
0C1FF8
0C1FF8
0C00F0
0C01E0
0C03C0
0D8780
0F8F00
1F8E00
7E0C06
781C06
001C06
001FFE
000FFE
000000
ENDCHAR

STARTCHAR A22A
ENCODING 41514
SWIDTH 960 0
DWIDTH 24 0
BBX 24 24 0 -6
BITMAP
000000
060C00
060C00
060C00
061C00
061FFE
061FFE
7FF806
7FF006
063006
066006
06C006
061806
061E06
06078E
0601CC
07C00C
1FC00C
7F000C
70000C
00001C
0003FC
0003F0
000000
ENDCHAR

STARTCHAR A22B
ENCODING 41515
SWIDTH 960 0
DWIDTH 24 0
BBX 24 24 0 -6
BITMAP
000000
003000
003000
003000
7FFFFE
7FFFFE
00E780
03E3C0
0F99F0
7F19FE
7F19BE
031980
031980
031980
031980
031980
031980
031980
031980
071980
071980
0E1980
0E1980
000000
ENDCHAR

STARTCHAR A22C
ENCODING 41516
SWIDTH 960 0
DWIDTH 24 0
BBX 24 24 0 -6
BITMAP
000000
0000C0
0000C0
7F00C0
7F8180
018180
018180
018300
01FFFE
3FFFFE
7F0730
600630
600638
600638
600E38
600FF0
6003F0
6060F8
6061FC
7FE3DC
3FEF8E
007F06
007C06
000000
ENDCHAR

STARTCHAR A22D
ENCODING 41517
SWIDTH 960 0
DWIDTH 24 0
BBX 24 24 0 -6
BITMAP
000000
030000
030000
070038
063FF8
063FE0
060180
7FC180
7FC180
0CC180
1CFFFE
18FFFE
19C180
19C180
398180
3D8180
3F8180
078180
07C186
07C186
0EC186
7C01FE
7800FE
000000
ENDCHAR

STARTCHAR A22E
ENCODING 41518
SWIDTH 960 0
DWIDTH 24 0
BBX 24 24 0 -6
BITMAP
000000
0C0000
0C0000
0C0000
0C1FFE
181FFE
1800C0
1800C0
7FC0C0
7FC0C0
30C0C0
30C0C0
30C0C0
30C0C0
71C0C0
7180C0
7D80C0
1F80C0
07C0C0
0FE0C0
1CFFFE
383FFE
700000
000000
ENDCHAR

STARTCHAR A22F
ENCODING 41519
SWIDTH 960 0
DWIDTH 24 0
BBX 24 24 0 -6
BITMAP
000000
0600C0
0600C0
0600C0
0C01C0
0C0180
0C0180
7FC180
7FFFFE
0CFFFE
0CC318
18C318
18C318
38C738
3DC638
3F87F0
0787F0
0380F8
03C1D8
07E1DC
0E638E
1C1F86
381E06
000000
ENDCHAR

STARTCHAR A230
ENCODING 41520
SWIDTH 960 0
DWIDTH 24 0
BBX 24 24 0 -6
BITMAP
000000
0300C0
0300C0
0700C0
0600C0
060CC6
060CC6
7FCCC6
7FCCC6
0CECC6
1C6CC6
186CC6
18ECC6
18CCC6
38CCC6
3FCCC6
3F8CC6
038CC6
03CCC6
07ECC6
0E6FFE
1C07FC
380000
000000
ENDCHAR

STARTCHAR A231
ENCODING 41521
SWIDTH 960 0
DWIDTH 24 0
BBX 24 24 0 -6
BITMAP
000000
060018
060038
0600F0
061FE0
0C1FC0
7FE0C0
7FE0C0
0CC0C0
0CC0C0
1CFFFE
1CFFFE
18C0C0
19C0C0
1FC0C0
3F80C0
3780C0
0380C0
03C0C0
07E0C0
1E70C0
7C18C0
7000C0
000000
ENDCHAR

STARTCHAR A232
ENCODING 41522
SWIDTH 960 0
DWIDTH 24 0
BBX 24 24 0 -6
BITMAP
000000
030180
030180
030180
030380
030300
7FEFFC
7FEFFC
036318
036718
036730
036630
3A6730
1E6FE0
0F6DF0
0760F8
0F61DC
0D6F8E
186F06
306006
607FFE
407FFE
000000
000000
ENDCHAR

STARTCHAR A233
ENCODING 41523
SWIDTH 960 0
DWIDTH 24 0
BBX 24 24 0 -6
BITMAP
000000
000000
7FEFFE
7FEFFE
01C01C
038078
0700E0
0600C0
0660C0
06E0C0
07C0C0
07FFFE
0F7FFE
1E00C0
7E00C0
7600C0
0600C0
0600C0
0600C0
0600C0
7E00C0
7E0FC0
000FC0
000000
ENDCHAR

STARTCHAR A234
ENCODING 41524
SWIDTH 960 0
DWIDTH 24 0
BBX 24 24 0 -6
BITMAP
000000
0FFF80
0FFF80
006700
00E600
00EFFC
01CFFC
03C01C
078018
0F1818
1E1998
7819F8
0018F8
001800
061860
061860
0E1870
1C1838
3C183C
78181E
70180E
00F800
00F800
000000
ENDCHAR

STARTCHAR A235
ENCODING 41525
SWIDTH 960 0
DWIDTH 24 0
BBX 24 24 0 -6
BITMAP
000000
060300
060300
060700
0607F0
060FF8
7FEE18
7FFC18
063E18
07B718
078318
078318
078318
078318
078018
0F8018
0F8018
1D8038
1D83F8
1983F6
398006
71FFFE
61FFFC
000000
ENDCHAR

STARTCHAR A236
ENCODING 41526
SWIDTH 960 0
DWIDTH 24 0
BBX 24 24 0 -6
BITMAP
000000
0C0000
0DFFFE
0DFFFE
0C0CC0
0C0CC0
0C0CC0
6D8CC0
6D8CC0
6D8CC0
6D8CC0
6D8CC0
6D8CC0
6D8CC0
6D8CC0
6D8CC0
6D9CC0
6D98C0
7FB8C6
3F30C6
0070FE
00E0FE
01C000
000000
ENDCHAR

STARTCHAR A237
ENCODING 41527
SWIDTH 960 0
DWIDTH 24 0
BBX 24 24 0 -6
BITMAP
000000
000000
061FF0
061FF8
060018
060018
060018
66C018
66C018
66DFF8
66DFF0
66D800
66D800
66D800
66D800
66D800
66D800
7FD806
7FD806
60D806
601FFE
000FFC
000000
000000
ENDCHAR

STARTCHAR A238
ENCODING 41528
SWIDTH 960 0
DWIDTH 24 0
BBX 24 24 0 -6
BITMAP
000000
000000
061FF8
061FFC
06018C
36C18C
36C18C
36C18C
36F18C
36F98C
36DD8C
36CF8C
36C78C
36C38C
3FC30C
3FC30C
30C70C
30C71C
300E1C
001DF8
0039F0
003000
000000
000000
ENDCHAR

STARTCHAR A239
ENCODING 41529
SWIDTH 960 0
DWIDTH 24 0
BBX 24 24 0 -6
BITMAP
000000
0600C0
0600C0
0600C0
0600C0
0600C0
6666CC
6666CC
6666CC
6666CC
6666CC
6666CC
6666CC
6666CC
6666CC
6666CC
6666CC
6666CC
6667FC
7FE7FC
7FE60C
60660C
600600
000000
ENDCHAR

STARTCHAR A23A
ENCODING 41530
SWIDTH 960 0
DWIDTH 24 0
BBX 24 24 0 -6
BITMAP
000000
001800
001800
001800
001800
7FFFFE
7FFFFE
0C0000
0C0000
0C0000
0FFFF8
0FFFF8
060000
019980
019980
019980
019980
039980
031986
071986
3E1986
3E19FE
0019FC
000000
ENDCHAR

STARTCHAR A23B
ENCODING 41531
SWIDTH 960 0
DWIDTH 24 0
BBX 24 24 0 -6
BITMAP
000000
3FFFFC
3FFFFC
0600C0
0600C0
0600C0
0600C0
0600C0
0600C0
7FFFFE
7FFFFE
0600C0
0600C0
0600C0
0600C0
0600C0
0600C0
0600C0
0600C0
0600C0
0600C0
0600C0
0600C0
000000
ENDCHAR

STARTCHAR A23C
ENCODING 41532
SWIDTH 960 0
DWIDTH 24 0
BBX 24 24 0 -6
BITMAP
000000
001800
001800
001800
1FFFFE
3FFFFE
300C00
300C00
300C00
300C00
300C00
300C00
33FFF8
33FFF8
300C00
300C00
300C00
300C00
300C00
300C00
300C00
67FFFE
67FFFE
000000
ENDCHAR

STARTCHAR A23D
ENCODING 41533
SWIDTH 960 0
DWIDTH 24 0
BBX 24 24 0 -6
BITMAP
000000
0FFFC0
0FFFE0
000060
000060
07FFE0
0FFFC0
0C000C
0C000C
0C000C
0FFFFC
0FFFF8
0CC180
00C180
00C180
7FFFFE
7FFFFE
01C180
018180
038180
070180
0E0180
3C0180
000000
ENDCHAR

STARTCHAR A23E
ENCODING 41534
SWIDTH 960 0
DWIDTH 24 0
BBX 24 24 0 -6
BITMAP
000000
00DF00
01DF80
03C3C0
0381E0
0700F8
0F003C
7E001E
7FFFEE
0FFFF0
001830
001830
0FFFF0
0FFFE0
1C1800
181800
1FFFFE
1FFFFE
00180E
00199E
0019FC
0018F8
001800
000000
ENDCHAR

STARTCHAR A23F
ENCODING 41535
SWIDTH 960 0
DWIDTH 24 0
BBX 24 24 0 -6
BITMAP
000000
030300
070300
0E0700
1C4700
38CE00
718FFE
631FFE
061C06
0E3806
1C3006
3C0606
7C0706
6C0386
0C0386
0C01C6
0C00CE
0C00CC
0C000C
0C000C
0C000C
0C00FC
0C00F8
000000
ENDCHAR

STARTCHAR A240
ENCODING 41536
SWIDTH 960 0
DWIDTH 24 0
BBX 24 24 0 -6
BITMAP
000000
0C0600
0C0600
0C0600
0C0600
3E0600
3F0600
3F0600
3CFFFE
6CFFFE
6C0700
6C0700
0C0700
0C0F80
0C0D80
0C0DC0
0C1CE0
0C1860
0C3830
0C7038
0CE01C
0DC00E
0F8006
000000
ENDCHAR

STARTCHAR A241
ENCODING 41537
SWIDTH 960 0
DWIDTH 24 0
BBX 24 24 0 -6
BITMAP
000000
060600
060600
060C00
060C00
071FFE
1F1FFE
1FB800
3FFFE0
37FFE0
76C1C0
6603C0
060380
060700
060F00
060E00
061C06
061806
06180E
06180C
061FFC
061FF8
060000
000000
ENDCHAR

STARTCHAR A242
ENCODING 41538
SWIDTH 960 0
DWIDTH 24 0
BBX 24 24 0 -6
BITMAP
000000
0C0000
0C0018
0C01F8
0C1FF0
0FFF80
3FFB00
3F8300
3D8300
6D8300
6C0300
6DFFFE
0DFFFE
0C0300
0C0300
0C0300
0C0300
0C0300
0C0300
0C0300
0C0300
0C0300
0C0300
000000
ENDCHAR

STARTCHAR A243
ENCODING 41539
SWIDTH 960 0
DWIDTH 24 0
BBX 24 24 0 -6
BITMAP
000000
060000
061FFE
061FFE
060060
060060
7FC060
7FC060
060060
063FFE
063FFE
060060
06C060
07C060
1F8060
7E0060
760060
060060
060060
060060
060060
3E07E0
3C07C0
000000
ENDCHAR

STARTCHAR A244
ENCODING 41540
SWIDTH 960 0
DWIDTH 24 0
BBX 24 24 0 -6
BITMAP
000000
060000
067FFE
067FFE
0600C0
0600C0
3FC0C0
3FC0C0
0600C0
0600C0
067FFE
07FFFE
0780C0
0F00C0
1E00C0
3E00C0
7600C0
0600C0
0600C0
0600C0
0600C0
3E00C0
3E00C0
000000
ENDCHAR

STARTCHAR A245
ENCODING 41541
SWIDTH 960 0
DWIDTH 24 0
BBX 24 24 0 -6
BITMAP
000000
060000
060000
06FFFE
06FFFE
0606C0
0606C0
7FC6C0
7FC6C0
0606C0
06C6C0
07C6C0
0786C0
0706C0
0F06C0
1E06C0
7E06C0
760CC0
060CC6
061CC6
0618C6
3E78FE
3E707E
000000
ENDCHAR

STARTCHAR A246
ENCODING 41542
SWIDTH 960 0
DWIDTH 24 0
BBX 24 24 0 -6
BITMAP
000000
060180
060180
061980
061980
061980
7FD98C
7FD9FC
061FFC
067F8C
06F98C
07D998
079998
0F1998
1E1998
3E1998
7619F8
6619FE
061986
061986
061FFE
3E1FFE
3E0000
000000
ENDCHAR

STARTCHAR A247
ENCODING 41543
SWIDTH 960 0
DWIDTH 24 0
BBX 24 24 0 -6
BITMAP
000000
0C0000
0C0018
0C01F8
0C7FE0
0C7F00
7F8300
7F8300
0C0300
0C0300
0FFFFE
0FFFFE
3E0300
7C0300
6C0300
0C0300
0C0300
0C0300
0C0300
0C0300
6C0300
7C0300
380300
000000
ENDCHAR

STARTCHAR A248
ENCODING 41544
SWIDTH 960 0
DWIDTH 24 0
BBX 24 24 0 -6
BITMAP
000000
060300
060700
060600
060E00
060FFE
7FDFFE
7FF800
067000
060000
06CFF8
07CFF8
078078
1F00E0
7E01C0
760380
060700
060E00
061C06
061806
06180E
1E1FFE
1C0FFC
000000
ENDCHAR

STARTCHAR A249
ENCODING 41545
SWIDTH 960 0
DWIDTH 24 0
BBX 24 24 0 -6
BITMAP
000000
060000
060000
060018
060018
060018
7FDFFE
7FDFFE
060018
060018
060018
06CC30
07CC30
078E30
1F0630
7E0760
7603E0
0603C0
0601C0
0603E0
060F70
3E3E3C
3CF81E
000000
ENDCHAR

STARTCHAR A24A
ENCODING 41546
SWIDTH 960 0
DWIDTH 24 0
BBX 24 24 0 -6
BITMAP
000000
060000
060000
0603F8
0603F8
060018
7FDB18
7FDB98
0619D8
0618F8
068C70
078C70
078C60
0F06E0
1E07E0
3E03C0
7603C0
0603C0
0607E0
060E70
061C38
1E781C
1EE00E
000000
ENDCHAR

STARTCHAR A24B
ENCODING 41547
SWIDTH 960 0
DWIDTH 24 0
BBX 24 24 0 -6
BITMAP
000000
0C0C00
0C1C00
0C1800
0C3800
0C3800
7FFFFE
7FFFFE
0CE006
0DC006
0DC006
0F3006
0F3806
3E1C06
7C0E06
6C070E
0C030C
0C000C
0C000C
0C000C
0C000C
7C00FC
7800F8
000000
ENDCHAR

STARTCHAR A24C
ENCODING 41548
SWIDTH 960 0
DWIDTH 24 0
BBX 24 24 0 -6
BITMAP
000000
060180
060180
06018C
0601FC
061FF0
7FDF80
7FC180
060180
060180
06C180
07BFFE
0F3FFE
1E0180
3E0180
760180
660180
060180
060186
060186
060186
7E01FE
7E01FE
000000
ENDCHAR

STARTCHAR A24D
ENCODING 41549
SWIDTH 960 0
DWIDTH 24 0
BBX 24 24 0 -6
BITMAP
000000
000300
000300
7FE300
7FE700
180700
1807FE
180FFE
380E30
3F9C30
3FBE30
71F630
61E630
618670
018770
038760
0383E0
0301C0
0301C0
0703E0
060FF8
7E7F7E
7C781E
000000
ENDCHAR

STARTCHAR A24E
ENCODING 41550
SWIDTH 960 0
DWIDTH 24 0
BBX 24 24 0 -6
BITMAP
000000
0FFFF0
1FFFF8
180018
180018
1FFFF8
1FFFF8
180018
1FFFF8
0FFFF0
003000
003000
003000
3FFF80
3FFF80
006180
006180
00E380
01C306
07C306
0F030E
7E03FC
7C03FC
000000
ENDCHAR

STARTCHAR A24F
ENCODING 41551
SWIDTH 960 0
DWIDTH 24 0
BBX 24 24 0 -6
BITMAP
000000
003000
003000
003000
3FFFC0
3FFFC0
0061C0
006180
006380
00C30C
0387FC
0F07FC
3C0000
0FFF80
0FFFC0
0C00C0
0C00C0
0FFFC0
0FFFC0
0C00C0
0C00C0
0FFFC0
07FF80
000000
ENDCHAR

STARTCHAR A250
ENCODING 41552
SWIDTH 960 0
DWIDTH 24 0
BBX 24 24 0 -6
BITMAP
000000
030000
030000
031FFE
031FFE
030030
7FE030
7FE030
070030
0F0030
0F8030
1F8030
1BC030
1BC030
1B6030
336030
330030
730030
630030
030030
030330
0303F0
0301F0
000000
ENDCHAR

STARTCHAR A251
ENCODING 41553
SWIDTH 960 0
DWIDTH 24 0
BBX 24 24 0 -6
BITMAP
000000
030180
030180
030180
030180
030300
7FE300
7FE300
073FF8
073FF8
0F8318
1F8318
1BC338
1BE730
336630
330630
630E30
630C30
031C76
033866
033066
03707E
03607C
000000
ENDCHAR

STARTCHAR A252
ENCODING 41554
SWIDTH 960 0
DWIDTH 24 0
BBX 24 24 0 -6
BITMAP
000000
060180
060180
060180
060180
060180
7FDFFE
7FDFFE
060186
0E0186
0F0186
0F0186
1F8186
1F8186
3FC386
36C306
360306
660706
660606
460E06
061C0C
0638FC
0670FC
000000
ENDCHAR

STARTCHAR A253
ENCODING 41555
SWIDTH 960 0
DWIDTH 24 0
BBX 24 24 0 -6
BITMAP
000000
01800C
01800C
01830C
01830C
3FFB0C
3FFB0C
01830C
03C30C
03C30C
07E30C
07E30C
0DB30C
0DB30C
199B3C
199BFC
3183CC
618F0C
018F0C
01800C
01800C
01800C
01800C
000000
ENDCHAR

STARTCHAR A254
ENCODING 41556
SWIDTH 960 0
DWIDTH 24 0
BBX 24 24 0 -6
BITMAP
000000
0C0000
0C0000
0C0FC0
0C1FE0
0C1860
7FF860
7FF860
1E1860
1F1860
1F1860
3D9860
3DD860
3CD860
3C5860
3C1860
7C3860
6C3066
6C3066
0C7066
0C6066
0CE07E
0CC03E
000000
ENDCHAR

STARTCHAR A255
ENCODING 41557
SWIDTH 960 0
DWIDTH 24 0
BBX 24 24 0 -6
BITMAP
000000
001800
001800
001800
7FFFFE
7FFFFE
001800
001800
07FFF0
0FFFF8
0C1818
0C1818
0C18D8
0C18F8
0C3C78
003E00
007F00
00FB80
01D9C0
0398E0
0F1870
7E1838
78181E
000000
ENDCHAR

STARTCHAR A256
ENCODING 41558
SWIDTH 960 0
DWIDTH 24 0
BBX 24 24 0 -6
BITMAP
000000
030C00
030C00
030C00
030C00
030C00
7FFC00
7FFC00
030C00
078FFC
078FFC
0FCC00
0FEC00
1F7C00
1B3C00
3B1C00
730C06
630C06
030C06
030C06
030C06
030FFE
030FFE
000000
ENDCHAR

STARTCHAR A257
ENCODING 41559
SWIDTH 960 0
DWIDTH 24 0
BBX 24 24 0 -6
BITMAP
000000
060000
060000
060FF0
060FF0
061830
7FD830
7FD830
061830
061830
0F1830
0F1830
1FB830
3FF030
76F030
666018
466018
06E00C
07C00C
078006
060002
060000
060000
000000
ENDCHAR

STARTCHAR A258
ENCODING 41560
SWIDTH 960 0
DWIDTH 24 0
BBX 24 24 0 -6
BITMAP
000000
060000
0C0000
1FFFFE
3FFFFE
600000
47FFF0
07FFF0
000000
1FFFE0
1FFFE0
0606C0
0606C0
0606C0
0606C0
060660
060660
0E0660
0C0670
0C0636
180636
38061E
60061C
000000
ENDCHAR

STARTCHAR A259
ENCODING 41561
SWIDTH 960 0
DWIDTH 24 0
BBX 24 24 0 -6
BITMAP
000000
000000
03F000
03F800
001800
001C00
003C00
007E00
00E700
03C380
0F81F0
7E18FE
78181E
001818
7FFC78
7FFFF8
01DFE0
03DBE0
0798F8
1F183E
7CD80E
70F800
007000
000000
ENDCHAR

STARTCHAR A25A
ENCODING 41562
SWIDTH 960 0
DWIDTH 24 0
BBX 24 24 0 -6
BITMAP
000000
380000
3C0600
1E0600
060600
000600
03FFFE
63FFFE
783000
3C3000
1C3000
003000
033000
033000
073000
063000
0E3000
0C3000
1C3000
1C3000
183FFC
383FFC
300000
000000
ENDCHAR

STARTCHAR A25B
ENCODING 41563
SWIDTH 960 0
DWIDTH 24 0
BBX 24 24 0 -6
BITMAP
000000
300000
381FF8
1C3FFC
0E300C
06300C
00300C
60300C
703FFC
783FF8
3C3000
1C3000
003000
003000
033000
033000
073000
0E3006
1E3006
1C3006
38300E
703FFE
603FFC
000000
ENDCHAR

STARTCHAR A25C
ENCODING 41564
SWIDTH 960 0
DWIDTH 24 0
BBX 24 24 0 -6
BITMAP
000000
300600
380600
1C0600
0C0600
000600
000600
03FFFE
03FFFE
700700
780780
180780
000780
060780
060FC0
060EC0
0E0CE0
0C1CF0
1C3C78
1C783C
39F00E
73C006
630000
000000
ENDCHAR

STARTCHAR A25D
ENCODING 41565
SWIDTH 960 0
DWIDTH 24 0
BBX 24 24 0 -6
BITMAP
000000
380000
3C0000
1EFFFC
0FFFFC
03000C
003E1C
003F18
703798
7833B8
3C39B0
0C1C70
031C60
030CE0
030FC0
0707C0
060780
0E0FC0
0E3FF0
1DF878
1FE03E
3F800E
300000
000000
ENDCHAR

STARTCHAR A25E
ENCODING 41566
SWIDTH 960 0
DWIDTH 24 0
BBX 24 24 0 -6
BITMAP
000000
303000
383000
1C3000
0E7FFE
067FFE
00E000
01E000
03FFFC
63FFFC
780078
3C00F0
1C00E0
0181C0
018780
038F00
031E00
073806
0E7806
0E700E
1C7FFE
383FFC
300000
000000
ENDCHAR

STARTCHAR A25F
ENCODING 41567
SWIDTH 960 0
DWIDTH 24 0
BBX 24 24 0 -6
BITMAP
000000
301800
3C1800
1E3800
0E3000
007FFC
007FFE
60E006
70E006
39C006
1D8006
0C0806
000C06
000C06
060606
060706
060306
0E0186
0C018E
1C000E
18000C
3800FC
3000FC
000000
ENDCHAR

STARTCHAR A260
ENCODING 41568
SWIDTH 960 0
DWIDTH 24 0
BBX 24 24 0 -6
BITMAP
000000
70630C
38630C
1C630C
0C630C
00630C
00630C
00630C
60630C
70630C
38630C
18630C
00630C
06630C
06630C
0E630C
0C630C
1CE30C
1CC30C
38C30C
39830C
73830C
63000C
000000
ENDCHAR

STARTCHAR A261
ENCODING 41569
SWIDTH 960 0
DWIDTH 24 0
BBX 24 24 0 -6
BITMAP
000000
060000
063FF8
063FFC
0600CC
36C0CC
36C0CC
36C0CC
3780CC
3781CC
3601CC
76018C
76018C
66018C
07018C
07038C
07830C
0F870C
0FCE1C
1CDE18
383B18
7073F8
6001F0
000000
ENDCHAR

STARTCHAR A262
ENCODING 41570
SWIDTH 960 0
DWIDTH 24 0
BBX 24 24 0 -6
BITMAP
000000
0300C0
1B00C0
1B00C0
1B00C0
1B00C0
1B1FFC
1FFFFE
3FF0C6
3300C6
3300C6
7300C6
6330C6
03F1C6
0FE1C6
1F0186
7F0386
730306
030706
030E0E
031C0C
0338FC
0330FC
000000
ENDCHAR

STARTCHAR A263
ENCODING 41571
SWIDTH 960 0
DWIDTH 24 0
BBX 24 24 0 -6
BITMAP
000000
618000
718000
3BBFFE
1FBFFE
1F0180
1E0180
3F0180
7B0180
638180
018180
07FFFE
07FFFE
0F8180
1D8180
1D8180
398180
718180
618180
018180
318180
3F8180
1F0180
000000
ENDCHAR

STARTCHAR A264
ENCODING 41572
SWIDTH 960 0
DWIDTH 24 0
BBX 24 24 0 -6
BITMAP
000000
618600
730600
3F0E00
1E1C00
1E1FFE
3E3FFE
777000
636000
031FF8
071FF8
0F0078
1F80E0
3981C0
7187C0
618F00
418E00
019C06
019806
019C06
039FFE
1F8FFE
1F0000
000000
ENDCHAR

STARTCHAR A265
ENCODING 41573
SWIDTH 960 0
DWIDTH 24 0
BBX 24 24 0 -6
BITMAP
000000
000000
7FDFFE
7FDFFE
0C0060
0C0060
0C0060
0C0060
0C0060
7F8060
7F8060
0C0060
0C0060
0C0060
0C0060
0DC060
0FC060
3F0060
780060
600060
0007E0
0007E0
000000
000000
ENDCHAR

STARTCHAR A266
ENCODING 41574
SWIDTH 960 0
DWIDTH 24 0
BBX 24 24 0 -6
BITMAP
000000
018000
018000
030000
070000
0E0000
0FFFF8
1FFFFC
3C0C0C
3C0C0C
7C0C0C
6FFFFC
0FFFFC
0C0C0C
0C0C0C
0C0C0C
0FFFFC
0FFFFC
0C0C0C
1C0C0C
180C0C
380C7C
300C7C
000000
ENDCHAR

STARTCHAR A267
ENCODING 41575
SWIDTH 960 0
DWIDTH 24 0
BBX 24 24 0 -6
BITMAP
000000
000300
060300
0E0300
1C0300
380300
7F0300
7F8300
618300
618300
618300
618300
7F8300
7F8300
618300
618300
618300
618306
618306
618306
7F838E
3F03FE
0001FC
000000
ENDCHAR

STARTCHAR A268
ENCODING 41576
SWIDTH 960 0
DWIDTH 24 0
BBX 24 24 0 -6
BITMAP
000000
001800
001800
001800
3FFFFC
7FFFFE
606606
60C606
6187E6
6703E6
000000
1FFF80
1FFF00
000E00
001C00
003800
00F000
01C000
03800C
07000C
0E000C
1FFFFC
1FFFFC
000000
ENDCHAR

STARTCHAR A269
ENCODING 41577
SWIDTH 960 0
DWIDTH 24 0
BBX 24 24 0 -6
BITMAP
000000
1FFFFC
3FFFFE
300006
300006
306006
306C66
3C6C66
3E6CE6
376CE6
33EEC6
33EEC6
31E7C6
31E786
31F386
33B7C6
3787C6
3F0EE6
3E0E76
301C36
301806
30007E
30007E
000000
ENDCHAR

STARTCHAR A26A
ENCODING 41578
SWIDTH 960 0
DWIDTH 24 0
BBX 24 24 0 -6
BITMAP
000000
030060
030060
030060
633066
633666
633666
633666
633666
633666
633666
633666
7FF7FE
3FE3FC
030060
030060
070060
060060
0E0060
0C0060
180060
380060
700060
000000
ENDCHAR

STARTCHAR A26B
ENCODING 41579
SWIDTH 960 0
DWIDTH 24 0
BBX 24 24 0 -6
BITMAP
000000
00C300
00C300
7FFFFE
7FFFFE
00C300
00C300
00C300
000000
7FFFFE
7FFFFE
001800
001800
001800
001800
001800
001800
001800
001800
001800
001800
01F800
01F800
000000
ENDCHAR

STARTCHAR A26C
ENCODING 41580
SWIDTH 960 0
DWIDTH 24 0
BBX 24 24 0 -6
BITMAP
000000
018180
018180
018180
7FFFFE
7FFFFE
018180
018180
1FFFFC
1FFFFC
000C0C
000C0C
00180C
00180C
00380C
00300C
00701C
00E018
01C018
038018
070738
1E07F0
1C01F0
000000
ENDCHAR

STARTCHAR A26D
ENCODING 41581
SWIDTH 960 0
DWIDTH 24 0
BBX 24 24 0 -6
BITMAP
000000
030300
030300
7FFFFE
7FFFFE
030300
033300
003000
003000
1FFF80
1FFFC0
0030C0
0030C0
0030C0
0030C0
0060C0
0060C0
00E0C0
01C0C6
0380C6
0F00CE
3E00FC
3800FC
000000
ENDCHAR

STARTCHAR A26E
ENCODING 41582
SWIDTH 960 0
DWIDTH 24 0
BBX 24 24 0 -6
BITMAP
000000
018300
018300
7FFFFE
7FFFFE
018300
018300
018300
3FFFC0
3FFFC0
0061C0
006180
0061F8
0061FC
00600C
00600C
00C00C
00C00C
01C00C
07801C
3E03FC
3C03F8
000000
000000
ENDCHAR

STARTCHAR A26F
ENCODING 41583
SWIDTH 960 0
DWIDTH 24 0
BBX 24 24 0 -6
BITMAP
000000
003000
003FF0
003FF0
003000
0FFFFC
1FFFFE
180006
180006
183006
183006
183006
183000
18307C
183FFC
3FFFC0
37F000
303000
30300C
30300C
70300C
603FFC
003FFC
000000
ENDCHAR

STARTCHAR A270
ENCODING 41584
SWIDTH 960 0
DWIDTH 24 0
BBX 24 24 0 -6
BITMAP
000000
000000
7FFFFE
7FFFFE
0300C0
0300C0
1FFFF8
3FFFFC
3300CC
3300CC
3300CC
3300CC
3300CC
3300CC
3300CC
3300CC
3300CC
33FFCC
31FF8C
30000C
30000C
30007C
300078
000000
ENDCHAR

STARTCHAR A271
ENCODING 41585
SWIDTH 960 0
DWIDTH 24 0
BBX 24 24 0 -6
BITMAP
000000
030000
0303FC
0303FC
030318
7FFF38
7FFF30
180370
180370
180338
18033C
18031C
18030C
18030E
180306
18030E
18030E
181B7C
1FFB7C
1FFB38
000300
000300
000300
000000
ENDCHAR

STARTCHAR A272
ENCODING 41586
SWIDTH 960 0
DWIDTH 24 0
BBX 24 24 0 -6
BITMAP
000000
001800
03F9FE
3FF1FE
3FC18E
00C18C
00C19C
00C198
00C1B8
00C1B0
7FFFB8
7FFF9C
00C19C
00C18E
00C186
01C186
018186
018186
030186
0701FE
0E01FC
3C0180
380180
000000
ENDCHAR

STARTCHAR A273
ENCODING 41587
SWIDTH 960 0
DWIDTH 24 0
BBX 24 24 0 -6
BITMAP
000000
0003FC
7FFBFC
7FFB1C
018318
018338
018330
018330
7FFF70
7FFF60
018370
018338
01831C
01831C
01830C
01830C
01830C
01830C
01830C
01837C
018378
0F8300
0F8300
000000
ENDCHAR

STARTCHAR A274
ENCODING 41588
SWIDTH 960 0
DWIDTH 24 0
BBX 24 24 0 -6
BITMAP
000000
0003FC
0003FC
00031C
3FFB18
3FFB38
018330
018330
018370
018360
018370
018338
01831C
01830C
01830C
01830C
01FB0C
7FFB0C
7F030C
00037C
000378
000300
000300
000000
ENDCHAR

STARTCHAR A275
ENCODING 41589
SWIDTH 960 0
DWIDTH 24 0
BBX 24 24 0 -6
BITMAP
000000
3FE3FC
3FF7FC
00361C
003618
003638
003630
003670
0FF660
1FE670
180638
180638
18061C
18060C
18060C
18060C
18360C
18360C
18367C
183678
1FF600
1FF600
000600
000000
ENDCHAR

STARTCHAR A276
ENCODING 41590
SWIDTH 960 0
DWIDTH 24 0
BBX 24 24 0 -6
BITMAP
000000
3F0000
7FFFFE
67FFFE
660D80
6E0D80
6E0D80
7C0D80
7C0D80
6E0D80
6E0D80
670D80
630D80
630D80
630D80
630D80
7F1D80
7E1986
603986
607186
60E1FE
61C1FE
638000
000000
ENDCHAR

STARTCHAR A277
ENCODING 41591
SWIDTH 960 0
DWIDTH 24 0
BBX 24 24 0 -6
BITMAP
000000
3F00C0
7F00C0
6718C0
6618C0
6E18C0
6C18CE
7C18FE
781FF6
7C7FC6
6FF8C6
67D8CC
6318CC
6318CC
6318CC
6318CC
6718FC
7F18FC
7E18C6
6018C6
601806
601FFE
601FFC
000000
ENDCHAR

STARTCHAR A278
ENCODING 41592
SWIDTH 960 0
DWIDTH 24 0
BBX 24 24 0 -6
BITMAP
000000
3F7FF0
7F7FF0
670630
660630
660630
6E0660
6C0660
6E0660
660660
677FF0
637FF0
630630
630630
630630
7F0630
7E0E30
600C30
600C38
601C1C
60180E
603806
603000
000000
ENDCHAR

STARTCHAR A279
ENCODING 41593
SWIDTH 960 0
DWIDTH 24 0
BBX 24 24 0 -6
BITMAP
000000
000600
1F8600
3F8E00
330C00
371FF8
361FF8
3E3800
3C3000
3E7FE0
377FE0
3781C0
338380
318780
318F00
318E00
319C00
3F9800
3F180C
30380C
303FFC
301FFC
300000
000000
ENDCHAR

STARTCHAR A27A
ENCODING 41594
SWIDTH 960 0
DWIDTH 24 0
BBX 24 24 0 -6
BITMAP
000000
030C18
030E18
070718
0603B8
0E01B8
0C3630
1C3630
3C3670
3C3678
6C367C
6C366C
0C36CE
0C36C6
0C37C6
0C3786
0C7786
0C7706
0CE706
0CEE06
0C3E0E
0C7FFE
0DE7F8
000000
ENDCHAR

STARTCHAR A27B
ENCODING 41595
SWIDTH 960 0
DWIDTH 24 0
BBX 24 24 0 -6
BITMAP
000000
018000
018000
03FFFE
03FFFE
070300
0F3300
1E330C
3E330C
76331C
661B18
061B38
061B30
07FFFE
07FFFE
060300
060300
060300
060300
060300
060300
060300
060300
000000
ENDCHAR

STARTCHAR A27C
ENCODING 41596
SWIDTH 960 0
DWIDTH 24 0
BBX 24 24 0 -6
BITMAP
000000
00C000
01C000
03FFFE
077FFE
070C00
0F0C00
1F0FF8
3B0FFC
330C0C
730C0C
630C0C
030C0C
030C0C
030FFC
030FF8
030C00
030C00
030C00
030C00
030C00
037FFE
037FFE
000000
ENDCHAR

STARTCHAR A27D
ENCODING 41597
SWIDTH 960 0
DWIDTH 24 0
BBX 24 24 0 -6
BITMAP
000000
030600
030600
070600
0E0600
0FFFFC
1DFFFC
1C0600
3C0600
7C0600
6C0600
4C0600
0FFFFE
0FFFFE
0C0C00
0C1C60
0C3870
0C3038
0C7038
0CE1FC
0FFFFE
0FFF0E
0C0006
000000
ENDCHAR

STARTCHAR A27E
ENCODING 41598
SWIDTH 960 0
DWIDTH 24 0
BBX 24 24 0 -6
BITMAP
000000
030600
030600
070600
060600
0E0600
1FFFF8
1FFFF8
3C0F00
3C1F80
7C3F80
6C3FC0
0C76E0
0CF670
0DE63C
0FC61E
0F7FE6
0C7FE0
0C0600
0C0600
0C0600
0C0600
0C0600
000000
ENDCHAR

STARTCHAR A2A1
ENCODING 41633
SWIDTH 960 0
DWIDTH 24 0
BBX 24 24 0 -6
BITMAP
000000
000000
003C00
00FF00
03C3C0
0701E0
0FFFF0
0DFFB0
181838
181818
199F18
199F18
199818
199818
199838
0FFFF0
0FFFF0
0700E0
03C3C0
00FF00
003C00
000000
000000
000000
ENDCHAR

STARTCHAR A2A2
ENCODING 41634
SWIDTH 960 0
DWIDTH 24 0
BBX 24 24 0 -6
BITMAP
000000
000000
03C000
07E018
0E7038
0C7070
1C30E0
1801C0
180380
1C6700
0FEE00
07DCE0
003BF0
007730
00EE30
01CC30
039860
0718E0
0E19C0
1C1F80
000E00
000000
000000
000000
ENDCHAR

STARTCHAR A2A3
ENCODING 41635
SWIDTH 960 0
DWIDTH 24 0
BBX 24 24 0 -6
BITMAP
000000
7FFFFE
000000
000000
000000
000000
000000
000000
000000
000000
000000
000000
000000
000000
000000
000000
000000
000000
000000
000000
000000
000000
000000
000000
ENDCHAR

STARTCHAR A2A4
ENCODING 41636
SWIDTH 960 0
DWIDTH 24 0
BBX 24 24 0 -6
BITMAP
000000
7FFFFE
7FFFFE
000000
000000
000000
000000
000000
000000
000000
000000
000000
000000
000000
000000
000000
000000
000000
000000
000000
000000
000000
000000
000000
ENDCHAR

STARTCHAR A2A5
ENCODING 41637
SWIDTH 960 0
DWIDTH 24 0
BBX 24 24 0 -6
BITMAP
000000
000000
000000
000000
000000
000000
000000
000000
000000
000000
000000
000000
000000
000000
000000
000000
000000
000000
000000
000000
000000
000000
7FFFFE
000000
ENDCHAR

STARTCHAR A2A6
ENCODING 41638
SWIDTH 960 0
DWIDTH 24 0
BBX 24 24 0 -6
BITMAP
000000
000000
000000
000000
000000
000000
000000
000000
000000
000000
000000
000000
000000
000000
000000
000000
000000
000000
000000
000000
000000
7FFFFE
7FFFFE
000000
ENDCHAR

STARTCHAR A2A7
ENCODING 41639
SWIDTH 960 0
DWIDTH 24 0
BBX 24 24 0 -6
BITMAP
000000
7F7EFE
000000
000000
000000
000000
000000
000000
000000
000000
000000
000000
000000
000000
000000
000000
000000
000000
000000
000000
000000
000000
000000
000000
ENDCHAR

STARTCHAR A2A8
ENCODING 41640
SWIDTH 960 0
DWIDTH 24 0
BBX 24 24 0 -6
BITMAP
000000
7FBDFE
7FBDFE
000000
000000
000000
000000
000000
000000
000000
000000
000000
000000
000000
000000
000000
000000
000000
000000
000000
000000
000000
000000
000000
ENDCHAR

STARTCHAR A2A9
ENCODING 41641
SWIDTH 960 0
DWIDTH 24 0
BBX 24 24 0 -6
BITMAP
000000
000000
000000
000000
000000
000000
000000
000000
000000
000000
000000
000000
000000
000000
000000
000000
000000
000000
000000
000000
000000
000000
7F7EFE
000000
ENDCHAR

STARTCHAR A2AA
ENCODING 41642
SWIDTH 960 0
DWIDTH 24 0
BBX 24 24 0 -6
BITMAP
000000
000000
000000
000000
000000
000000
000000
000000
000000
000000
000000
000000
000000
000000
000000
000000
000000
000000
000000
000000
000000
7FBDFE
7FBDFE
000000
ENDCHAR

STARTCHAR A2AB
ENCODING 41643
SWIDTH 960 0
DWIDTH 24 0
BBX 24 24 0 -6
BITMAP
000000
000000
0300C0
0FC3F0
3C6638
703C0C
603806
000000
000000
000000
000000
000000
000000
000000
000000
000000
000000
000000
000000
000000
000000
000000
000000
000000
ENDCHAR

STARTCHAR A2AC
ENCODING 41644
SWIDTH 960 0
DWIDTH 24 0
BBX 24 24 0 -6
BITMAP
000000
000000
0300C0
0FC3F0
1DE7B8
387E1C
703C0E
601806
000000
000000
000000
000000
000000
000000
000000
000000
000000
000000
000000
000000
000000
000000
000000
000000
ENDCHAR

STARTCHAR A2AD
ENCODING 41645
SWIDTH 960 0
DWIDTH 24 0
BBX 24 24 0 -6
BITMAP
000000
000000
000000
000400
002400
002400
002400
002700
003F00
01FC00
01E400
002400
002400
002700
003F00
01FC00
01E400
002400
002400
002000
000000
000000
000000
000000
ENDCHAR

STARTCHAR A2AE
ENCODING 41646
SWIDTH 960 0
DWIDTH 24 0
BBX 24 24 0 -6
BITMAP
000000
000000
000000
003800
007C00
006C00
00CC00
00CC00
006800
007800
003780
007300
00F300
019B00
019B00
018E00
018E00
01C680
00FF80
007700
000000
000000
000000
000000
ENDCHAR

STARTCHAR A2AF
ENCODING 41647
SWIDTH 960 0
DWIDTH 24 0
BBX 24 24 0 -6
BITMAP
000000
000000
000000
001800
0C1820
061860
0318C0
019980
00DB00
007E00
003C00
0FFFF0
0FFFF0
007E00
00DB00
019980
0318C0
061860
0C1820
001800
000000
000000
000000
000000
ENDCHAR

STARTCHAR A2B0
ENCODING 41648
SWIDTH 960 0
DWIDTH 24 0
BBX 24 24 0 -6
BITMAP
000000
000000
000000
001800
001800
001800
001800
001800
001800
001800
1FFFF8
1FFFF8
001800
001800
001800
001800
001800
001800
001800
001800
000000
000000
000000
000000
ENDCHAR

STARTCHAR A2B1
ENCODING 41649
SWIDTH 960 0
DWIDTH 24 0
BBX 24 24 0 -6
BITMAP
000000
000000
000000
000000
000000
000000
000000
000000
000000
000000
000000
1FFFF8
1FFFF8
000000
000000
000000
000000
000000
000000
000000
000000
000000
000000
000000
ENDCHAR

STARTCHAR A2B2
ENCODING 41650
SWIDTH 960 0
DWIDTH 24 0
BBX 24 24 0 -6
BITMAP
000000
000000
000000
000000
0E0070
0700E0
0381C0
01C380
00E700
007E00
003C00
003C00
007E00
00E700
01C380
0381C0
0700E0
0E0070
0C0030
000000
000000
000000
000000
000000
ENDCHAR

STARTCHAR A2B3
ENCODING 41651
SWIDTH 960 0
DWIDTH 24 0
BBX 24 24 0 -6
BITMAP
000000
000000
000000
000000
003C00
003C00
003C00
003C00
000000
000000
1FFFF8
1FFFF8
1FFFF8
000000
000000
003C00
003C00
003C00
003C00
000000
000000
000000
000000
000000
ENDCHAR

STARTCHAR A2B4
ENCODING 41652
SWIDTH 960 0
DWIDTH 24 0
BBX 24 24 0 -6
BITMAP
000000
000000
001800
001800
001800
001800
001800
001800
001800
1FFFF8
1FFFF8
001800
001800
001800
001800
001800
001800
000000
000000
1FFFF8
1FFFF8
000000
000000
000000
ENDCHAR

STARTCHAR A2B5
ENCODING 41653
SWIDTH 960 0
DWIDTH 24 0
BBX 24 24 0 -6
BITMAP
000000
000000
0007FE
0007FE
000E00
000C00
001C00
001800
003800
003000
007000
006000
00E000
10C000
39C000
398000
6D8000
6F0000
070000
060000
060000
000000
000000
000000
ENDCHAR

STARTCHAR A2B6
ENCODING 41654
SWIDTH 960 0
DWIDTH 24 0
BBX 24 24 0 -6
BITMAP
000000
000000
000018
000078
0001E0
000780
001E00
007800
01E000
078000
1E0000
380000
1E0000
078000
01E000
007800
001E00
000780
0001E0
000078
000018
000000
000000
000000
ENDCHAR

STARTCHAR A2B7
ENCODING 41655
SWIDTH 960 0
DWIDTH 24 0
BBX 24 24 0 -6
BITMAP
000000
000000
180000
1E0000
078000
01E000
007800
001E00
000780
0001E0
000078
00001C
000078
0001E0
000780
001E00
007800
01E000
078000
1E0000
180000
000000
000000
000000
ENDCHAR

STARTCHAR A2B8
ENCODING 41656
SWIDTH 960 0
DWIDTH 24 0
BBX 24 24 0 -6
BITMAP
000000
000000
000000
000000
000000
000000
000000
000000
1FFFF8
1FFFF8
000000
000000
000000
1FFFF8
1FFFF8
000000
000000
000000
000000
000000
000000
000000
000000
000000
ENDCHAR

STARTCHAR A2B9
ENCODING 41657
SWIDTH 960 0
DWIDTH 24 0
BBX 24 24 0 -6
BITMAP
000000
000000
000030
0001F0
000FC0
003E00
01F800
0FC000
1E0000
0F0000
03E000
00F800
003F00
0007E0
0000F0
000000
1FFFF0
1FFFF0
000000
1FFFF0
1FFFF0
000000
000000
000000
ENDCHAR

STARTCHAR A2BA
ENCODING 41658
SWIDTH 960 0
DWIDTH 24 0
BBX 24 24 0 -6
BITMAP
000000
000000
1C0000
1F8000
03F000
007C00
001F00
0007C0
0000F0
0001F0
0007C0
001F00
00FC00
07E000
1F0000
000000
1FFFF0
1FFFF0
000000
1FFFF0
1FFFF0
000000
000000
000000
ENDCHAR

STARTCHAR A2BB
ENCODING 41659
SWIDTH 960 0
DWIDTH 24 0
BBX 24 24 0 -6
BITMAP
000000
000000
000000
000180
000180
000300
000300
000600
1FFFF8
1FFFF8
000C00
001800
001800
1FFFF8
1FFFF8
006000
006000
00C000
00C000
018000
000000
000000
000000
000000
ENDCHAR

STARTCHAR A2BC
ENCODING 41660
SWIDTH 960 0
DWIDTH 24 0
BBX 24 24 0 -6
BITMAP
000000
000000
000000
000000
000000
000000
0F81F0
1FE7F8
38661C
703C0C
603806
601806
603806
703C0C
38661C
1FE7F8
0F81F0
000000
000000
000000
000000
000000
000000
000000
ENDCHAR

STARTCHAR A2BD
ENCODING 41661
SWIDTH 960 0
DWIDTH 24 0
BBX 24 24 0 -6
BITMAP
000000
000000
000000
03C000
03C000
03C000
03C000
000000
1FFFF8
1FFFF8
000000
000000
000000
1FFFF8
1FFFF8
000000
0003C0
0003C0
0003C0
0003C0
000000
000000
000000
000000
ENDCHAR

STARTCHAR A2BE
ENCODING 41662
SWIDTH 960 0
DWIDTH 24 0
BBX 24 24 0 -6
BITMAP
000000
000000
000000
000000
000000
000000
000000
000000
1FFFF8
1FFFF8
000000
1FFFF8
1FFFF8
000000
1FFFF8
1FFFF8
000000
000000
000000
000000
000000
000000
000000
000000
ENDCHAR

STARTCHAR A2BF
ENCODING 41663
SWIDTH 960 0
DWIDTH 24 0
BBX 24 24 0 -6
BITMAP
000000
000000
000000
000000
001800
001800
001800
001800
001800
001800
07FFE0
07FFE0
001800
001800
001800
001800
001800
001800
001800
000000
000000
000000
000000
000000
ENDCHAR

STARTCHAR A2C0
ENCODING 41664
SWIDTH 960 0
DWIDTH 24 0
BBX 24 24 0 -6
BITMAP
000000
000000
000000
000000
000000
000000
000000
000000
000000
000000
000000
07FFE0
07FFE0
000000
000000
000000
000000
000000
000000
000000
000000
000000
000000
000000
ENDCHAR

STARTCHAR A2C1
ENCODING 41665
SWIDTH 960 0
DWIDTH 24 0
BBX 24 24 0 -6
BITMAP
000000
000000
000000
000000
000060
0001E0
000780
001E00
007800
01E000
078000
0E0000
078000
01E000
007800
001E00
000780
0001E0
000060
000000
000000
000000
000000
000000
ENDCHAR

STARTCHAR A2C2
ENCODING 41666
SWIDTH 960 0
DWIDTH 24 0
BBX 24 24 0 -6
BITMAP
000000
000000
000000
000000
060000
078000
01E000
007800
001E00
000780
0001E0
000070
0001E0
000780
001E00
007800
01E000
078000
060000
000000
000000
000000
000000
000000
ENDCHAR

STARTCHAR A2C3
ENCODING 41667
SWIDTH 960 0
DWIDTH 24 0
BBX 24 24 0 -6
BITMAP
000000
000000
000000
000000
000000
000000
000000
000000
07FFE0
07FFE0
000000
000000
000000
07FFE0
07FFE0
000000
000000
000000
000000
000000
000000
000000
000000
000000
ENDCHAR

STARTCHAR A2C4
ENCODING 41668
SWIDTH 960 0
DWIDTH 24 0
BBX 24 24 0 -6
BITMAP
000000
000000
000000
000000
000000
000000
000000
000000
000000
07E000
1FFC0E
387FFC
600FF0
0001C0
000000
000000
000000
000000
000000
000000
000000
000000
000000
000000
ENDCHAR

STARTCHAR A2C5
ENCODING 41669
SWIDTH 960 0
DWIDTH 24 0
BBX 24 24 0 -6
BITMAP
000000
000000
007E00
01FF80
03C3C0
0701E0
0F00F0
0E0070
0E0070
0E0070
0E0070
0E0070
0E0070
0E0070
0E0070
0E0070
0E0070
0E0070
0E0070
0E0070
0E0070
000000
000000
000000
ENDCHAR

STARTCHAR A2C6
ENCODING 41670
SWIDTH 960 0
DWIDTH 24 0
BBX 24 24 0 -6
BITMAP
000000
000000
0E0070
0E0070
0E0070
0E0070
0E0070
0E0070
0E0070
0E0070
0E0070
0E0070
0E0070
0E0070
0E0070
0E0070
0F00F0
0701E0
03C3C0
01FF80
007C00
000000
000000
000000
ENDCHAR

STARTCHAR A2C7
ENCODING 41671
SWIDTH 960 0
DWIDTH 24 0
BBX 24 24 0 -6
BITMAP
000000
000000
001800
001800
001800
001800
001800
001800
001800
001800
001800
001800
001800
001800
001800
001800
001800
001800
001800
7FFFFE
7FFFFE
000000
000000
000000
ENDCHAR

STARTCHAR A2C8
ENCODING 41672
SWIDTH 960 0
DWIDTH 24 0
BBX 24 24 0 -6
BITMAP
000000
000000
000018
000038
000070
0000E0
0001C0
000380
000700
000E00
001C00
003800
007000
00E000
01C000
038000
070000
0E0000
1C0000
1FFFF8
1FFFF8
000000
000000
000000
ENDCHAR

STARTCHAR A2C9
ENCODING 41673
SWIDTH 960 0
DWIDTH 24 0
BBX 24 24 0 -6
BITMAP
000000
000000
180000
180000
180000
180000
180000
180000
180000
180000
180000
180000
180000
180000
180000
180000
180000
180000
180000
1FFFF8
1FFFF8
000000
000000
000000
ENDCHAR

STARTCHAR A2CA
ENCODING 41674
SWIDTH 960 0
DWIDTH 24 0
BBX 24 24 0 -6
BITMAP
000000
000000
000018
000038
000078
0000F8
0001D8
000398
000718
000E18
001C18
003818
007018
00E018
01C018
038018
070018
0E0018
1C0018
1FFFF8
1FFFF8
000000
000000
000000
ENDCHAR

STARTCHAR A2CB
ENCODING 41675
SWIDTH 960 0
DWIDTH 24 0
BBX 24 24 0 -6
BITMAP
000000
000000
300000
700000
700000
300000
300000
300000
300000
30E076
31F0FE
33B9DC
33198C
360D8C
360DDC
360CF8
360C60
3318FC
3319DE
79F386
78E306
00038E
0001FC
000000
ENDCHAR

STARTCHAR A2CC
ENCODING 41676
SWIDTH 960 0
DWIDTH 24 0
BBX 24 24 0 -6
BITMAP
000000
000000
0E0000
1E0000
1E0000
0E0000
0E0000
0E0000
0E0000
0E0F80
0E3FC0
0E78E0
0E7870
0E3870
0E3870
0E3870
0E3870
0E3870
0E3870
1F7CF8
1F7CF8
000000
000000
000000
ENDCHAR

STARTCHAR A2CD
ENCODING 41677
SWIDTH 960 0
DWIDTH 24 0
BBX 24 24 0 -6
BITMAP
000000
000000
000C00
001E00
003F00
003B00
003000
003000
003000
003800
001800
001800
001800
001800
000C00
000C00
000C00
00DC00
00F800
00F800
006000
000000
000000
000000
ENDCHAR

STARTCHAR A2CE
ENCODING 41678
SWIDTH 960 0
DWIDTH 24 0
BBX 24 24 0 -6
BITMAP
000000
000000
000E00
001F00
001B00
001B00
001800
007E00
00FF00
019980
0318C0
0318C0
0318C0
019980
01CF80
00FF00
003C00
00CC00
00D800
00F800
006000
000000
000000
000000
ENDCHAR

STARTCHAR A2CF
ENCODING 41679
SWIDTH 960 0
DWIDTH 24 0
BBX 24 24 0 -6
BITMAP
000000
000000
000000
000000
0F81F0
0F81F0
0F81F0
0F81F0
0F81F0
000000
000000
000000
000000
000000
000000
007C00
007C00
007C00
007C00
007C00
000000
000000
000000
000000
ENDCHAR

STARTCHAR A2D0
ENCODING 41680
SWIDTH 960 0
DWIDTH 24 0
BBX 24 24 0 -6
BITMAP
000000
000000
000000
000000
007C00
007C00
007C00
007C00
007C00
000000
000000
000000
000000
000000
0F81F0
0F81F0
0F81F0
0F81F0
0F81F0
000000
000000
000000
000000
000000
ENDCHAR

STARTCHAR A2D1
ENCODING 41681
SWIDTH 960 0
DWIDTH 24 0
BBX 24 24 0 -6
BITMAP
000000
000000
003C00
00FF00
01C380
018180
0381C0
0300C0
0300C0
018180
01C380
00FF00
003C00
001800
001800
07FFE0
07FFE0
001800
001800
001800
001800
000000
000000
000000
ENDCHAR

STARTCHAR A2D2
ENCODING 41682
SWIDTH 960 0
DWIDTH 24 0
BBX 24 24 0 -6
BITMAP
000000
000000
001800
003C00
007E00
00FF00
01DB80
0399C0
0718E0
0E1870
003C00
00FF00
01E780
018180
0300C0
0300C0
0300C0
018180
01C780
00FF00
003C00
000000
000000
000000
ENDCHAR

STARTCHAR A2D3
ENCODING 41683
SWIDTH 960 0
DWIDTH 24 0
BBX 24 24 0 -6
BITMAP
000000
000000
000000
003C00
00FF00
01FF80
0399C0
0718E0
0E1870
0C1830
1C1838
1C1838
1FFFF8
1C1838
0C1830
0E1870
0718E0
0399C0
01FF80
00FF00
003C00
000000
000000
000000
ENDCHAR

STARTCHAR A2D4
ENCODING 41684
SWIDTH 960 0
DWIDTH 24 0
BBX 24 24 0 -6
BITMAP
000000
000000
000000
007E00
01FF80
0381C0
0700E0
0E0070
0C0030
1C3838
187C18
187C18
187C18
1C3838
0C0030
0E0070
0700E0
0381C0
01FF80
007E00
000000
000000
000000
000000
ENDCHAR

STARTCHAR A2D5
ENCODING 41685
SWIDTH 960 0
DWIDTH 24 0
BBX 24 24 0 -6
BITMAP
000000
001800
003C00
003C00
007E00
007E00
00DB00
00DB00
019980
019980
031880
001800
001800
001800
001800
001800
001800
001800
001800
001800
001800
001800
001800
000000
ENDCHAR

STARTCHAR A2D6
ENCODING 41686
SWIDTH 960 0
DWIDTH 24 0
BBX 24 24 0 -6
BITMAP
000000
001800
001800
001800
001800
001800
001800
001800
001800
001800
001800
001800
021840
0318C0
019980
019980
00DB00
00DB00
007E00
007E00
003C00
003C00
001800
000000
ENDCHAR

STARTCHAR A2D7
ENCODING 41687
SWIDTH 960 0
DWIDTH 24 0
BBX 24 24 0 -6
BITMAP
000000
000000
000000
000000
000000
000000
000C00
000700
0003C0
0000F0
00003C
7FFFFE
7FFFFE
00003C
0000F0
0003C0
000F00
000000
000000
000000
000000
000000
000000
000000
ENDCHAR

STARTCHAR A2D8
ENCODING 41688
SWIDTH 960 0
DWIDTH 24 0
BBX 24 24 0 -6
BITMAP
000000
000000
000000
000000
000000
000000
006000
00E000
03C000
070000
1E0000
7FFFFE
7FFFFE
1C0000
0F0000
03C000
00E000
000000
000000
000000
000000
000000
000000
000000
ENDCHAR

STARTCHAR A2D9
ENCODING 41689
SWIDTH 960 0
DWIDTH 24 0
BBX 24 24 0 -6
BITMAP
000000
700000
7E0000
7FC000
3DF800
3E3800
370000
1B8000
19C000
18E000
0C7000
0C3800
0C1C00
000E00
000700
000380
0001C0
0000E0
000070
000038
00001C
00000E
000006
000000
ENDCHAR

STARTCHAR A2DA
ENCODING 41690
SWIDTH 960 0
DWIDTH 24 0
BBX 24 24 0 -6
BITMAP
000000
00000E
00007E
0001FE
000FBC
003C7C
0000EC
0001D8
000398
000718
000E30
001C30
003820
007000
00E000
01C000
038000
070000
0E0000
1C0000
380000
700000
600000
000000
ENDCHAR

STARTCHAR A2DB
ENCODING 41691
SWIDTH 960 0
DWIDTH 24 0
BBX 24 24 0 -6
BITMAP
000000
000006
00000E
00001C
000038
000070
0000E0
0001C0
000380
000700
000E00
0C1C00
0C3800
0C7000
18E000
19C000
1B8000
370000
3E7800
3DF000
7F8000
7C0000
600000
000000
ENDCHAR

STARTCHAR A2DC
ENCODING 41692
SWIDTH 960 0
DWIDTH 24 0
BBX 24 24 0 -6
BITMAP
000000
600000
700000
380000
1C0000
0E0000
070000
038000
01C000
00E000
007000
003800
001C30
000E30
000718
000398
0001CC
0000EC
003C7C
000F3E
0003FE
0000FE
00001E
000000
ENDCHAR

STARTCHAR A2DD
ENCODING 41693
SWIDTH 960 0
DWIDTH 24 0
BBX 24 24 0 -6
BITMAP
000000
006300
006300
006300
006300
006300
006300
006300
006300
006300
006300
006300
006300
006300
006300
006300
006300
006300
006300
006300
006300
006300
006300
000000
ENDCHAR

STARTCHAR A2DE
ENCODING 41694
SWIDTH 960 0
DWIDTH 24 0
BBX 24 24 0 -6
BITMAP
000000
001800
001800
001800
001800
001800
001800
001800
001800
001800
001800
001800
001800
001800
001800
001800
001800
001800
001800
001800
001800
001800
001800
000000
ENDCHAR

STARTCHAR A2DF
ENCODING 41695
SWIDTH 960 0
DWIDTH 24 0
BBX 24 24 0 -6
BITMAP
000000
000006
00000E
00001C
000038
000070
0000E0
0001C0
000380
000700
000E00
001C00
003800
007000
00E000
01C000
038000
070000
0E0000
1C0000
380000
700000
600000
000000
ENDCHAR

STARTCHAR A2E0
ENCODING 41696
SWIDTH 960 0
DWIDTH 24 0
BBX 24 24 0 -6
BITMAP
000000
600000
700000
380000
1C0000
0E0000
070000
038000
01C000
00E000
007000
003800
001C00
000E00
000700
000380
0001C0
0000E0
000070
000038
00001C
00000E
000006
000000
ENDCHAR

STARTCHAR A2E1
ENCODING 41697
SWIDTH 960 0
DWIDTH 24 0
BBX 24 24 0 -6
BITMAP
000000
000000
000060
0000E0
0000C0
000180
000380
000300
000600
000E00
000C00
001800
003800
003000
006000
00E000
00C000
018000
038000
030000
060000
060000
000000
000000
ENDCHAR

STARTCHAR A2E2
ENCODING 41698
SWIDTH 960 0
DWIDTH 24 0
BBX 24 24 0 -6
BITMAP
000000
000000
060000
070000
030000
018000
01C000
00C000
006000
006000
003000
001800
001C00
000C00
000600
000700
000300
000180
000180
0000C0
000060
000060
000000
000000
ENDCHAR

STARTCHAR A2E3
ENCODING 41699
SWIDTH 960 0
DWIDTH 24 0
BBX 24 24 0 -6
BITMAP
000000
000000
001800
001800
00FF00
01FF80
0399C0
0719E0
0718C0
03D800
01F800
00FE00
003F80
061BC0
0F18E0
0F18E0
0799E0
03FFC0
00FF00
001800
001800
000000
000000
000000
ENDCHAR

STARTCHAR A2E4
ENCODING 41700
SWIDTH 960 0
DWIDTH 24 0
BBX 24 24 0 -6
BITMAP
000000
000000
1FE1FC
1FE1FC
070030
038070
01C0E0
3FFFFC
3FFFFC
00E380
007700
003E00
3FFFFC
3FFFFC
001C00
001C00
001C00
001C00
003E00
00FF80
00FF80
000000
000000
000000
ENDCHAR

STARTCHAR A2E5
ENCODING 41701
SWIDTH 960 0
DWIDTH 24 0
BBX 24 24 0 -6
BITMAP
000000
000000
000000
3FFFFC
3FFFFC
000000
000000
000000
000000
3FFFFC
3FFFFC
001800
001800
001800
001800
001800
001800
001800
001800
001800
001800
000000
000000
000000
ENDCHAR

STARTCHAR A2E6
ENCODING 41702
SWIDTH 960 0
DWIDTH 24 0
BBX 24 24 0 -6
BITMAP
000000
000000
0000C0
0000C0
007F80
01FFE0
03C3F0
078370
0F0670
0E0620
1C0C00
1C0C00
1C1810
1C1810
0E3030
0E3070
0770E0
03E3C0
01FF80
01DE00
038000
070000
000000
000000
ENDCHAR

STARTCHAR A2E7
ENCODING 41703
SWIDTH 960 0
DWIDTH 24 0
BBX 24 24 0 -6
BITMAP
000000
000000
000780
001FE0
003870
003078
007078
006030
007000
007000
1FFFC0
1FFFC0
007000
007000
0E700C
1F700C
39F818
30FE38
39CFF0
1F83E0
0E0000
000000
000000
000000
ENDCHAR

STARTCHAR A2E8
ENCODING 41704
SWIDTH 960 0
DWIDTH 24 0
BBX 24 24 0 -6
BITMAP
000000
000000
00E000
03F038
077070
0E30E0
1C31C0
186380
38E700
39CE00
1F9C00
0E38E0
0073F0
00E718
01CE18
038C38
071C30
0E1870
1C1CE0
180FC0
000700
000000
000000
000000
ENDCHAR

STARTCHAR A2E9
ENCODING 41705
SWIDTH 960 0
DWIDTH 24 0
BBX 24 24 0 -6
BITMAP
000000
000000
003F00
01FFC0
03C0E0
070030
0E0CD8
0C3FD8
187398
18E198
18C198
198398
198318
198730
18CFE0
0CF9C8
0E6018
070030
03C1E0
00FF80
003E00
000000
000000
000000
ENDCHAR

STARTCHAR A2EA
ENCODING 41706
SWIDTH 960 0
DWIDTH 24 0
BBX 24 24 0 -6
BITMAP
000000
000000
1C0000
360000
220F8C
223FEC
36787C
1CF03C
01E01C
01C00C
03800C
038000
038000
038000
038004
01C00C
01E01C
00F038
007CF0
001FE0
000700
000000
000000
000000
ENDCHAR

STARTCHAR A2EB
ENCODING 41707
SWIDTH 960 0
DWIDTH 24 0
BBX 24 24 0 -6
BITMAP
000000
000000
1C0000
36FFF0
36FFF8
363038
36301C
1C300C
003004
0030C0
0030C0
003FC0
003FC0
0030C0
0030C0
003000
003000
003000
003000
01FE00
01FE00
000000
000000
000000
ENDCHAR

STARTCHAR A2EC
ENCODING 41708
SWIDTH 960 0
DWIDTH 24 0
BBX 24 24 0 -6
BITMAP
000000
000000
001800
001800
007E00
00FF00
01DB80
019B80
01D900
01F800
00F800
003E00
001F00
019B80
03D980
039980
01DB80
01FF00
00FE00
001800
001800
000000
000000
000000
ENDCHAR

STARTCHAR A2ED
ENCODING 41709
SWIDTH 960 0
DWIDTH 24 0
BBX 24 24 0 -6
BITMAP
000000
000000
00C180
01E180
032300
033300
033600
033600
03EC00
01CC00
001800
001800
003300
003780
006CC0
006CC0
00CCC0
00CCC0
018780
018300
000000
000000
000000
000000
ENDCHAR

STARTCHAR A2EE
ENCODING 41710
SWIDTH 960 0
DWIDTH 24 0
BBX 24 24 0 -6
BITMAP
000000
000000
001C00
007F00
00C380
018180
0180C0
031860
033D60
033760
066670
0666F0
06C6B0
06CDB0
067D60
033760
0300C0
018180
00C380
007F00
003C00
000000
000000
000000
ENDCHAR

STARTCHAR A2EF
ENCODING 41711
SWIDTH 960 0
DWIDTH 24 0
BBX 24 24 0 -6
BITMAP
000000
000000
00000C
00001C
00019C
0003CC
0003CC
00018C
00000C
1EE18C
7FF38C
73378C
33318C
33318C
33318C
33318C
33318C
33318C
33318C
7BBBDE
7BBBDE
000000
000000
000000
ENDCHAR

STARTCHAR A2F0
ENCODING 41712
SWIDTH 960 0
DWIDTH 24 0
BBX 24 24 0 -6
BITMAP
000000
000000
000000
000000
000000
000000
000000
000000
000000
1FC3F8
3FE7FC
726E4C
32664C
32664C
32664C
32664C
32664C
32664C
32664C
7FFFFE
7FFFFE
000000
000000
000000
ENDCHAR

STARTCHAR A2F1
ENCODING 41713
SWIDTH 960 0
DWIDTH 24 0
BBX 24 24 0 -6
BITMAP
000000
000000
000000
000000
000000
000000
000000
000000
000000
0F0FB8
1FBFFC
39DCCC
30CCCC
604CCC
600CCC
600CCC
604CCC
30CCCC
3DCCCC
1FBFFE
073FFE
000000
000000
000000
ENDCHAR

STARTCHAR A2F2
ENCODING 41714
SWIDTH 960 0
DWIDTH 24 0
BBX 24 24 0 -6
BITMAP
000000
000000
300000
700000
700000
300000
300000
300000
300000
30CFF8
319FFC
331CCC
3E0CCC
3C0CCC
3C0CCC
3E0CCC
360CCC
330CCC
330CCC
79BFFE
79BFFE
000000
000000
000000
ENDCHAR

STARTCHAR A2F3
ENCODING 41715
SWIDTH 960 0
DWIDTH 24 0
BBX 24 24 0 -6
BITMAP
000000
000000
799C1C
799C1C
319C1C
331E3C
331E3C
371E3C
361A2C
3E1B6C
3E1B6C
3E1B6C
361B4C
3619CC
3319CC
3319CC
3319CC
31988C
31988C
7FFC3E
7FFC3E
000000
000000
000000
ENDCHAR

STARTCHAR A2F4
ENCODING 41716
SWIDTH 960 0
DWIDTH 24 0
BBX 24 24 0 -6
BITMAP
000000
0000F8
0001FC
00030E
00038E
00011C
000038
0000E2
000186
0003FE
1F7BFC
3FFC00
79CC00
318C00
318C00
318C00
318C00
318C00
318C00
7BDE00
7BDE00
000000
000000
000000
ENDCHAR

STARTCHAR A2F5
ENCODING 41717
SWIDTH 960 0
DWIDTH 24 0
BBX 24 24 0 -6
BITMAP
000000
000000
000000
000000
000000
000000
000000
000000
000000
1EE1F4
3FF3BC
733318
333318
333398
3331F0
3330C0
3331E0
3333F8
333718
7FFE0C
7FFE0C
000718
0003F0
000000
ENDCHAR

STARTCHAR A2F6
ENCODING 41718
SWIDTH 960 0
DWIDTH 24 0
BBX 24 24 0 -6
BITMAP
000000
000000
300000
700000
700000
300000
300000
300000
300000
33E1F6
31C3BE
338318
370718
3E0718
3E03B8
3701F0
3300E0
3181F8
31C3FC
7CF70C
7CF60C
0007BC
0003F0
000000
ENDCHAR

STARTCHAR A2F7
ENCODING 41719
SWIDTH 960 0
DWIDTH 24 0
BBX 24 24 0 -6
BITMAP
000000
000000
000000
000000
000000
000000
000000
000000
000000
0FA0FA
1DE1FE
386386
302706
602602
600600
600600
703602
303702
38638E
1FC1FC
070070
000000
000000
000000
ENDCHAR

STARTCHAR A2F8
ENCODING 41720
SWIDTH 960 0
DWIDTH 24 0
BBX 24 24 0 -6
BITMAP
000000
000000
1E0000
330000
210000
210000
330000
1E0000
000000
000000
000000
000000
000000
000000
000000
000000
000000
000000
000000
000000
000000
000000
000000
000000
ENDCHAR

STARTCHAR A2F9
ENCODING 41721
SWIDTH 960 0
DWIDTH 24 0
BBX 24 24 0 -6
BITMAP
000000
000000
060180
060180
7FE180
7FE180
060180
061FF8
3FDFF8
3FC180
30C180
30C180
30C180
30C180
3FC180
3FC180
0D8180
0D8180
0D818C
19800C
19FFFC
30FFF8
600000
000000
ENDCHAR

STARTCHAR A2FA
ENCODING 41722
SWIDTH 960 0
DWIDTH 24 0
BBX 24 24 0 -6
BITMAP
000000
000000
060078
060FF0
7FEF80
7FE180
060180
060180
3FC180
3FDFFC
30DFFC
30C180
30C180
30C180
3FC180
3FC180
0D8180
0D8180
098180
19800C
31FFFC
60FFF8
000000
000000
ENDCHAR

STARTCHAR A2FB
ENCODING 41723
SWIDTH 960 0
DWIDTH 24 0
BBX 24 24 0 -6
BITMAP
000000
000000
060018
0600F8
7FEFE0
7FEF00
060318
0603F8
7FDFE0
7FFF00
606300
6063F8
607FF8
7FFF00
7FE300
79E318
198318
1983F8
1981F0
19800C
31800C
71FFFC
40FFF8
000000
ENDCHAR

STARTCHAR A2FC
ENCODING 41724
SWIDTH 960 0
DWIDTH 24 0
BBX 24 24 0 -6
BITMAP
000000
000000
060060
060060
7FE030
7FE630
060618
060C0C
3FF806
3FEFF0
306FF0
306330
306330
306330
3FE630
3FE630
0D8C30
0D99E0
0D80C0
198018
19FFF8
30FFF0
600000
000000
ENDCHAR

STARTCHAR A2FD
ENCODING 41725
SWIDTH 960 0
DWIDTH 24 0
BBX 24 24 0 -6
BITMAP
000000
030000
030000
030FFC
7FFFFC
7FF0C0
030180
0307F8
1FE7F8
1FE618
182618
1827F8
1827F8
182618
1FE618
1FE7F8
0CC7F8
0CC618
0CC00C
0CC00C
18FFFC
18FFF8
300000
000000
ENDCHAR

STARTCHAR A2FE
ENCODING 41726
SWIDTH 960 0
DWIDTH 24 0
BBX 24 24 0 -6
BITMAP
000000
000000
030FFE
030FFE
7FFC00
7FFC00
030DFC
030DFC
1FEDAC
1FEDFC
186DAC
186DFC
186DFC
1FEC20
1FEDFC
1DEDFC
0D8C20
0D9BFE
0D93FE
0D8002
198006
31FFFE
60FFFC
000000
ENDCHAR

STARTCHAR A321
ENCODING 41761
SWIDTH 960 0
DWIDTH 24 0
BBX 24 24 0 -6
BITMAP
000000
030000
060000
0FFFF8
0FFFF8
1C3000
1C3000
3C7FE0
6C7FE0
4C6060
0C7860
0C7C60
0C6E60
0C6760
0C63E0
0CC1C0
0CC0C0
0CC3C0
0CFFC6
0DFEC6
0DE0C6
0C00FE
0C00FE
000000
ENDCHAR

STARTCHAR A322
ENCODING 41762
SWIDTH 960 0
DWIDTH 24 0
BBX 24 24 0 -6
BITMAP
000000
030000
037FFE
077FFE
0600E0
0E01C0
0C01C0
1C03E0
3C07B0
3C0F98
7C1D98
6C398C
0C7186
0CE186
0CC180
0C0180
0C0180
0C0180
0C0180
0C0180
0CFFFE
0CFFFE
0C0000
000000
ENDCHAR

STARTCHAR A323
ENCODING 41763
SWIDTH 960 0
DWIDTH 24 0
BBX 24 24 0 -6
BITMAP
000000
030600
030600
070600
0607F8
0E07F8
0C0600
1C0600
380600
7BFFFE
5BFFFE
180700
180780
1806C0
180660
180630
180618
18060C
180600
180600
180600
180600
180600
000000
ENDCHAR

STARTCHAR A324
ENCODING 41764
SWIDTH 960 0
DWIDTH 24 0
BBX 24 24 0 -6
BITMAP
000000
060300
060300
0E0300
0C0300
0C3FF8
1C7FFC
1C630C
3C630C
7C630C
6C630C
0C630C
0CFFFE
0CFFFE
0C0380
0C0780
0C06C0
0C06C0
0C0EE0
0C1C70
0C7C38
0DF81E
0DE00E
000000
ENDCHAR

STARTCHAR A325
ENCODING 41765
SWIDTH 960 0
DWIDTH 24 0
BBX 24 24 0 -6
BITMAP
000000
018300
018700
038600
038FFC
071FFC
0F3E1C
1E7638
3E6778
7E03F0
7603E0
0607F8
061F3E
067F0E
067780
0603C0
0600E0
060078
06001C
060078
0603F0
061FC0
061E00
000000
ENDCHAR

STARTCHAR A326
ENCODING 41766
SWIDTH 960 0
DWIDTH 24 0
BBX 24 24 0 -6
BITMAP
000000
030300
030700
070600
060E00
0E0C60
0E1C70
1C1838
1C3BFC
3CFFFE
7CFE06
6C0000
0C0000
0C3FF0
0C7FF8
0C6018
0C6018
0C6018
0C6018
0C6018
0C6018
0C7FF8
0C3FF0
000000
ENDCHAR

STARTCHAR A327
ENCODING 41767
SWIDTH 960 0
DWIDTH 24 0
BBX 24 24 0 -6
BITMAP
000000
001800
003C00
007E00
00E700
01C3C0
03C1E0
0F80F0
1F007C
7FFFFE
73FFE6
000000
000000
7FFFFE
7FFFFE
001800
019980
0399C0
0798E0
0F18F0
1E1878
3CF83E
38F80E
000000
ENDCHAR

STARTCHAR A328
ENCODING 41768
SWIDTH 960 0
DWIDTH 24 0
BBX 24 24 0 -6
BITMAP
000000
030180
030180
070180
060180
0EFFFE
1CFFFE
3C0180
7C0380
6C0700
4C0E18
0C7C38
0C7870
0C3CE0
0C1FE0
0C07C0
0C03A0
0C07B0
0C0718
0C0E3C
0C1FFE
0CFFE6
0CF802
000000
ENDCHAR

STARTCHAR A329
ENCODING 41769
SWIDTH 960 0
DWIDTH 24 0
BBX 24 24 0 -6
BITMAP
000000
036618
036618
076618
066618
0E6618
1C6618
1C6618
3FFFFE
7FFFFE
6C6618
4C6618
0C6618
0C6618
0C6618
0C6618
0C67F8
0C63F0
0C6000
0C6000
0C6000
0C7FFE
0C3FFE
000000
ENDCHAR

STARTCHAR A32A
ENCODING 41770
SWIDTH 960 0
DWIDTH 24 0
BBX 24 24 0 -6
BITMAP
000000
030000
033FF0
073FF8
073018
0E3018
0E3018
1C3018
3C3018
3C3018
7C3FF8
6C3FF8
0C0000
0C0C60
0C0C60
0C1C60
0C1870
0C3830
0C3038
0C7018
0C601C
0CE00E
0CC006
000000
ENDCHAR

STARTCHAR A32B
ENCODING 41771
SWIDTH 960 0
DWIDTH 24 0
BBX 24 24 0 -6
BITMAP
000000
018300
018780
038FC0
031CE0
073870
0E7038
0EE01E
1FC00E
3C0300
7C0300
6C0300
0C0300
0C0300
0CC306
0CC306
0CC306
0CC306
0CC306
0CC306
0CFFFE
0C7FFC
0C0000
000000
ENDCHAR

STARTCHAR A32C
ENCODING 41772
SWIDTH 960 0
DWIDTH 24 0
BBX 24 24 0 -6
BITMAP
000000
000000
0FFFF8
1FFFFC
186C0C
186C0C
18EC0C
1FCFEC
1F07EC
18000C
19FF0C
19FF8C
19818C
19818C
19818C
19818C
19FF8C
19FF8C
18000C
18000C
1800FC
1800F8
180000
000000
ENDCHAR

STARTCHAR A32D
ENCODING 41773
SWIDTH 960 0
DWIDTH 24 0
BBX 24 24 0 -6
BITMAP
000000
000CC0
000CE0
300C70
380C30
1C0C00
0E7FFC
067FFC
018C00
018C30
030C30
030E30
071E70
0E1E60
0C1F60
1C3BE0
383BC0
7071C0
60E3E0
01C7F0
038E78
071C1C
0E700C
000000
ENDCHAR

STARTCHAR A32E
ENCODING 41774
SWIDTH 960 0
DWIDTH 24 0
BBX 24 24 0 -6
BITMAP
000000
06C00C
06C00C
06C0CC
7FF8CC
7FFCCC
06CCCC
06CCCC
06CCCC
3FFCCC
3FF8CC
76C0CC
66C0CC
7FF8CC
7FFCCC
06CCCC
06CCCC
0ECCCC
0CCCCC
1CFCCC
18F80C
38C07C
70C078
000000
ENDCHAR

STARTCHAR A32F
ENCODING 41775
SWIDTH 960 0
DWIDTH 24 0
BBX 24 24 0 -6
BITMAP
000000
00000C
0FF00C
0FF0CC
0C30CC
0C30CC
0C30CC
0FF0CC
0FF0CC
0C30CC
0C30CC
0C30CC
0FF0CC
0FF0CC
0C30CC
0C30CC
0C30CC
0C30CC
0C3ECC
0FFECC
7FF00C
7C007C
000078
000000
ENDCHAR

STARTCHAR A330
ENCODING 41776
SWIDTH 960 0
DWIDTH 24 0
BBX 24 24 0 -6
BITMAP
000000
00000C
1FF80C
3FFC6C
300C6C
300C6C
3FFC6C
3FF86C
30C06C
30C06C
30C06C
3FFF6C
3FFF6C
30C06C
30C06C
30606C
30606C
30736C
31F36C
3FFB6C
3F1F0C
780E1C
60061C
000000
ENDCHAR

STARTCHAR A331
ENCODING 41777
SWIDTH 960 0
DWIDTH 24 0
BBX 24 24 0 -6
BITMAP
000000
000060
7FE060
7FF060
063060
063060
063060
0E37FE
0C37FE
1DF066
78E066
7000C6
0000C6
1FE0C6
3FF1C6
303186
303186
303386
303306
30370E
3036FC
3FFEF8
1FEC00
000000
ENDCHAR

STARTCHAR A332
ENCODING 41778
SWIDTH 960 0
DWIDTH 24 0
BBX 24 24 0 -6
BITMAP
000000
0300C0
0300C0
1B00C0
1B00C0
1B00C0
1B0FF8
3FFFFC
3FF0CC
3300CC
7300CC
7FF8CC
7FF8CC
0300CC
0380CC
0381CC
03C1CC
07C38C
0FE79C
0EFF3C
3C7DF8
7839F0
600000
000000
ENDCHAR

STARTCHAR A333
ENCODING 41779
SWIDTH 960 0
DWIDTH 24 0
BBX 24 24 0 -6
BITMAP
000000
018000
018000
038000
07FFF0
07FFF8
0E0018
1FFF98
3BFF98
703018
603018
0E3198
073198
03B398
01B718
003018
0FFFD8
0FFFD8
003018
003018
003018
0033F8
0003F0
000000
ENDCHAR

STARTCHAR A334
ENCODING 41780
SWIDTH 960 0
DWIDTH 24 0
BBX 24 24 0 -6
BITMAP
000000
001800
001800
001FFC
001FFC
001800
1FFFF0
1FFFF8
180018
180018
1BFF98
1BFFD8
1800D8
1800D8
1800D8
1800D8
1800D8
1BFFD8
1BFF98
180018
180018
1FFFF8
0FFFF0
000000
ENDCHAR

STARTCHAR A335
ENCODING 41781
SWIDTH 960 0
DWIDTH 24 0
BBX 24 24 0 -6
BITMAP
000000
3FFDFC
3FFDFE
018D86
018D86
038D86
038D86
071D86
0E1986
1FF986
7DF186
700186
000186
0FF986
1FFD86
180D86
180D86
180D86
180DBE
180DBC
1FFD80
0FF980
000180
000000
ENDCHAR

STARTCHAR A336
ENCODING 41782
SWIDTH 960 0
DWIDTH 24 0
BBX 24 24 0 -6
BITMAP
000000
000000
0FFFFC
1FFFFC
180000
1800F0
18FFF0
18FF00
18C600
18C600
18C300
18FFFE
18FFFE
18C300
18C180
38C380
30CEC0
30FC62
67F036
67C03E
60001C
007FC0
007FC0
000000
ENDCHAR

STARTCHAR A337
ENCODING 41783
SWIDTH 960 0
DWIDTH 24 0
BBX 24 24 0 -6
BITMAP
000000
000000
0FFFFE
1FFFFE
181800
183000
183000
187FF0
187FF0
18F800
19D800
1B9FF0
1B1FF0
181800
181800
181FF8
181FF8
381800
301800
301800
201800
601800
401800
000000
ENDCHAR

STARTCHAR A338
ENCODING 41784
SWIDTH 960 0
DWIDTH 24 0
BBX 24 24 0 -6
BITMAP
000000
000300
000300
000300
7E0300
7F0300
637FFE
637FFE
630360
630660
630660
6306E0
630CC0
630DC0
630DB0
6319B0
631B98
7F3318
3E330C
00661C
00C7FE
019FF6
031E06
000000
ENDCHAR

STARTCHAR A339
ENCODING 41785
SWIDTH 960 0
DWIDTH 24 0
BBX 24 24 0 -6
BITMAP
000000
000300
000300
000300
000300
3E0300
7F7FF0
637FF8
630318
630318
630318
630318
63FFFE
63FFFE
630300
630700
630780
7F0F80
3E0CC0
001860
003830
00F01C
03C006
000000
ENDCHAR

STARTCHAR A33A
ENCODING 41786
SWIDTH 960 0
DWIDTH 24 0
BBX 24 24 0 -6
BITMAP
000000
000CC0
000CC0
001CC0
7C18C0
7E38C0
6638C0
6670CE
6670FE
6670F0
66F0C0
66F0C0
67F0C0
67B0C0
6630C0
6630C0
6630C0
7E30C6
3C30C6
0030C6
0030C6
0030FE
00307E
000000
ENDCHAR

STARTCHAR A33B
ENCODING 41787
SWIDTH 960 0
DWIDTH 24 0
BBX 24 24 0 -6
BITMAP
000000
000300
000300
000300
3E0300
7F0300
630300
630300
63FFFE
63FFFE
630300
6303C0
6307C0
6307C0
6306C0
630EE0
630C60
7F1E70
3E3F30
0073B8
00E1DE
01C006
078000
000000
ENDCHAR

STARTCHAR A33C
ENCODING 41788
SWIDTH 960 0
DWIDTH 24 0
BBX 24 24 0 -6
BITMAP
000000
0000C0
0000C0
0000C0
0000C0
0000C0
3E7FFE
7F7FFE
630C18
630C18
630C18
630C18
630E18
630638
630730
6303F0
6303E0
6301E0
7F01E0
3E03F0
0007B8
001E1C
00780E
000000
ENDCHAR

STARTCHAR A33D
ENCODING 41789
SWIDTH 960 0
DWIDTH 24 0
BBX 24 24 0 -6
BITMAP
000000
000600
000600
000600
000600
3EC60C
7FE61C
63763C
637678
633EF0
631FE0
6307C0
630700
630700
630F80
630D80
7F0DC0
7F1DE0
003CF0
003878
00F01C
01E00C
018000
000000
ENDCHAR

STARTCHAR A33E
ENCODING 41790
SWIDTH 960 0
DWIDTH 24 0
BBX 24 24 0 -6
BITMAP
000000
000000
007FF0
007FF8
3F0318
7F8318
618318
618318
618318
618318
61FFFE
61FFFE
618618
618618
618618
618618
618618
618618
7F8618
3F0618
000618
00FFFE
00FFFE
000000
ENDCHAR

STARTCHAR A33F
ENCODING 41791
SWIDTH 960 0
DWIDTH 24 0
BBX 24 24 0 -6
BITMAP
000000
01FFFE
01FFFE
3E00C0
7F01C0
630380
630380
630780
630FC0
630FE0
631F70
637B38
63FB1C
63E30E
630306
7F0300
3E0300
000300
000300
000300
000300
000300
000300
000000
ENDCHAR

STARTCHAR A340
ENCODING 41792
SWIDTH 960 0
DWIDTH 24 0
BBX 24 24 0 -6
BITMAP
000000
000600
000600
000C00
000C00
7E1FFE
7F1FFE
6338C0
6330C0
6360C0
6340C0
6300C0
637FFE
637FFE
6300C0
6300C0
6300C0
7F00C0
3E00C0
0000C0
0000C0
0000C0
0000C0
000000
ENDCHAR

STARTCHAR A341
ENCODING 41793
SWIDTH 960 0
DWIDTH 24 0
BBX 24 24 0 -6
BITMAP
000000
000300
003300
003300
003300
3C7300
7E7FFC
66FFFC
67C300
678300
660300
660300
660300
660300
67FFFE
7FFFFE
3C0300
000300
000300
000300
000300
000300
000300
000000
ENDCHAR

STARTCHAR A342
ENCODING 41794
SWIDTH 960 0
DWIDTH 24 0
BBX 24 24 0 -6
BITMAP
000000
0006C0
000EC0
003CC0
7EFCC0
7FECC0
630CC0
630CC0
630CC0
63FFFC
63FFFC
630CC0
630CC0
630CC0
630CC0
631CC0
7F18C0
7E18C0
0018C0
0038C0
0070C0
00E0C0
0380C0
000000
ENDCHAR

STARTCHAR A343
ENCODING 41795
SWIDTH 960 0
DWIDTH 24 0
BBX 24 24 0 -6
BITMAP
000000
000C00
000C00
000C00
7E1C00
7F1C00
631FF8
633FFC
63380C
63700C
63E00C
63DFCC
639FCC
63000C
633FCC
7F3FCC
7E000C
00000C
00001C
000018
000038
0001F8
0001F0
000000
ENDCHAR

STARTCHAR A344
ENCODING 41796
SWIDTH 960 0
DWIDTH 24 0
BBX 24 24 0 -6
BITMAP
000000
000180
000180
7E018C
7F01FC
637FF0
637F80
63318C
63318C
63318C
63318C
63318C
63318C
63318C
633FFC
7F1FF8
3E0180
000180
000186
000186
000186
0001FE
0000FC
000000
ENDCHAR

STARTCHAR A345
ENCODING 41797
SWIDTH 960 0
DWIDTH 24 0
BBX 24 24 0 -6
BITMAP
000000
000300
000300
000780
7E07C0
7F0EE0
630CF0
631CF8
633CDC
637CCE
63ECC6
63CCC0
638CC0
630CC0
630CC0
7F0CC0
7E0CC0
001CC0
0018C0
0018C0
0030C0
0060C0
01C0C0
000000
ENDCHAR

STARTCHAR A346
ENCODING 41798
SWIDTH 960 0
DWIDTH 24 0
BBX 24 24 0 -6
BITMAP
000000
001800
001818
001838
3FD870
3FD8E0
00DBC0
00DB80
0199C0
0398E0
071870
0E7838
3C001C
03FFE0
07FFF0
060030
060030
060030
060030
060030
07FFF0
03FFE0
000000
000000
ENDCHAR

STARTCHAR A347
ENCODING 41799
SWIDTH 960 0
DWIDTH 24 0
BBX 24 24 0 -6
BITMAP
000000
1FFFF8
3FFFFC
30000C
306C0C
306C0C
30EC0C
30EC6C
31CCEC
33CDCC
378F8C
3F8F0C
3DBE0C
31BC0C
318C6C
318C6C
318C6C
318FEC
318FEC
31800C
3FFFFC
1FFFF8
000000
000000
ENDCHAR

STARTCHAR A348
ENCODING 41800
SWIDTH 960 0
DWIDTH 24 0
BBX 24 24 0 -6
BITMAP
000000
7FFFF8
7FFFFC
60660C
60E60C
61C63C
63C7FC
6F87FC
6E000C
60000C
60FE0C
61FF0C
61830C
61830C
61830C
61830C
61830C
61830C
61830C
61830C
61830C
7FFFFC
3FFFF8
000000
ENDCHAR

STARTCHAR A349
ENCODING 41801
SWIDTH 960 0
DWIDTH 24 0
BBX 24 24 0 -6
BITMAP
000000
7FFFF8
7FFFFC
60300C
60300C
60300C
67FFEC
67FFEC
60000C
607C0C
60FE0C
60C60C
60C60C
60C60C
60C60C
60C60C
61C66C
61866C
6307EC
6603CC
60000C
7FFFFC
3FFFF8
000000
ENDCHAR

STARTCHAR A34A
ENCODING 41802
SWIDTH 960 0
DWIDTH 24 0
BBX 24 24 0 -6
BITMAP
000000
060000
06001C
060FFC
060FF0
060CC0
060CC0
7FCCC0
7FCCC0
060CC0
060FFE
060FFE
060C60
060C60
060C60
060C60
06CC60
07CCE0
1F8FF6
7E3FF6
70383E
00001E
00000C
000000
ENDCHAR

STARTCHAR A34B
ENCODING 41803
SWIDTH 960 0
DWIDTH 24 0
BBX 24 24 0 -6
BITMAP
000000
0600C0
0601E0
0603E0
0607F0
060F70
061E38
063C3E
06380E
7FCFF8
7FCFF8
060000
060000
063FFC
063FFC
06000C
07C00C
07C01C
1F003C
7C0078
7001F0
0003E0
000300
000000
ENDCHAR

STARTCHAR A34C
ENCODING 41804
SWIDTH 960 0
DWIDTH 24 0
BBX 24 24 0 -6
BITMAP
000000
07FF80
07FFC0
01C0C0
038060
0FFFF0
7FFFF8
7C619E
00E180
01C380
07BF00
3F3F00
3C1E00
001800
001800
001800
1FFFF8
1FFFF8
001800
001800
001800
7FFFFE
7FFFFE
000000
ENDCHAR

STARTCHAR A34D
ENCODING 41805
SWIDTH 960 0
DWIDTH 24 0
BBX 24 24 0 -6
BITMAP
000000
000300
0C0300
0C0300
0C0300
0CFFFC
0CFFFC
7FC300
7FF318
0C3318
0C3318
0C3318
0C3318
0C3318
0DBFF8
0F9FF0
1F0300
7C0300
700300
000306
000386
0003FE
0001FC
000000
ENDCHAR

STARTCHAR A34E
ENCODING 41806
SWIDTH 960 0
DWIDTH 24 0
BBX 24 24 0 -6
BITMAP
000000
0C03F0
0C07F0
0C0630
0C0638
0C0618
0C0E18
7FDC0C
7FF80E
0C3006
0C1FF8
0C1FFC
0C018C
0C018C
0C018C
0C018C
0DC38C
0FC30C
1F070C
7C060C
700EEC
001CFC
003838
000000
ENDCHAR

STARTCHAR A34F
ENCODING 41807
SWIDTH 960 0
DWIDTH 24 0
BBX 24 24 0 -6
BITMAP
000000
060600
060600
060600
060600
06061C
07F7FC
07F7F0
060600
060600
060606
067E06
7FFFFE
7FDFFE
001800
001800
1FFFF8
1FFFF8
001800
001800
001800
7FFFFE
7FFFFE
000000
ENDCHAR

STARTCHAR A350
ENCODING 41808
SWIDTH 960 0
DWIDTH 24 0
BBX 24 24 0 -6
BITMAP
000000
006000
00C000
01FF80
03FF80
07C180
0EC300
1C6600
003C00
01FF00
1FDBF8
1E18F8
07FFE0
07FFE0
001800
001800
07FFC0
07FFC0
001800
1FFFF8
1FFFF8
001800
001800
000000
ENDCHAR

STARTCHAR A351
ENCODING 41809
SWIDTH 960 0
DWIDTH 24 0
BBX 24 24 0 -6
BITMAP
000000
7FFFFC
7FFFFC
000E00
001E00
003F00
01FBC0
07F9FE
3F18FE
3C1800
001800
001800
001800
001800
7FFFFE
7FFFFE
003C00
007E00
00EF00
01C7C0
03C1F0
3F807E
3E003E
000000
ENDCHAR

STARTCHAR A352
ENCODING 41810
SWIDTH 960 0
DWIDTH 24 0
BBX 24 24 0 -6
BITMAP
000000
060180
060198
0601B8
0C01F0
0C7FE0
7FFF80
7FC180
18C180
18C180
18FFFC
30FFFC
30C180
318180
718180
798180
1FFFFE
07FFFE
030180
078180
0CC180
180180
700180
000000
ENDCHAR

STARTCHAR A353
ENCODING 41811
SWIDTH 960 0
DWIDTH 24 0
BBX 24 24 0 -6
BITMAP
000000
060000
063FFE
0E3FFE
0C0000
0C0000
0C0000
7FC000
7FC000
18FFFE
39FFFE
318300
318300
338330
738630
7F0618
7F0618
07861C
07CC0C
0ECC7C
1C0FFE
383FC6
703C06
000000
ENDCHAR

STARTCHAR A354
ENCODING 41812
SWIDTH 960 0
DWIDTH 24 0
BBX 24 24 0 -6
BITMAP
000000
061F80
061FC0
0600C0
0C00C0
0C1FFC
0C3FFE
7FB0C6
7FB0C6
19B1C6
19B1E6
19B1E6
31B3F6
31B3F6
71B73E
7DBE1E
7F3C06
073006
07B006
0FF006
1CF006
78303E
70303C
000000
ENDCHAR

STARTCHAR A355
ENCODING 41813
SWIDTH 960 0
DWIDTH 24 0
BBX 24 24 0 -6
BITMAP
000000
060180
0603C0
0E03C0
0C0760
0C0E30
7F9C18
7FB80C
19F006
19FFF2
39DFF0
318000
31BFFE
71BFFE
738006
3F0006
1F000C
070018
078030
07C060
0E60C0
180380
700700
000000
ENDCHAR

STARTCHAR A356
ENCODING 41814
SWIDTH 960 0
DWIDTH 24 0
BBX 24 24 0 -6
BITMAP
000000
030180
0301C0
0303C0
0603E0
060770
060678
7FCE7C
7FDE6E
0CFE66
18F660
18E660
38C660
31C660
318660
718660
7B8660
1F0660
0F0E60
0F8C60
1CDC60
381860
703060
000000
ENDCHAR

STARTCHAR A357
ENCODING 41815
SWIDTH 960 0
DWIDTH 24 0
BBX 24 24 0 -6
BITMAP
000000
0301F0
0307F0
070630
060630
0E0638
0C0E38
7FCC1C
7FDC0E
18F806
18FFF8
38DFFC
30C18C
71818C
7F818C
1F018C
07818C
03C18C
07E18C
0E630C
1C070C
781E7C
701C7C
000000
ENDCHAR

STARTCHAR A358
ENCODING 41816
SWIDTH 960 0
DWIDTH 24 0
BBX 24 24 0 -6
BITMAP
000000
0C1FF0
0C1FF0
0C0030
1C0C30
180C38
180C38
7F9C18
7F9C1C
19BB0C
31F30E
31E706
318600
738600
630600
7B0E60
7F0C70
1F0C38
0F9C78
1F9FFC
3DFFDE
78780E
700006
000000
ENDCHAR

STARTCHAR A359
ENCODING 41817
SWIDTH 960 0
DWIDTH 24 0
BBX 24 24 0 -6
BITMAP
000000
0600C0
0600C0
0600C0
0E00C0
0C00C0
7FFFFE
7FFFFE
1C6C18
186C18
186E18
18E618
38E618
30C318
3DC338
1F8338
0781F0
03C1E0
07E0E0
0E71F0
1C07B8
781E1E
707806
000000
ENDCHAR

STARTCHAR A35A
ENCODING 41818
SWIDTH 960 0
DWIDTH 24 0
BBX 24 24 0 -6
BITMAP
000000
060000
063FF8
0E3FF8
0C0000
0C0000
0C0000
7FC000
7FFFFE
18FFFE
38C660
30C660
30C660
31C660
718660
7F8660
7F8660
07CE60
0FDE66
0EFC66
1C787E
38F07E
30E000
000000
ENDCHAR

STARTCHAR A35B
ENCODING 41819
SWIDTH 960 0
DWIDTH 24 0
BBX 24 24 0 -6
BITMAP
000000
060000
06001C
0E1FFC
0C1FF0
0C1800
0C1800
7FD800
7FD800
18DFFE
18DFFE
38D830
30D830
30D830
31D830
719830
7F9830
7F9830
079830
0FD830
1CF830
387030
706030
000000
ENDCHAR

STARTCHAR A35C
ENCODING 41820
SWIDTH 960 0
DWIDTH 24 0
BBX 24 24 0 -6
BITMAP
000000
001800
001800
001800
3FFFF8
3FFFFC
30000C
3007EC
37FFEC
37FC0C
30180C
001800
0FFFF8
0FFFF8
001800
003C00
003C00
007E00
00E700
01C3C0
0381F0
1F007C
1E001C
000000
ENDCHAR

STARTCHAR A35D
ENCODING 41821
SWIDTH 960 0
DWIDTH 24 0
BBX 24 24 0 -6
BITMAP
000000
001800
001800
001800
001800
3FFFFC
7FFFFE
600006
600386
67FF86
07FC00
003000
003FE0
0FFFE0
0FF000
003000
003FF8
1FFFF8
1FF000
003018
003018
003FF8
001FF0
000000
ENDCHAR

STARTCHAR A35E
ENCODING 41822
SWIDTH 960 0
DWIDTH 24 0
BBX 24 24 0 -6
BITMAP
000000
030180
0300C0
030060
030030
7FFFFE
7FFFFE
030038
030070
0301E0
079FC4
079F1C
078078
0783E0
06DFC4
06DE0C
0EC018
0CC070
0CC1E6
1CC786
18C006
78FFFE
707FFC
000000
ENDCHAR

STARTCHAR A35F
ENCODING 41823
SWIDTH 960 0
DWIDTH 24 0
BBX 24 24 0 -6
BITMAP
000000
060000
060000
061FF8
7FFFF8
7FE180
060180
06C180
06C180
06C180
06DFF0
06DFF0
06C180
06C180
06C180
06C180
06C180
0EC186
0CDFF6
1CDFF6
38C006
70FFFE
607FFC
000000
ENDCHAR

STARTCHAR A360
ENCODING 41824
SWIDTH 960 0
DWIDTH 24 0
BBX 24 24 0 -6
BITMAP
000000
0C0000
0C7FFE
0C7FFE
0C0618
0C0618
6CC618
6CC618
6CC618
6CFFFE
6CFFFE
6CC618
6CC618
6CC618
6CC618
6CC618
6CC618
6CCE18
7FCC18
3F9C18
003818
007018
00E018
000000
ENDCHAR

STARTCHAR A361
ENCODING 41825
SWIDTH 960 0
DWIDTH 24 0
BBX 24 24 0 -6
BITMAP
000000
0C0000
0C1FF8
0C1FF8
0C0000
0C0000
6CC000
6CC000
6CFFFE
6CFFFE
6CC180
6CC180
6CC180
6CC180
6CC380
6CC3C0
6CC7C0
6CC6C6
6CCEC6
7FDCC6
3FF8FE
0070FE
000000
000000
ENDCHAR

STARTCHAR A362
ENCODING 41826
SWIDTH 960 0
DWIDTH 24 0
BBX 24 24 0 -6
BITMAP
000000
0C0000
0C3FFC
0C3FFC
0C1860
0CD860
6CD860
6CD860
6CFFFE
6CFFFE
6CC060
6CC060
6CC0E0
6CC0E0
6CC1E0
6CC3E0
6CC760
6CCE60
7FFC60
3FF860
006060
0003E0
0003C0
000000
ENDCHAR

STARTCHAR A363
ENCODING 41827
SWIDTH 960 0
DWIDTH 24 0
BBX 24 24 0 -6
BITMAP
000000
0C0000
0C7FFC
0C7FFC
0C0618
0C0638
6D8670
6D8660
6D86FE
6D86FE
6D8706
6D870E
6D870C
6D8F8C
6D8D9C
6D9D98
6D99F8
7FB0F0
3F30F0
0061F8
01C39C
00070E
001E06
000000
ENDCHAR

STARTCHAR A364
ENCODING 41828
SWIDTH 960 0
DWIDTH 24 0
BBX 24 24 0 -6
BITMAP
000000
000600
000600
0C0C00
0C0C00
0C1800
6D9FF8
6DBFFC
6DBE6C
6DB66C
6DFEEC
6DECCC
6D8CCC
6D8CCC
6D9DCC
6D998C
7FBB8C
3F730C
00E70C
00C61C
000E3C
001DF8
0039F0
000000
ENDCHAR

STARTCHAR A365
ENCODING 41829
SWIDTH 960 0
DWIDTH 24 0
BBX 24 24 0 -6
BITMAP
000000
0C00C0
0C00C0
0C01E0
6D8360
6D8630
6D8C18
6D980C
6DB006
6DEFFA
6D8FF8
6D8000
6D8000
6DBFFC
6DBFFC
6D800C
6D801C
6D8018
6D8038
6D8070
7F80E0
3F01C0
000380
000000
ENDCHAR

STARTCHAR A366
ENCODING 41830
SWIDTH 960 0
DWIDTH 24 0
BBX 24 24 0 -6
BITMAP
000000
1FFFC0
3FFFE0
306060
306060
306060
3FFFE0
3FFFC0
300018
300018
300018
300018
3FFFF8
1FFFF0
000000
183000
183060
183060
183060
183060
183060
1FFFE0
0FFFC0
000000
ENDCHAR

STARTCHAR A367
ENCODING 41831
SWIDTH 960 0
DWIDTH 24 0
BBX 24 24 0 -6
BITMAP
000000
000030
0C01F0
0C7FC0
0C7F00
0C0300
6D8300
6D8300
6D8300
6DFFFC
6DFFFC
6D8300
6D8300
6D8780
6D8780
6D87C0
7F86C0
3F0E60
001C70
003838
00E01C
01C00C
000000
000000
ENDCHAR

STARTCHAR A368
ENCODING 41832
SWIDTH 960 0
DWIDTH 24 0
BBX 24 24 0 -6
BITMAP
000000
0C000C
0C1FFC
0C1FF8
6D9800
6D9800
6D9800
6D9800
6D9FFE
6D9FFE
6D9860
6D9860
6D9860
6D9860
6D9860
6D9860
6DB860
6DB060
7FB060
3F7060
006060
006060
00C060
000000
ENDCHAR

STARTCHAR A369
ENCODING 41833
SWIDTH 960 0
DWIDTH 24 0
BBX 24 24 0 -6
BITMAP
000000
001800
181818
181818
181818
181818
1FFFF8
0FFFF0
003800
007C00
01EF00
03C780
0FC6E0
7EC67C
7CC63C
00C600
00C600
00C600
01C600
018600
038600
070600
1E0600
000000
ENDCHAR

STARTCHAR A36A
ENCODING 41834
SWIDTH 960 0
DWIDTH 24 0
BBX 24 24 0 -6
BITMAP
000000
0FFFF8
0FFFF8
018C60
0318C0
0330C0
066180
0C6300
0C3180
0618C0
030C60
018630
1FFFF8
1FFFF8
001800
001800
001800
001800
001800
001800
001800
7FFFFE
7FFFFE
000000
ENDCHAR

STARTCHAR A36B
ENCODING 41835
SWIDTH 960 0
DWIDTH 24 0
BBX 24 24 0 -6
BITMAP
000000
0C0000
0C0000
0C0000
0C3FF8
7FBFFC
7FB30C
6DB30C
6DB30C
6DB30C
6DB30C
6DBFFC
6DBFF8
6DB000
6DB000
6DB000
6FB000
6F3000
0C3006
0C3006
0C3006
0C3FFE
0C1FFC
000000
ENDCHAR

STARTCHAR A36C
ENCODING 41836
SWIDTH 960 0
DWIDTH 24 0
BBX 24 24 0 -6
BITMAP
000000
0C0180
0C0180
0C0180
0C0180
3FDFF8
7FDFFC
6CD98C
6CD98C
6CD98C
6CC180
6CC180
6CC380
6CC380
6CC780
6CC780
6FCF80
6F8D80
6C1986
0C3186
0C61FE
0CC0FC
0C0000
000000
ENDCHAR

STARTCHAR A36D
ENCODING 41837
SWIDTH 960 0
DWIDTH 24 0
BBX 24 24 0 -6
BITMAP
000000
000C00
000C00
0FFFFE
1FFFFE
180C00
180C00
180C00
1BFFF0
1BFFF0
180C00
180C00
180C00
19FFE0
19FFE0
186060
1830C0
3839C0
301F80
300F00
707FC0
63FDF8
63C078
000000
ENDCHAR

STARTCHAR A36E
ENCODING 41838
SWIDTH 960 0
DWIDTH 24 0
BBX 24 24 0 -6
BITMAP
000000
001800
001800
1FFFFE
3FFFFE
300C00
300C00
300C18
300CF8
37FFF0
37FF98
330C18
330C18
330C18
330C18
330C18
33FFF8
31FFF8
300C00
300C06
700C06
600FFE
6007FC
000000
ENDCHAR

STARTCHAR A36F
ENCODING 41839
SWIDTH 960 0
DWIDTH 24 0
BBX 24 24 0 -6
BITMAP
000000
000C00
000C00
000C00
0FFFFE
1FFFFE
180000
1BFFFE
1BFFFE
18C060
18C060
18C060
1FFFFE
1FFFFE
1801E0
180360
180660
181C60
387860
31E060
3783E0
7003C0
600000
000000
ENDCHAR

STARTCHAR A370
ENCODING 41840
SWIDTH 960 0
DWIDTH 24 0
BBX 24 24 0 -6
BITMAP
000000
000C00
000C00
000C00
0FFFFE
1FFFFE
180F00
181F80
181980
1839C0
1870E0
18E070
19FFFC
1BFFDC
1B0000
18FFF8
18FFF8
180038
380070
3000F0
3001E0
6007C0
600700
000000
ENDCHAR

STARTCHAR A371
ENCODING 41841
SWIDTH 960 0
DWIDTH 24 0
BBX 24 24 0 -6
BITMAP
000000
001800
001800
0FFFFE
1FFFFE
180000
1803C0
18FFC0
18FC00
18C000
18FFF0
18FFF0
18C300
18C300
18C300
18C300
19C300
198300
318300
338300
370300
7E0300
6C0300
000000
ENDCHAR

STARTCHAR A372
ENCODING 41842
SWIDTH 960 0
DWIDTH 24 0
BBX 24 24 0 -6
BITMAP
000000
007F80
00FFC0
01C0E0
038070
0F0038
3FFFEC
3FFFE6
001830
003830
007070
00E060
01CFE0
03CFC0
00C180
00C180
7FFFFE
7FFFFE
00C180
01C180
018180
038180
070180
000000
ENDCHAR

STARTCHAR A373
ENCODING 41843
SWIDTH 960 0
DWIDTH 24 0
BBX 24 24 0 -6
BITMAP
000000
7F0000
7F8000
01BFF8
01BFFC
01B18C
3FB18C
7F318C
60318C
60318C
603FFC
7FBFF8
3FB000
01B000
01B000
01B000
01B000
01B006
01B006
033006
633FFE
7F1FFE
3E0000
000000
ENDCHAR

STARTCHAR A374
ENCODING 41844
SWIDTH 960 0
DWIDTH 24 0
BBX 24 24 0 -6
BITMAP
000000
018000
0307E0
0607E0
0C0660
180660
30C630
61CE30
038ED8
071CCC
0E3986
1C7982
3C6300
6C0300
4C0600
0C0620
0C0C30
0C1C18
0C180C
0C38FE
0C7FFE
0C7F82
0C0000
000000
ENDCHAR

STARTCHAR A375
ENCODING 41845
SWIDTH 960 0
DWIDTH 24 0
BBX 24 24 0 -6
BITMAP
000000
060000
0E0000
1C7FFC
3B7FFC
730C18
670C38
0E0C70
1E0C60
7C0CFE
7C0CFE
0C0E06
0C0E0E
0C1E0C
0C1F1C
0C3B18
0C31B8
0C71F0
0C60E0
0CE0F0
0DC3F8
0D9F9C
0C1E0E
000000
ENDCHAR

STARTCHAR A376
ENCODING 41846
SWIDTH 960 0
DWIDTH 24 0
BBX 24 24 0 -6
BITMAP
000000
0006C0
0006E0
000670
000638
000600
7FFFFE
7FFFFE
000300
000300
00C300
06C300
06DB00
36DB00
366980
366D80
366CC0
7604C0
660060
663066
063036
07F03E
03E01C
000000
ENDCHAR

STARTCHAR A377
ENCODING 41847
SWIDTH 960 0
DWIDTH 24 0
BBX 24 24 0 -6
BITMAP
000000
7FFFFC
7FFFFC
003C00
003E00
003700
003380
0031C0
0030E0
003000
003000
003000
003000
0DB000
0DB000
0D8C60
0D8E70
1D8738
1983DC
3981CE
3180C6
71FFC0
60FF80
000000
ENDCHAR

STARTCHAR A378
ENCODING 41848
SWIDTH 960 0
DWIDTH 24 0
BBX 24 24 0 -6
BITMAP
000000
003000
003000
003000
003000
003FF0
003FF0
003000
003000
003000
7FFFFE
7FFFFE
000000
01B000
01B800
0D9C60
0D8E70
0D8738
1D831C
19816E
3980E6
71FFC2
60FF80
000000
ENDCHAR

STARTCHAR A379
ENCODING 41849
SWIDTH 960 0
DWIDTH 24 0
BBX 24 24 0 -6
BITMAP
000000
0C0000
0C0C00
0C0E00
0C0700
6F0380
6F81C0
6D80E0
6DFFFE
6CFFFE
6CC300
6C0300
6C0380
6C03C0
0C0360
0C0330
0C0318
0C030C
0C0306
0C0300
0C0300
0C0300
0C0300
000000
ENDCHAR

STARTCHAR A37A
ENCODING 41850
SWIDTH 960 0
DWIDTH 24 0
BBX 24 24 0 -6
BITMAP
000000
0C0000
0C0000
0C7FFC
0C7FFC
6C0000
6F0000
6F0000
6FFFFE
6DFFFE
6D86C0
6D86C0
6C06C0
0C06C0
0C06C0
0C0CC0
0C0CC0
0C1CC0
0C18C6
0C38C6
0C70FE
0CE07C
0DC000
000000
ENDCHAR

STARTCHAR A37B
ENCODING 41851
SWIDTH 960 0
DWIDTH 24 0
BBX 24 24 0 -6
BITMAP
000000
0C0180
0C0180
0C0180
0C7FFE
0F7FFE
6F0180
6F0180
6D8180
6DBFFC
6DBFFC
6D980C
6C180C
0C0C1C
0C0C18
0C0E38
0C0670
0C07E0
0C03E0
0C0770
0C1E38
0C781C
0C700E
000000
ENDCHAR

STARTCHAR A37C
ENCODING 41852
SWIDTH 960 0
DWIDTH 24 0
BBX 24 24 0 -6
BITMAP
000000
0C00C0
0C00C0
0C00C6
0C00FE
0F1FF8
6F1FC0
6F00C0
6D98CC
6D98CC
6C18CC
6C18CC
6C18CC
0C18CC
0C1FFC
0C0FF8
0C00C0
0C00C0
0C00C0
0C00C6
0C00C6
0C00FE
0C007C
000000
ENDCHAR

STARTCHAR A37D
ENCODING 41853
SWIDTH 960 0
DWIDTH 24 0
BBX 24 24 0 -6
BITMAP
000000
0C0180
0C0180
0C0180
0C0180
6F0180
6F3FFC
6F3FFE
6DB186
6DB186
6DB186
6C3186
0C3186
0C3FFE
0C1FFC
0C0180
0C0180
0C0180
0C0180
0C0180
0C0180
0C0180
0C0180
000000
ENDCHAR

STARTCHAR A37E
ENCODING 41854
SWIDTH 960 0
DWIDTH 24 0
BBX 24 24 0 -6
BITMAP
000000
0C0300
0C0300
0C0700
0C0600
0C0FFE
6F0FFE
6F1CC0
6DB8C0
6DB0C0
6D80C0
6C00C0
6C3FFE
0C3FFE
0C00C0
0C00C0
0C00C0
0C00C0
0C00C0
0C00C0
0C00C0
0C00C0
0C00C0
000000
ENDCHAR

STARTCHAR A3A1
ENCODING 41889
SWIDTH 960 0
DWIDTH 24 0
BBX 24 24 0 -6
BITMAP
000000
030000
0303FC
3FF3FC
3FF30C
03330C
03330C
0633FC
0DF3FC
18E60C
001C00
007E00
01C3C0
07FFF0
1C0038
6FFFFC
0C6630
0C6630
0FFFF0
0FFFF0
0C6630
0C6670
0C0060
000000
ENDCHAR

STARTCHAR A3A2
ENCODING 41890
SWIDTH 960 0
DWIDTH 24 0
BBX 24 24 0 -6
BITMAP
000000
000000
7FF838
7FF8F8
0C07C0
0C07C0
0C00C0
0FF0C0
0C30C0
0C30C0
0C3FFC
1B3FFC
19B0C0
19B0C0
18B0C0
1830C0
1830C0
1860C0
19E0C4
1FE00C
7E7FFC
603FFC
000000
000000
ENDCHAR

STARTCHAR A3A3
ENCODING 41891
SWIDTH 960 0
DWIDTH 24 0
BBX 24 24 0 -6
BITMAP
000000
060000
061FFE
061FFE
365800
36D800
36D9FE
1E9BFE
061B26
7FDB26
7FDBFE
061B26
071B26
0F9BFE
0E9BFE
1E1820
361BFC
2633FC
063020
066020
06C7FE
0607FE
060000
000000
ENDCHAR

STARTCHAR A3A4
ENCODING 41892
SWIDTH 960 0
DWIDTH 24 0
BBX 24 24 0 -6
BITMAP
000000
000000
000000
000000
000000
000000
000000
000000
000000
000000
000000
000000
000000
000000
000000
000000
000000
000000
000000
000000
000000
FFFFFF
FFFFFF
FFFFFF
ENDCHAR

STARTCHAR A3A5
ENCODING 41893
SWIDTH 960 0
DWIDTH 24 0
BBX 24 24 0 -6
BITMAP
000000
000000
000000
000000
000000
000000
000000
000000
000000
000000
000000
000000
000000
000000
000000
000000
000000
000000
FFFFFF
FFFFFF
FFFFFF
FFFFFF
FFFFFF
FFFFFF
ENDCHAR

STARTCHAR A3A6
ENCODING 41894
SWIDTH 960 0
DWIDTH 24 0
BBX 24 24 0 -6
BITMAP
000000
000000
000000
000000
000000
000000
000000
000000
000000
000000
000000
000000
000000
000000
000000
FFFFFF
FFFFFF
FFFFFF
FFFFFF
FFFFFF
FFFFFF
FFFFFF
FFFFFF
FFFFFF
ENDCHAR

STARTCHAR A3A7
ENCODING 41895
SWIDTH 960 0
DWIDTH 24 0
BBX 24 24 0 -6
BITMAP
000000
000000
000000
000000
000000
000000
000000
000000
000000
000000
000000
000000
FFFFFF
FFFFFF
FFFFFF
FFFFFF
FFFFFF
FFFFFF
FFFFFF
FFFFFF
FFFFFF
FFFFFF
FFFFFF
FFFFFF
ENDCHAR

STARTCHAR A3A8
ENCODING 41896
SWIDTH 960 0
DWIDTH 24 0
BBX 24 24 0 -6
BITMAP
000000
000000
000000
000000
000000
000000
000000
000000
000000
FFFFFF
FFFFFF
FFFFFF
FFFFFF
FFFFFF
FFFFFF
FFFFFF
FFFFFF
FFFFFF
FFFFFF
FFFFFF
FFFFFF
FFFFFF
FFFFFF
FFFFFF
ENDCHAR

STARTCHAR A3A9
ENCODING 41897
SWIDTH 960 0
DWIDTH 24 0
BBX 24 24 0 -6
BITMAP
000000
000000
000000
000000
000000
000000
FFFFFF
FFFFFF
FFFFFF
FFFFFF
FFFFFF
FFFFFF
FFFFFF
FFFFFF
FFFFFF
FFFFFF
FFFFFF
FFFFFF
FFFFFF
FFFFFF
FFFFFF
FFFFFF
FFFFFF
FFFFFF
ENDCHAR

STARTCHAR A3AA
ENCODING 41898
SWIDTH 960 0
DWIDTH 24 0
BBX 24 24 0 -6
BITMAP
000000
000000
000000
FFFFFF
FFFFFF
FFFFFF
FFFFFF
FFFFFF
FFFFFF
FFFFFF
FFFFFF
FFFFFF
FFFFFF
FFFFFF
FFFFFF
FFFFFF
FFFFFF
FFFFFF
FFFFFF
FFFFFF
FFFFFF
FFFFFF
FFFFFF
FFFFFF
ENDCHAR

STARTCHAR A3AB
ENCODING 41899
SWIDTH 960 0
DWIDTH 24 0
BBX 24 24 0 -6
BITMAP
FFFFFF
FFFFFF
FFFFFF
FFFFFF
FFFFFF
FFFFFF
FFFFFF
FFFFFF
FFFFFF
FFFFFF
FFFFFF
FFFFFF
FFFFFF
FFFFFF
FFFFFF
FFFFFF
FFFFFF
FFFFFF
FFFFFF
FFFFFF
FFFFFF
FFFFFF
FFFFFF
FFFFFF
ENDCHAR

STARTCHAR A3AC
ENCODING 41900
SWIDTH 960 0
DWIDTH 24 0
BBX 24 24 0 -6
BITMAP
E00000
E00000
E00000
E00000
E00000
E00000
E00000
E00000
E00000
E00000
E00000
E00000
E00000
E00000
E00000
E00000
E00000
E00000
E00000
E00000
E00000
E00000
E00000
E00000
ENDCHAR

STARTCHAR A3AD
ENCODING 41901
SWIDTH 960 0
DWIDTH 24 0
BBX 24 24 0 -6
BITMAP
FC0000
FC0000
FC0000
FC0000
FC0000
FC0000
FC0000
FC0000
FC0000
FC0000
FC0000
FC0000
FC0000
FC0000
FC0000
FC0000
FC0000
FC0000
FC0000
FC0000
FC0000
FC0000
FC0000
FC0000
ENDCHAR

STARTCHAR A3AE
ENCODING 41902
SWIDTH 960 0
DWIDTH 24 0
BBX 24 24 0 -6
BITMAP
FF8000
FF8000
FF8000
FF8000
FF8000
FF8000
FF8000
FF8000
FF8000
FF8000
FF8000
FF8000
FF8000
FF8000
FF8000
FF8000
FF8000
FF8000
FF8000
FF8000
FF8000
FF8000
FF8000
FF8000
ENDCHAR

STARTCHAR A3AF
ENCODING 41903
SWIDTH 960 0
DWIDTH 24 0
BBX 24 24 0 -6
BITMAP
FFF000
FFF000
FFF000
FFF000
FFF000
FFF000
FFF000
FFF000
FFF000
FFF000
FFF000
FFF000
FFF000
FFF000
FFF000
FFF000
FFF000
FFF000
FFF000
FFF000
FFF000
FFF000
FFF000
FFF000
ENDCHAR

STARTCHAR A3B0
ENCODING 41904
SWIDTH 960 0
DWIDTH 24 0
BBX 24 24 0 -6
BITMAP
FFFE00
FFFE00
FFFE00
FFFE00
FFFE00
FFFE00
FFFE00
FFFE00
FFFE00
FFFE00
FFFE00
FFFE00
FFFE00
FFFE00
FFFE00
FFFE00
FFFE00
FFFE00
FFFE00
FFFE00
FFFE00
FFFE00
FFFE00
FFFE00
ENDCHAR

STARTCHAR A3B1
ENCODING 41905
SWIDTH 960 0
DWIDTH 24 0
BBX 24 24 0 -6
BITMAP
FFFFC0
FFFFC0
FFFFC0
FFFFC0
FFFFC0
FFFFC0
FFFFC0
FFFFC0
FFFFC0
FFFFC0
FFFFC0
FFFFC0
FFFFC0
FFFFC0
FFFFC0
FFFFC0
FFFFC0
FFFFC0
FFFFC0
FFFFC0
FFFFC0
FFFFC0
FFFFC0
FFFFC0
ENDCHAR

STARTCHAR A3B2
ENCODING 41906
SWIDTH 960 0
DWIDTH 24 0
BBX 24 24 0 -6
BITMAP
FFFFF8
FFFFF8
FFFFF8
FFFFF8
FFFFF8
FFFFF8
FFFFF8
FFFFF8
FFFFF8
FFFFF8
FFFFF8
FFFFF8
FFFFF8
FFFFF8
FFFFF8
FFFFF8
FFFFF8
FFFFF8
FFFFF8
FFFFF8
FFFFF8
FFFFF8
FFFFF8
FFFFF8
ENDCHAR

STARTCHAR A3B3
ENCODING 41907
SWIDTH 960 0
DWIDTH 24 0
BBX 24 24 0 -6
BITMAP
001800
001800
001800
001800
001800
001800
001800
001800
001800
001800
001800
FFFFFF
FFFFFF
001800
001800
001800
001800
001800
001800
001800
001800
001800
001800
001800
ENDCHAR

STARTCHAR A3B4
ENCODING 41908
SWIDTH 960 0
DWIDTH 24 0
BBX 24 24 0 -6
BITMAP
001800
001800
001800
001800
001800
001800
001800
001800
001800
001800
001800
FFFFFF
FFFFFF
000000
000000
000000
000000
000000
000000
000000
000000
000000
000000
000000
ENDCHAR

STARTCHAR A3B5
ENCODING 41909
SWIDTH 960 0
DWIDTH 24 0
BBX 24 24 0 -6
BITMAP
000000
000000
000000
000000
000000
000000
000000
000000
000000
000000
000000
FFFFFF
FFFFFF
001800
001800
001800
001800
001800
001800
001800
001800
001800
001800
001800
ENDCHAR

STARTCHAR A3B6
ENCODING 41910
SWIDTH 960 0
DWIDTH 24 0
BBX 24 24 0 -6
BITMAP
001800
001800
001800
001800
001800
001800
001800
001800
001800
001800
001800
FFF800
FFF800
001800
001800
001800
001800
001800
001800
001800
001800
001800
001800
001800
ENDCHAR

STARTCHAR A3B7
ENCODING 41911
SWIDTH 960 0
DWIDTH 24 0
BBX 24 24 0 -6
BITMAP
001800
001800
001800
001800
001800
001800
001800
001800
001800
001800
001800
001FFF
001FFF
001800
001800
001800
001800
001800
001800
001800
001800
001800
001800
001800
ENDCHAR

STARTCHAR A3B8
ENCODING 41912
SWIDTH 960 0
DWIDTH 24 0
BBX 24 24 0 -6
BITMAP
FFFFFF
FFFFFF
000000
000000
000000
000000
000000
000000
000000
000000
000000
000000
000000
000000
000000
000000
000000
000000
000000
000000
000000
000000
000000
000000
ENDCHAR

STARTCHAR A3B9
ENCODING 41913
SWIDTH 960 0
DWIDTH 24 0
BBX 24 24 0 -6
BITMAP
000000
000000
000000
000000
000000
000000
000000
000000
000000
000000
000000
FFFFFF
FFFFFF
000000
000000
000000
000000
000000
000000
000000
000000
000000
000000
000000
ENDCHAR

STARTCHAR A3BA
ENCODING 41914
SWIDTH 960 0
DWIDTH 24 0
BBX 24 24 0 -6
BITMAP
001800
001800
001800
001800
001800
001800
001800
001800
001800
001800
001800
001800
001800
001800
001800
001800
001800
001800
001800
001800
001800
001800
001800
001800
ENDCHAR

STARTCHAR A3BB
ENCODING 41915
SWIDTH 960 0
DWIDTH 24 0
BBX 24 24 0 -6
BITMAP
003C00
003C00
003C00
003C00
003C00
003C00
003C00
003C00
003C00
003C00
003C00
003C00
003C00
003C00
003C00
003C00
003C00
003C00
003C00
003C00
003C00
003C00
003C00
003C00
ENDCHAR

STARTCHAR A3BC
ENCODING 41916
SWIDTH 960 0
DWIDTH 24 0
BBX 24 24 0 -6
BITMAP
000000
000000
000000
000000
000000
000000
000000
000000
000000
000000
000000
001FFF
001FFF
001800
001800
001800
001800
001800
001800
001800
001800
001800
001800
001800
ENDCHAR

STARTCHAR A3BD
ENCODING 41917
SWIDTH 960 0
DWIDTH 24 0
BBX 24 24 0 -6
BITMAP
000000
000000
000000
000000
000000
000000
000000
000000
000000
000000
000000
FFF800
FFF800
001800
001800
001800
001800
001800
001800
001800
001800
001800
001800
001800
ENDCHAR

STARTCHAR A3BE
ENCODING 41918
SWIDTH 960 0
DWIDTH 24 0
BBX 24 24 0 -6
BITMAP
001800
001800
001800
001800
001800
001800
001800
001800
001800
001800
001800
001FFF
001FFF
000000
000000
000000
000000
000000
000000
000000
000000
000000
000000
000000
ENDCHAR

STARTCHAR A3BF
ENCODING 41919
SWIDTH 960 0
DWIDTH 24 0
BBX 24 24 0 -6
BITMAP
001800
001800
001800
001800
001800
001800
001800
001800
001800
001800
001800
FFF800
FFF800
000000
000000
000000
000000
000000
000000
000000
000000
000000
000000
000000
ENDCHAR

STARTCHAR A3C0
ENCODING 41920
SWIDTH 960 0
DWIDTH 24 0
BBX 24 24 0 -6
BITMAP
000000
000000
000000
000000
000000
000000
000000
000000
000000
000000
000000
00000F
00003F
0000F8
0001E0
000380
000700
000600
000E00
000C00
000C00
001C00
001800
001800
ENDCHAR

STARTCHAR A3C1
ENCODING 41921
SWIDTH 960 0
DWIDTH 24 0
BBX 24 24 0 -6
BITMAP
000000
000000
000000
000000
000000
000000
000000
000000
000000
000000
000000
F00000
FC0000
1F0000
078000
01C000
00E000
006000
007000
003000
003800
001800
001800
001800
ENDCHAR

STARTCHAR A3C2
ENCODING 41922
SWIDTH 960 0
DWIDTH 24 0
BBX 24 24 0 -6
BITMAP
001800
001800
001800
001C00
000C00
000E00
000600
000700
000380
0001E0
0000F8
00003F
00000F
000000
000000
000000
000000
000000
000000
000000
000000
000000
000000
000000
ENDCHAR

STARTCHAR A3C3
ENCODING 41923
SWIDTH 960 0
DWIDTH 24 0
BBX 24 24 0 -6
BITMAP
001800
001800
001800
003800
003000
007000
006000
00E000
01C000
078000
1E0000
F80000
E00000
000000
000000
000000
000000
000000
000000
000000
000000
000000
000000
000000
ENDCHAR

STARTCHAR A3C4
ENCODING 41924
SWIDTH 960 0
DWIDTH 24 0
BBX 24 24 0 -6
BITMAP
000000
000000
000000
000000
000000
000000
000000
000000
FFFFFF
FFFFFF
000000
000000
000000
FFFFFF
FFFFFF
000000
000000
000000
000000
000000
000000
000000
000000
000000
ENDCHAR

STARTCHAR A3C5
ENCODING 41925
SWIDTH 960 0
DWIDTH 24 0
BBX 24 24 0 -6
BITMAP
001800
001800
001800
001800
001800
001800
001800
001800
001FFF
001FFF
001800
001800
001800
001FFF
001FFF
001800
001800
001800
001800
001800
001800
001800
001800
001800
ENDCHAR

STARTCHAR A3C6
ENCODING 41926
SWIDTH 960 0
DWIDTH 24 0
BBX 24 24 0 -6
BITMAP
001800
001800
001800
001800
001800
001800
001800
001800
FFFFFF
FFFFFF
001800
001800
001800
FFFFFF
FFFFFF
001800
001800
001800
001800
001800
001800
001800
001800
001800
ENDCHAR

STARTCHAR A3C7
ENCODING 41927
SWIDTH 960 0
DWIDTH 24 0
BBX 24 24 0 -6
BITMAP
001800
001800
001800
001800
001800
001800
001800
001800
FFF800
FFF800
001800
001800
001800
FFF800
FFF800
001800
001800
001800
001800
001800
001800
001800
001800
001800
ENDCHAR

STARTCHAR A3C8
ENCODING 41928
SWIDTH 960 0
DWIDTH 24 0
BBX 24 24 0 -6
BITMAP
000001
000003
000007
00000F
00001F
00003F
00007F
0000FF
0001FF
0003FF
0007FF
000FFF
001FFF
003FFF
007FFF
00FFFF
01FFFF
03FFFF
07FFFF
0FFFFF
1FFFFF
3FFFFF
7FFFFF
FFFFFF
ENDCHAR

STARTCHAR A3C9
ENCODING 41929
SWIDTH 960 0
DWIDTH 24 0
BBX 24 24 0 -6
BITMAP
800000
C00000
E00000
F00000
F80000
FC0000
FE0000
FF0000
FF8000
FFC000
FFE000
FFF000
FFF800
FFFC00
FFFE00
FFFF00
FFFF80
FFFFC0
FFFFE0
FFFFF0
FFFFF8
FFFFFC
FFFFFE
FFFFFF
ENDCHAR

STARTCHAR A3CA
ENCODING 41930
SWIDTH 960 0
DWIDTH 24 0
BBX 24 24 0 -6
BITMAP
FFFFFF
7FFFFF
3FFFFF
1FFFFF
0FFFFF
07FFFF
03FFFF
01FFFF
00FFFF
007FFF
003FFF
001FFF
000FFF
0007FF
0003FF
0001FF
0000FF
00007F
00003F
00001F
00000F
000007
000003
000001
ENDCHAR

STARTCHAR A3CB
ENCODING 41931
SWIDTH 960 0
DWIDTH 24 0
BBX 24 24 0 -6
BITMAP
FFFFFF
FFFFFE
FFFFFC
FFFFF8
FFFFF0
FFFFE0
FFFFC0
FFFF80
FFFF00
FFFE00
FFFC00
FFF800
FFF000
FFE000
FFC000
FF8000
FF0000
FE0000
FC0000
F80000
F00000
E00000
C00000
800000
ENDCHAR

STARTCHAR A3CC
ENCODING 41932
SWIDTH 960 0
DWIDTH 24 0
BBX 24 24 0 -6
BITMAP
000003
000007
00000E
00001C
000038
000070
0000E0
0001C0
000380
000700
000E00
001C00
003800
007000
00E000
01C000
038000
070000
0E0000
1C0000
380000
700000
E00000
C00000
ENDCHAR

STARTCHAR A3CD
ENCODING 41933
SWIDTH 960 0
DWIDTH 24 0
BBX 24 24 0 -6
BITMAP
C00000
E00000
700000
380000
1C0000
0E0000
070000
038000
01C000
00E000
007000
003800
001C00
000E00
000700
000380
0001C0
0000E0
000070
000038
00001C
00000E
000007
000003
ENDCHAR

STARTCHAR A3CE
ENCODING 41934
SWIDTH 960 0
DWIDTH 24 0
BBX 24 24 0 -6
BITMAP
C00003
E00007
70000E
38001C
1C0038
0E0070
0700E0
0381C0
01C380
00E700
007E00
003C00
003C00
007E00
00E700
01C380
0381C0
0700E0
0E0070
1C0038
38001C
70000E
E00007
C00003
ENDCHAR

STARTCHAR A421
ENCODING 42017
SWIDTH 960 0
DWIDTH 24 0
BBX 24 24 0 -6
BITMAP
000000
0C0000
0C0000
0DFFF8
0DFFF8
6C0C30
6F0C70
6F0C60
6D8CE0
6D8CFE
6C0CFE
6C0E06
0C0E0E
0C0F0C
0C0F0C
0C1F9C
0C1B9C
0C39D8
0C78F8
0CF0F0
0DE7F8
0D9FBE
0C1E0E
000000
ENDCHAR

STARTCHAR A422
ENCODING 42018
SWIDTH 960 0
DWIDTH 24 0
BBX 24 24 0 -6
BITMAP
000000
0C0600
0C0600
0C0600
0C0600
6F0E00
6F0FFE
6F1FFE
6D9F0C
6DBB1C
6DB318
6C6338
6C0730
6C0700
0C0700
0C0F00
0C0F80
0C1DC0
0C39C0
0C78F0
0CF07C
0FE03E
0F800E
000000
ENDCHAR

STARTCHAR A423
ENCODING 42019
SWIDTH 960 0
DWIDTH 24 0
BBX 24 24 0 -6
BITMAP
000000
06003C
060FFC
060FF0
078CC0
378CC0
378CC0
36CCC0
36CCC0
36CFFE
360FFE
760CC0
660CE0
660C60
060C60
060C60
060C66
060CF6
060FF6
061FBE
067E1E
06700C
060000
000000
ENDCHAR

STARTCHAR A424
ENCODING 42020
SWIDTH 960 0
DWIDTH 24 0
BBX 24 24 0 -6
BITMAP
000000
060000
063036
063036
063C36
063E36
37B676
37B766
37B3E6
36F3C6
36F1C6
7631C6
6630E6
6631E6
0631F6
0633B6
06373E
06361E
06361E
063006
063006
063FFE
061FFC
000000
ENDCHAR

STARTCHAR A425
ENCODING 42021
SWIDTH 960 0
DWIDTH 24 0
BBX 24 24 0 -6
BITMAP
000000
060006
06007E
061FF8
061FE0
061800
379800
379800
379FFE
36DFFE
66D860
66D860
661860
061860
061860
061860
061860
061860
063860
063060
067060
066060
060060
000000
ENDCHAR

STARTCHAR A426
ENCODING 42022
SWIDTH 960 0
DWIDTH 24 0
BBX 24 24 0 -6
BITMAP
000000
067FFE
067FFE
060060
060060
0600E0
3780C0
3781C0
3783E0
36C7F0
66CFB8
661D9C
66398E
06F186
060180
060180
060180
060180
060180
060180
060180
060180
060180
000000
ENDCHAR

STARTCHAR A427
ENCODING 42023
SWIDTH 960 0
DWIDTH 24 0
BBX 24 24 0 -6
BITMAP
000000
0C0300
0C0300
0C0780
0F07C0
0F0EE0
6D9C70
6DB838
6C701E
6CFFF6
6CDFF0
0C0000
0C0000
0C3FF8
0C3FF8
0C0038
0C0030
0C0070
0C0060
0C00E0
0C00C0
0C01C0
0C0180
000000
ENDCHAR

STARTCHAR A428
ENCODING 42024
SWIDTH 960 0
DWIDTH 24 0
BBX 24 24 0 -6
BITMAP
000000
000000
7FEFFC
7FEFFE
000C06
000C06
3FEC06
3FEC06
306C06
306FFE
306FFC
306C00
3FEC00
3FEC00
300C00
300C00
300C00
300C00
700C06
600C06
600C06
000FFE
0007FC
000000
ENDCHAR

STARTCHAR A429
ENCODING 42025
SWIDTH 960 0
DWIDTH 24 0
BBX 24 24 0 -6
BITMAP
000000
061800
061C00
060E00
060700
060380
7FEFFE
7FEFFE
060300
060300
06C360
07C370
078338
0F031C
1E030E
3E0306
760300
660300
060300
060300
060300
1E0300
1C0300
000000
ENDCHAR

STARTCHAR A42A
ENCODING 42026
SWIDTH 960 0
DWIDTH 24 0
BBX 24 24 0 -6
BITMAP
000000
0C0300
0C0300
0C0300
0C0300
0C0300
7FDFFC
7FFFFE
0C3306
0C3306
0C3306
0C33C6
0F33C6
0F03C0
1E07C0
3C07C0
7C06C0
6C0EC6
0C0CC6
0C1CC6
0C38C6
3C70FE
38E07C
000000
ENDCHAR

STARTCHAR A42B
ENCODING 42027
SWIDTH 960 0
DWIDTH 24 0
BBX 24 24 0 -6
BITMAP
000000
060000
063FFE
063FFE
060000
060000
7FC000
7FFFFE
067FFE
060180
060180
06C300
07C330
078630
0F0638
3E0E38
760C18
660C1C
06183C
0639FE
063FE6
1E7F06
1C7000
000000
ENDCHAR

STARTCHAR A42C
ENCODING 42028
SWIDTH 960 0
DWIDTH 24 0
BBX 24 24 0 -6
BITMAP
000000
060000
063FF8
063FF8
060000
060000
7FC000
7FFFFE
067FFE
0606C0
0786C0
0786C0
0F06C0
1E06C0
3E06C0
760EC0
660CC0
060CC0
060CC6
0618C6
0638FE
1E707C
1C6000
000000
ENDCHAR

STARTCHAR A42D
ENCODING 42029
SWIDTH 960 0
DWIDTH 24 0
BBX 24 24 0 -6
BITMAP
000000
060000
06FFFE
06FFFE
0600C0
7FC0C0
7FC180
060180
0603E0
06C7E0
07CFF0
079DB0
0F39B8
1E7198
7EE19C
76C18E
060186
060180
060180
060180
060180
3E0180
3C0180
000000
ENDCHAR

STARTCHAR A42E
ENCODING 42030
SWIDTH 960 0
DWIDTH 24 0
BBX 24 24 0 -6
BITMAP
000000
060000
060000
060000
060FFE
061FFE
7FD806
7FD806
061806
061806
06D806
07D806
079FFE
0F1FFE
1E1806
3E1806
761806
661806
061806
061806
061FFE
1E1FFC
1C0000
000000
ENDCHAR

STARTCHAR A42F
ENCODING 42031
SWIDTH 960 0
DWIDTH 24 0
BBX 24 24 0 -6
BITMAP
000000
060000
06FFFC
06FFFC
060C18
060C38
7FCC70
7FCC60
060CFE
060CFE
06DC06
07DE06
0F9E0E
1F1F0C
7E1F1C
761B98
0633B8
0671F0
06E0F0
07C0F0
0783F8
3E1FDC
3E1E0E
000000
ENDCHAR

STARTCHAR A430
ENCODING 42032
SWIDTH 960 0
DWIDTH 24 0
BBX 24 24 0 -6
BITMAP
000000
060C00
060C00
060C00
061C00
061C00
7FDFFC
7FFFFC
063B18
067338
07F330
0FE330
3EC380
7E0380
6603C0
0607C0
0607E0
060EE0
060E70
061C38
3E781C
3EF00E
00C006
000000
ENDCHAR

STARTCHAR A431
ENCODING 42033
SWIDTH 960 0
DWIDTH 24 0
BBX 24 24 0 -6
BITMAP
000000
0C0018
0C00F8
0C3FF0
0C3F80
0C3180
0C3180
7FB180
7FB180
0C3FFE
0DBFFE
0FB180
0F31C0
1E31C0
3C30C0
7C30C0
6C33E0
0C3FE0
0DFE66
0DF876
0C003E
3C001E
38000C
000000
ENDCHAR

STARTCHAR A432
ENCODING 42034
SWIDTH 960 0
DWIDTH 24 0
BBX 24 24 0 -6
BITMAP
000000
0C06C0
0C06C0
0C0660
0C0670
0C0630
0C0600
7FBFF8
7FBFF8
0C0E00
0C0E00
0D8E00
0F8E00
1F1F00
7C1B00
6C1B00
0C3B00
0C3306
0C7306
0CE306
0DC3FE
3D83FE
3C0000
000000
ENDCHAR

STARTCHAR A433
ENCODING 42035
SWIDTH 960 0
DWIDTH 24 0
BBX 24 24 0 -6
BITMAP
000000
060C00
060C60
061C70
061838
061838
06381C
7FF07E
7FFFFE
06FFC6
0798C0
0798C0
0718C0
0E18C0
1E18C0
3E18C0
7618C0
6618C6
0638C6
0630C6
0670C6
3EE0FE
3CC07C
000000
ENDCHAR

STARTCHAR A434
ENCODING 42036
SWIDTH 960 0
DWIDTH 24 0
BBX 24 24 0 -6
BITMAP
000000
060000
0607F8
0607FC
06060C
06060C
7FE60C
7FE7FC
0607FC
06060C
06660C
07E60C
07C60C
0F87FC
1E07FC
7E060C
76060C
060E0C
060C0C
061C0C
06380C
1E707C
1CE078
000000
ENDCHAR

STARTCHAR A435
ENCODING 42037
SWIDTH 960 0
DWIDTH 24 0
BBX 24 24 0 -6
BITMAP
000000
060030
0603F0
067FE0
067F00
060300
7FE300
7FE300
06FFFC
06FFFC
060300
078380
078380
0F03C0
1E07C0
3E07E0
360E70
061E70
061C38
06381C
3EF00E
3FE006
018000
000000
ENDCHAR

STARTCHAR A436
ENCODING 42038
SWIDTH 960 0
DWIDTH 24 0
BBX 24 24 0 -6
BITMAP
000000
060300
060300
06030C
0603FC
067FF8
7FFF00
7FF300
063318
063318
07B318
07B318
073318
0E3318
1E3FF8
3E1FF0
760300
660300
060306
060306
060306
3E03FE
3C01FC
000000
ENDCHAR

STARTCHAR A437
ENCODING 42039
SWIDTH 960 0
DWIDTH 24 0
BBX 24 24 0 -6
BITMAP
000000
0C0180
0C03C0
0C07E0
0C0E60
0C1C30
7FB818
7FB00C
0C7FFE
0CFFFE
0C0000
0F0000
0F7FFC
1E7FFC
3C000C
7C000C
6C001C
0C0018
0C0038
0C0070
0C00E0
7C03C0
780700
000000
ENDCHAR

STARTCHAR A438
ENCODING 42040
SWIDTH 960 0
DWIDTH 24 0
BBX 24 24 0 -6
BITMAP
000000
0600C0
0601E0
0601F0
0603B0
060738
7FCF3C
7FDF3E
063B36
067332
07E330
078330
1F0330
3E0330
7E0330
760330
060730
060630
060E30
060C30
061C30
3E3830
3C3030
000000
ENDCHAR

STARTCHAR A439
ENCODING 42041
SWIDTH 960 0
DWIDTH 24 0
BBX 24 24 0 -6
BITMAP
000000
000000
7FBFFE
7FBFFE
6180C0
6180C0
6180C0
6180C0
6180C0
7FFFFE
7FFFFE
6180C0
6180C0
6180C0
6180C0
6180C0
7F80C0
3F00C0
0000C0
0000C0
0000C0
0000C0
0000C0
000000
ENDCHAR

STARTCHAR A43A
ENCODING 42042
SWIDTH 960 0
DWIDTH 24 0
BBX 24 24 0 -6
BITMAP
000000
000000
7E7FFC
7F7FFC
630180
630180
630180
630180
630180
7FFFFE
7FFFFE
630180
630180
630180
630180
630180
630180
7F0180
3F0180
000180
000180
000F80
000F00
000000
ENDCHAR

STARTCHAR A43B
ENCODING 42043
SWIDTH 960 0
DWIDTH 24 0
BBX 24 24 0 -6
BITMAP
000000
000300
000300
000300
3F0700
7F87FC
618FFE
618E06
619C06
61B806
61B006
7F8006
7F8006
618606
618706
618386
6181C6
6180C6
618006
7F8006
3F000E
0000FE
0000FC
000000
ENDCHAR

STARTCHAR A43C
ENCODING 42044
SWIDTH 960 0
DWIDTH 24 0
BBX 24 24 0 -6
BITMAP
000000
0FFFF0
0FFFF8
0C0018
0FFFF8
0FFFF8
0C0018
0FFFF8
07FFF0
001800
001800
001800
7FFFFE
7FFFFE
001800
003C00
007C00
00EE00
01C700
0783C0
1F01F0
7C007E
70001E
000000
ENDCHAR

STARTCHAR A43D
ENCODING 42045
SWIDTH 960 0
DWIDTH 24 0
BBX 24 24 0 -6
BITMAP
000000
07FFC0
07FFE0
060060
060060
07FFE0
07FFE0
060060
060060
07FFE0
07FFE0
001800
001800
181818
181818
181818
181818
181818
181818
181818
1FFFF8
0FFFF0
000000
000000
ENDCHAR

STARTCHAR A43E
ENCODING 42046
SWIDTH 960 0
DWIDTH 24 0
BBX 24 24 0 -6
BITMAP
000000
0C0000
0C3FFC
0C3FFC
0C00C0
0C00C0
0C00C0
7FE0C0
7FE0C0
0E00C0
1E7FFE
1F7FFE
3F00C0
3D80C0
6CC0C0
4C00C0
0C00C0
0C00C0
0C00C0
0C00C0
0C00C0
0C07C0
0C0780
000000
ENDCHAR

STARTCHAR A43F
ENCODING 42047
SWIDTH 960 0
DWIDTH 24 0
BBX 24 24 0 -6
BITMAP
000000
0C3FF8
0C3FF8
0C0000
0C0000
0C0000
0CFFFE
7FFFFE
7F8C00
1C0C00
1E0C00
3E0C00
3F0FFC
3F07FC
3F800C
3D800C
7D800C
6C000C
6C000C
6C001C
0C0018
0C07F8
0C07F0
000000
ENDCHAR

STARTCHAR A440
ENCODING 42048
SWIDTH 960 0
DWIDTH 24 0
BBX 24 24 0 -6
BITMAP
000000
060320
060330
060318
06030C
060306
7FE31E
7FE3FE
071FE0
0F7F00
1FF300
3FC300
3EE380
766180
660180
660180
4600C0
0600C0
0600E2
060066
060076
06003E
06001C
000000
ENDCHAR

STARTCHAR A441
ENCODING 42049
SWIDTH 960 0
DWIDTH 24 0
BBX 24 24 0 -6
BITMAP
000000
0C00C0
0C00C0
0C00C0
0C00C0
0C00C0
7FC0C0
7FC0C0
0E7FFE
0E7FFE
1F01C0
1F81C0
3D81C0
3C03C0
6C03E0
4C0760
0C0670
0C0E30
0C0C38
0C1C1C
0C380E
0CF006
0CE000
000000
ENDCHAR

STARTCHAR A442
ENCODING 42050
SWIDTH 960 0
DWIDTH 24 0
BBX 24 24 0 -6
BITMAP
000000
0C0000
0C0000
0CFFFC
0CFFFC
0C1860
7FD860
7FD860
0C1860
0E1860
1F1860
1F9860
3D9860
7C1860
6C1860
0C1860
0C3860
0C3860
0C3066
0C7066
0CE07E
0CC03C
0D8000
000000
ENDCHAR

STARTCHAR A443
ENCODING 42051
SWIDTH 960 0
DWIDTH 24 0
BBX 24 24 0 -6
BITMAP
000000
060000
060000
060000
063FFE
063FFE
7FE006
7FE306
061B86
0619CE
0F18EC
0F8C1C
1ECC18
1E6638
3E0770
3603E0
6601E0
6601C0
0603E0
060F70
063E3C
06F80E
06E006
000000
ENDCHAR

STARTCHAR A444
ENCODING 42052
SWIDTH 960 0
DWIDTH 24 0
BBX 24 24 0 -6
BITMAP
000000
060300
060300
061B00
061B00
061B00
7FDB1C
7FDBFC
071BFC
071F8C
0F7F0C
0F7B0C
0F1B0C
1F9B0C
1FDB0C
3EDB0C
361B7C
761B7C
661B06
061806
061FFE
060FFC
060000
000000
ENDCHAR

STARTCHAR A445
ENCODING 42053
SWIDTH 960 0
DWIDTH 24 0
BBX 24 24 0 -6
BITMAP
000000
060000
067FFE
067FFE
06001C
060038
7FC070
7FC0E0
0600C0
0700C0
0700C0
0F80C0
0FFFFE
1EFFFE
1EC0C0
3600C0
3600C0
6600C0
6600C0
0600C0
0600C0
0607C0
060780
000000
ENDCHAR

STARTCHAR A446
ENCODING 42054
SWIDTH 960 0
DWIDTH 24 0
BBX 24 24 0 -6
BITMAP
000000
060600
060600
060E00
060E00
061FF8
3FDFF8
3FF800
063000
0F7FF0
0F7FF0
1F8060
1FC0C0
3EC1C0
3E0380
760700
760E00
061C00
063806
067006
067FFE
063FFC
060000
000000
ENDCHAR

STARTCHAR A447
ENCODING 42055
SWIDTH 960 0
DWIDTH 24 0
BBX 24 24 0 -6
BITMAP
000000
060000
060000
0607C0
060FE0
060C60
7FEC60
7FEC60
060C60
0E0E60
0E0F60
1F0FE0
1F8FE0
37CDE0
36CC60
660C60
661C60
061860
063866
063066
067066
06E07E
06C03C
000000
ENDCHAR

STARTCHAR A448
ENCODING 42056
SWIDTH 960 0
DWIDTH 24 0
BBX 24 24 0 -6
BITMAP
000000
001800
001800
7FFFFE
7FFFFE
001800
001800
001800
07FFF0
07FFF0
000000
07FFF8
07FFF8
060C18
7FFFFE
7FFFFE
0C1830
183030
1FFFFE
1FFFFE
000060
0007E0
0007C0
000000
ENDCHAR

STARTCHAR A449
ENCODING 42057
SWIDTH 960 0
DWIDTH 24 0
BBX 24 24 0 -6
BITMAP
000000
060000
0E0000
1FFFFC
1FFFFC
380000
77FFF0
67FFF0
000000
3FFFF0
3FFFF0
006070
006070
0C6660
0C6660
0C6660
0C6660
0C6660
0C6660
0C6676
0C6676
0FFE3E
07FC1E
000000
ENDCHAR

STARTCHAR A44A
ENCODING 42058
SWIDTH 960 0
DWIDTH 24 0
BBX 24 24 0 -6
BITMAP
000000
060000
0FFFFC
1FFFFC
380000
77FFF0
67FFF0
000000
3FFFF0
3FFFF0
060630
066630
066630
066630
066660
066660
066660
066660
066670
0E6676
0C663E
1C661E
38660C
000000
ENDCHAR

STARTCHAR A44B
ENCODING 42059
SWIDTH 960 0
DWIDTH 24 0
BBX 24 24 0 -6
BITMAP
000000
200600
300600
380600
1C0600
0DFFFE
01FFFE
000C00
600C00
700C00
3C0FF0
0C0FF8
000C18
060C18
060C18
0E1C18
0C1818
1C3818
187018
38F018
31E038
33C3F8
6383F0
000000
ENDCHAR

STARTCHAR A44C
ENCODING 42060
SWIDTH 960 0
DWIDTH 24 0
BBX 24 24 0 -6
BITMAP
000000
380000
3E0000
1F7FFE
077FFE
000C30
000C30
000C30
700C30
780C30
3C0C30
0C7FFE
007FFE
030C30
030C30
070C30
060C30
0E0C30
0C1C30
1C1830
183830
387030
31E030
000000
ENDCHAR

STARTCHAR A44D
ENCODING 42061
SWIDTH 960 0
DWIDTH 24 0
BBX 24 24 0 -6
BITMAP
000000
700CC0
380CC0
1C0CC0
0E0CC0
000CC0
00FFFE
60FFFE
700CC0
380CC0
1C0CC0
000CC0
060CC0
06FFFE
06FFFE
0E0CC0
0C0CC0
1C0CC0
181CC0
3818C0
3038C0
7070C0
60E0C0
000000
ENDCHAR

STARTCHAR A44E
ENCODING 42062
SWIDTH 960 0
DWIDTH 24 0
BBX 24 24 0 -6
BITMAP
000000
000000
380000
3E7FFC
0E7FFC
000000
000000
000000
600000
71FFFE
39FFFE
1C0300
030700
030760
070670
060E30
0E0E38
0C1C38
1C39FC
18FFFE
18FF8E
300006
300000
000000
ENDCHAR

STARTCHAR A44F
ENCODING 42063
SWIDTH 960 0
DWIDTH 24 0
BBX 24 24 0 -6
BITMAP
000000
3006C0
3806C0
1C0660
0E0670
060630
000600
07FFFE
67FFFE
700E00
380E00
1C0E00
000E00
031F00
031B00
071B00
063B00
063306
0E7306
0CE306
1DC3FE
3B81FC
330000
000000
ENDCHAR

STARTCHAR A450
ENCODING 42064
SWIDTH 960 0
DWIDTH 24 0
BBX 24 24 0 -6
BITMAP
000000
303000
383000
1C37FC
0637FE
003066
003766
003F66
607C66
71F066
3DF066
0C3066
003066
0636E6
0636C6
0637C6
0C3FC6
0C3F86
1C0386
180706
180E3E
301C3C
303800
000000
ENDCHAR

STARTCHAR A451
ENCODING 42065
SWIDTH 960 0
DWIDTH 24 0
BBX 24 24 0 -6
BITMAP
000000
000600
600660
700670
380638
1C061C
00060C
07FFFE
07FFFE
600700
700700
380700
1C0780
000F80
000F80
060D80
0E1DC0
0C18E0
1838E0
387070
30E03C
73C01E
670006
000000
ENDCHAR

STARTCHAR A452
ENCODING 42066
SWIDTH 960 0
DWIDTH 24 0
BBX 24 24 0 -6
BITMAP
000000
380600
3C0600
1E0600
0F0600
03FFFC
01FFFC
000600
700E60
7C0E60
3E0CE0
0E0CC0
000DC0
031D80
033BB0
073B38
0E7718
0E761C
1CEE7C
1CEFFE
19FFCE
39BC06
300006
000000
ENDCHAR

STARTCHAR A453
ENCODING 42067
SWIDTH 960 0
DWIDTH 24 0
BBX 24 24 0 -6
BITMAP
000000
300000
380000
1CFFFC
0DFFFE
018006
018006
018006
618006
718006
398006
1DFFFE
01FFFE
018006
0D8006
0D8006
0D8006
0D8006
198006
19FFFE
30FFFC
300000
600000
000000
ENDCHAR

STARTCHAR A454
ENCODING 42068
SWIDTH 960 0
DWIDTH 24 0
BBX 24 24 0 -6
BITMAP
000000
380180
3C0180
1E0180
0F0180
030180
000180
001980
601980
781980
3C19FE
1C19FE
031980
031980
031980
071980
061980
0E1980
0E1980
1C1980
1C1980
39FFFE
31FFFE
000000
ENDCHAR

STARTCHAR A455
ENCODING 42069
SWIDTH 960 0
DWIDTH 24 0
BBX 24 24 0 -6
BITMAP
000000
1803C0
1E03C0
0F00C0
0700C0
003FFE
003FFE
0030C6
7030C6
7830C6
3C30C6
0C30C6
0031E6
0033F6
01B77E
01BE3E
03BC1E
073006
0F3006
1E3006
3C3006
78307E
60307E
000000
ENDCHAR

STARTCHAR A456
ENCODING 42070
SWIDTH 960 0
DWIDTH 24 0
BBX 24 24 0 -6
BITMAP
000000
380C00
3C0C00
1E1C30
0E1830
063838
003018
0073FC
73FFFE
7FFCCE
3E18C6
0E18C0
0018C0
0318C0
0318C0
0718C0
0718C0
0E18C6
0E18C6
1C38C6
1C78C6
3BF0FE
33C07C
000000
ENDCHAR

STARTCHAR A457
ENCODING 42071
SWIDTH 960 0
DWIDTH 24 0
BBX 24 24 0 -6
BITMAP
000000
381800
3C1800
1E1800
0F3FFC
033FFE
003B36
007336
707336
7CE736
3FC776
0F8E66
000E66
031CE6
033CC6
0379CE
07E38C
06C78C
0E070C
0E0E1C
1C3C18
3879F8
3061F8
000000
ENDCHAR

STARTCHAR A458
ENCODING 42072
SWIDTH 960 0
DWIDTH 24 0
BBX 24 24 0 -6
BITMAP
000000
1C1830
1E1830
0F1830
031830
001830
001830
001FFC
301FFC
3C1800
1E1800
0E1800
019800
019FF8
039FF8
039818
031818
071818
073818
0E3018
0C3018
1C7018
186018
000000
ENDCHAR

STARTCHAR A459
ENCODING 42073
SWIDTH 960 0
DWIDTH 24 0
BBX 24 24 0 -6
BITMAP
000000
300018
3C7FF8
1E7FF0
0F6180
076180
006180
006180
006180
607FFE
707FFE
386180
1C6180
006180
036180
0361C0
0660C0
0660C0
0C63E6
0C6F76
187E7E
19F83C
31E03C
000000
ENDCHAR

STARTCHAR A45A
ENCODING 42074
SWIDTH 960 0
DWIDTH 24 0
BBX 24 24 0 -6
BITMAP
000000
387FFE
3CFFFE
1EC000
0EC000
02C000
00FFF8
00FFF8
70C018
7CCC38
3ECC38
0ECE30
00C630
00C670
06C770
06C360
0EC3E0
0EC1C0
1DC3E0
1DCFF8
19BF7E
3BBC1E
330000
000000
ENDCHAR

STARTCHAR A45B
ENCODING 42075
SWIDTH 960 0
DWIDTH 24 0
BBX 24 24 0 -6
BITMAP
000000
300300
380300
1C0300
0E0300
06FFFC
00FFFC
000300
000300
600300
787FF0
3C7FF0
0C1830
001830
031830
071C70
060C70
0E0EE0
0C07C0
1C07E0
181FF8
38FC3E
30F00E
000000
ENDCHAR

STARTCHAR A45C
ENCODING 42076
SWIDTH 960 0
DWIDTH 24 0
BBX 24 24 0 -6
BITMAP
000000
000C00
180C00
0C1C00
061800
063000
003FF8
307FF8
386300
1CC300
0C8300
000300
00FFFE
06FFFE
060300
0C0300
0C0300
180300
180300
380300
300300
300300
000300
000000
ENDCHAR

STARTCHAR A45D
ENCODING 42077
SWIDTH 960 0
DWIDTH 24 0
BBX 24 24 0 -6
BITMAP
000000
380000
1C1B00
0E1B00
073B00
003300
007306
00630E
70E33C
78C3F8
3DC3F0
0FC3C0
03C300
00C300
06C300
06C300
0EC300
0EC300
0CC306
1CC306
18C306
38C3FE
30C1FC
000000
ENDCHAR

STARTCHAR A45E
ENCODING 42078
SWIDTH 960 0
DWIDTH 24 0
BBX 24 24 0 -6
BITMAP
000000
060000
060000
060000
061FFE
667FFE
67E0C0
67C0C0
6700C0
6600C0
6600C0
6600C0
6600C0
6600C0
0E00C0
0E00C0
0E00C0
0E00C0
1F00C0
1F80C0
39FFFE
70FFFE
600000
000000
ENDCHAR

STARTCHAR A45F
ENCODING 42079
SWIDTH 960 0
DWIDTH 24 0
BBX 24 24 0 -6
BITMAP
000000
0C0300
0C0300
0C3300
0C3300
6CF300
6DF338
6FB3F8
6F37F8
6C3F18
6CFF18
6CF318
6C3318
0C3318
0C3318
0C3318
1C33F8
1C33F8
1E3306
3B3306
31BFFE
309FFC
600000
000000
ENDCHAR

STARTCHAR A460
ENCODING 42080
SWIDTH 960 0
DWIDTH 24 0
BBX 24 24 0 -6
BITMAP
000000
033FF8
033FFC
1B00CC
1B00CC
1B00CC
1B18CC
3FFCCC
3FEECC
330ECC
7307CC
6363CC
03E18C
03C18C
07818C
0F038C
3F030C
7B070C
630E1C
031E18
033C38
0379F0
0361F0
000000
ENDCHAR

STARTCHAR A461
ENCODING 42081
SWIDTH 960 0
DWIDTH 24 0
BBX 24 24 0 -6
BITMAP
000000
318000
3B8600
1F0600
0E0300
0E0300
1F0180
3B7FFE
737FFE
630300
038360
078370
0F8338
0D831C
1CC30E
38C306
70C300
60C300
00C300
018300
018300
1F8300
1F0300
000000
ENDCHAR

STARTCHAR A462
ENCODING 42082
SWIDTH 960 0
DWIDTH 24 0
BBX 24 24 0 -6
BITMAP
000000
6303FE
7707FE
3E0630
1C0630
1E0630
3F0630
330630
730630
633FFE
07BFFE
0F8070
1D80F0
1980F0
3981F0
7181B0
6183B0
018730
018E30
039C30
031830
3F01F0
3E01E0
000000
ENDCHAR

STARTCHAR A463
ENCODING 42083
SWIDTH 960 0
DWIDTH 24 0
BBX 24 24 0 -6
BITMAP
000000
61BFF0
733FF8
3F0318
1E0318
1C0318
3E0318
760318
630318
030318
033FFE
073FFE
0F8618
1D8618
398618
718618
618618
018618
018618
018618
038618
3F7FFE
3E7FFE
000000
ENDCHAR

STARTCHAR A464
ENCODING 42084
SWIDTH 960 0
DWIDTH 24 0
BBX 24 24 0 -6
BITMAP
000000
60C180
71C180
3B8180
1F0180
0E0180
1E3FFC
7F7FFE
736186
036186
076186
076186
0FE186
0FFFFE
1DBFFC
398180
718180
618180
018180
018180
018180
1F8180
1F0180
000000
ENDCHAR

STARTCHAR A465
ENCODING 42085
SWIDTH 960 0
DWIDTH 24 0
BBX 24 24 0 -6
BITMAP
000000
018C00
638C30
771C30
3E1838
1C3818
3E301C
7773FC
63FFFE
03FEC6
0718C6
0F18C0
1F18C0
3B18C0
7198C0
6198C0
0198C0
0198C6
0318C6
0338C6
0370C6
1FE0FE
1FC07C
000000
ENDCHAR

STARTCHAR A466
ENCODING 42086
SWIDTH 960 0
DWIDTH 24 0
BBX 24 24 0 -6
BITMAP
000000
618300
730300
3F0300
1E0300
0E7FFE
1E7FFE
3B0000
730000
6307C0
070FE0
078C60
0F8C60
0F8C60
1D8C60
1D8C60
398C60
718C60
630C66
030C66
031C66
1F387E
1E703C
000000
ENDCHAR

STARTCHAR A467
ENCODING 42087
SWIDTH 960 0
DWIDTH 24 0
BBX 24 24 0 -6
BITMAP
000000
30C000
398000
1F803C
0F3FFC
0E3FC0
1E00C0
3700C0
6300C0
4300C0
0300C0
037FFE
077FFE
0F80C0
1D80C0
3980C0
7180C0
6180C0
0380C0
0300C0
033FFE
1F3FFE
1E0000
000000
ENDCHAR

STARTCHAR A468
ENCODING 42088
SWIDTH 960 0
DWIDTH 24 0
BBX 24 24 0 -6
BITMAP
000000
000000
7FDFFC
7FDFFC
0600C0
0600C0
0600C0
0600C0
0600C0
7FFFFE
7FFFFE
0600C0
0600C0
0600C0
0600C0
0600C0
07C0C0
07C0C0
1F00C0
7C00C0
7000C0
0000C0
0000C0
000000
ENDCHAR

STARTCHAR A469
ENCODING 42089
SWIDTH 960 0
DWIDTH 24 0
BBX 24 24 0 -6
BITMAP
000000
000000
003FFE
7FFFFE
7FC0C0
0C00C0
0C00C0
0C00C0
0C00C0
0C7FFE
7FFFFE
7FC0C0
0C00C0
0C00C0
0C00C0
0C00C0
0DC0C0
0FC0C0
7F00C0
7800C0
0000C0
0007C0
000780
000000
ENDCHAR

STARTCHAR A46A
ENCODING 42090
SWIDTH 960 0
DWIDTH 24 0
BBX 24 24 0 -6
BITMAP
000000
000180
000180
000380
7FE700
7FE600
060FFE
060FFE
061C06
061806
063E06
7FF606
7FC706
060386
06038E
0601CC
0600CC
06E00C
07E00C
1F800C
7C001C
7003FC
0003F0
000000
ENDCHAR

STARTCHAR A46B
ENCODING 42091
SWIDTH 960 0
DWIDTH 24 0
BBX 24 24 0 -6
BITMAP
000000
0018CC
0018CC
7FD8CC
7FD8CC
0618CC
0618CC
0618CC
0618CC
7FD8CC
7FD8CC
0618CC
0618CC
0618CC
0618CC
0618CC
06D8CC
07D8CC
1F98CC
7E18CC
7038CC
0070CC
00600C
000000
ENDCHAR

STARTCHAR A46C
ENCODING 42092
SWIDTH 960 0
DWIDTH 24 0
BBX 24 24 0 -6
BITMAP
000000
000000
000000
7FC000
7FDFFE
061FFE
0600C0
0600C0
0600C0
0600C0
7FC0C0
7FC0C0
0600C0
0600C0
0600C0
0600C0
07C0C0
07C0C0
1F00C0
7C3FFE
703FFE
000000
000000
000000
ENDCHAR

STARTCHAR A46D
ENCODING 42093
SWIDTH 960 0
DWIDTH 24 0
BBX 24 24 0 -6
BITMAP
000000
000000
7FC000
7FEFFE
666FFE
666060
666060
666060
666060
7FE060
7FE060
666060
666060
666060
666060
666060
7FE060
3FC060
000060
000060
0007E0
0007E0
000000
000000
ENDCHAR

STARTCHAR A46E
ENCODING 42094
SWIDTH 960 0
DWIDTH 24 0
BBX 24 24 0 -6
BITMAP
000000
001800
001800
0FFFF0
1FFFF8
181818
1FFFF8
1FFFF8
181818
1FFFF8
0FFFF0
000000
7FFFFE
7FFFFE
018000
030000
07FFE0
07FFE0
000060
000060
0000E0
003FE0
003FC0
000000
ENDCHAR

STARTCHAR A46F
ENCODING 42095
SWIDTH 960 0
DWIDTH 24 0
BBX 24 24 0 -6
BITMAP
000000
000C00
000C00
07FFFE
0FFFFE
0C0000
0C0000
6DFFFC
7DFFFC
3C0300
1C0300
0C0300
0C0300
1C0300
3C0300
7C0300
6C0300
4C0300
1C0300
180300
180300
381F00
301E00
000000
ENDCHAR

STARTCHAR A470
ENCODING 42096
SWIDTH 960 0
DWIDTH 24 0
BBX 24 24 0 -6
BITMAP
000000
000C00
000C00
07FFFE
0FFFFE
0C0000
6C0000
7C0000
3C6000
1C6000
0C6030
0C60F0
0C63E0
1C7FC0
3C7F00
7C6006
6C6006
0C6006
1C6006
18600E
187FFE
383FF8
300000
000000
ENDCHAR

STARTCHAR A471
ENCODING 42097
SWIDTH 960 0
DWIDTH 24 0
BBX 24 24 0 -6
BITMAP
000000
001800
001800
0FFFF0
0FFFF8
0C0018
0C0018
0FFFF8
0FFFF8
0C0018
0C0018
0FFFF8
07FFF0
001800
001800
001800
001800
7FFFFE
7FFFFE
001800
001800
001800
001800
000000
ENDCHAR

STARTCHAR A472
ENCODING 42098
SWIDTH 960 0
DWIDTH 24 0
BBX 24 24 0 -6
BITMAP
000000
060000
060000
067FF0
067FF0
7FCC70
7FCE60
00C660
0186E0
0386FE
070EFE
0F8E06
3FCC06
7EEC06
666C06
063C0E
06180C
06180C
06381C
067038
06E1F8
06C1F0
060000
000000
ENDCHAR

STARTCHAR A473
ENCODING 42099
SWIDTH 960 0
DWIDTH 24 0
BBX 24 24 0 -6
BITMAP
000000
000300
7FFB00
7FFB00
306300
306300
3FE300
3FE300
306300
306300
306300
3FE300
3FE300
306300
306300
31E300
3FE300
7F6306
706306
006306
006306
0063FE
0061FC
000000
ENDCHAR

STARTCHAR A474
ENCODING 42100
SWIDTH 960 0
DWIDTH 24 0
BBX 24 24 0 -6
BITMAP
000000
1F3FFE
3FBFFE
3180C6
3180C6
318CC6
318CC6
3F8CC6
3F8EC6
318FC6
318FC6
318D86
319D8E
3F9B8C
3F830C
31870C
31860C
318E0C
319C1C
319C1C
71BBF8
77BBF8
678000
000000
ENDCHAR

STARTCHAR A475
ENCODING 42101
SWIDTH 960 0
DWIDTH 24 0
BBX 24 24 0 -6
BITMAP
000000
000000
03FFE0
07FFF0
060030
07FFF0
03FFE0
000000
000000
01FFC0
03FFE0
030060
03FFE0
03FFE0
030060
030060
03FFE0
03FFE0
030060
030060
0303E0
0303E0
030000
000000
ENDCHAR

STARTCHAR A476
ENCODING 42102
SWIDTH 960 0
DWIDTH 24 0
BBX 24 24 0 -6
BITMAP
000000
1F0300
3F8300
318700
318E00
319FFE
31BFFE
3FF000
3FE000
319FF8
319FF8
3180F0
3181E0
3F83C0
3F8380
318700
318600
318E06
318C06
718C06
6D8C0E
6F8FFE
6787FC
000000
ENDCHAR

STARTCHAR A477
ENCODING 42103
SWIDTH 960 0
DWIDTH 24 0
BBX 24 24 0 -6
BITMAP
000000
0F8300
1FC300
18C300
18C300
18FFE0
18FFF0
1FC330
1FC330
18C330
18DF30
18DE30
18CE30
1FC730
1FC7B0
18C7F0
18CEF0
18CE36
38DC36
38FC36
30F83E
77E03C
67C000
000000
ENDCHAR

STARTCHAR A478
ENCODING 42104
SWIDTH 960 0
DWIDTH 24 0
BBX 24 24 0 -6
BITMAP
000000
00000C
1FF01C
1FF838
181870
1818E0
181BC0
1B1F8C
1BD80C
18D81C
181838
181870
18D9E0
19DBCC
1B9F0C
1B181C
181818
181838
181870
1818E0
18FBC0
30FF80
300C00
000000
ENDCHAR

STARTCHAR A479
ENCODING 42105
SWIDTH 960 0
DWIDTH 24 0
BBX 24 24 0 -6
BITMAP
000000
018300
018300
7FFFFE
7FFFFE
018300
018300
000000
7FFFFE
7FFFFE
001800
001800
001E00
001F00
001B80
0019C0
0018E0
001870
001830
001800
001800
001800
001800
000000
ENDCHAR

STARTCHAR A47A
ENCODING 42106
SWIDTH 960 0
DWIDTH 24 0
BBX 24 24 0 -6
BITMAP
000000
018180
018180
7FFFFE
7FFFFE
019980
019980
001800
001800
001800
001800
001800
3FFFFC
3FFFFC
001800
001800
001800
001800
001800
001800
001800
7FFFFE
7FFFFE
000000
ENDCHAR

STARTCHAR A47B
ENCODING 42107
SWIDTH 960 0
DWIDTH 24 0
BBX 24 24 0 -6
BITMAP
000000
018300
018300
7FFFFE
7FFFFE
018300
018300
01E700
006780
0063C0
0060C0
7FFFFC
7FFFFC
003000
003000
003800
001800
001C18
000E18
000738
0003F8
0000F0
000000
000000
ENDCHAR

STARTCHAR A47C
ENCODING 42108
SWIDTH 960 0
DWIDTH 24 0
BBX 24 24 0 -6
BITMAP
000000
0180C0
0180C0
7FFFFE
7FFFFE
0180C0
0180C0
000000
1FFFE0
1FFFF0
000030
000030
0FFFF0
1FFFE0
180000
180000
1FFFF0
1FFFF8
000018
000018
000038
001FF0
001FF0
000000
ENDCHAR

STARTCHAR A47D
ENCODING 42109
SWIDTH 960 0
DWIDTH 24 0
BBX 24 24 0 -6
BITMAP
000000
000000
018300
018300
7FFFFE
7FFFFE
018300
018300
1FFFE0
1FFFF0
000030
000030
000030
07FFF0
0FFFE0
0C0000
0C0000
0C0000
0C0006
0C000E
0FFFFE
0FFFFC
000000
000000
ENDCHAR

STARTCHAR A47E
ENCODING 42110
SWIDTH 960 0
DWIDTH 24 0
BBX 24 24 0 -6
BITMAP
000000
00C180
00C180
7FFFFE
7FFFFE
00C180
00C180
0FFFE0
0FFFE0
0003C0
000F00
000C00
000C00
7FFFFE
7FFFFE
000C00
000C00
000C00
000C00
000C00
000C00
00FC00
00F800
000000
ENDCHAR

STARTCHAR A4A1
ENCODING 42145
SWIDTH 960 0
DWIDTH 24 0
BBX 24 24 0 -6
BITMAP
000000
000000
003800
00FF00
01E780
03C380
0381C0
0301C0
0700E0
0700E0
0700E0
0700E0
0700E0
0700E0
0701E0
0381C0
0381C0
03C380
01FF80
00FF00
003800
000000
000000
000000
ENDCHAR

STARTCHAR A4A2
ENCODING 42146
SWIDTH 960 0
DWIDTH 24 0
BBX 24 24 0 -6
BITMAP
000000
000000
001800
003800
00F800
00F800
003800
003800
003800
003800
003800
003800
003800
003800
003800
003800
003800
003800
003800
01FF00
01FF00
000000
000000
000000
ENDCHAR

STARTCHAR A4A3
ENCODING 42147
SWIDTH 960 0
DWIDTH 24 0
BBX 24 24 0 -6
BITMAP
000000
000000
003C00
01FF00
03C780
0301C0
0781C0
0781C0
0781C0
030380
000380
000700
000E00
003C00
007800
01E000
03C060
030060
03FFC0
03FFC0
03FF80
000000
000000
000000
ENDCHAR

STARTCHAR A4A4
ENCODING 42148
SWIDTH 960 0
DWIDTH 24 0
BBX 24 24 0 -6
BITMAP
000000
000000
007C00
01FF80
03C3C0
0381C0
0380C0
0300C0
0001C0
000180
003F80
003F80
0001C0
0000C0
0000E0
0700E0
0700E0
0701E0
0783C0
03FF80
00FE00
000000
000000
000000
ENDCHAR

STARTCHAR A4A5
ENCODING 42149
SWIDTH 960 0
DWIDTH 24 0
BBX 24 24 0 -6
BITMAP
000000
000000
000300
000700
000F00
000F00
001F00
003F00
007700
006700
00C700
01C700
038700
070700
0FFFE0
0FFFE0
000700
000700
000700
000F80
000F80
000000
000000
000000
ENDCHAR

STARTCHAR A4A6
ENCODING 42150
SWIDTH 960 0
DWIDTH 24 0
BBX 24 24 0 -6
BITMAP
000000
000000
03FFC0
03FFC0
03FFC0
030000
030000
030000
030000
037F00
03FF80
0381C0
0001C0
0000E0
0300E0
0700E0
0701C0
0701C0
078780
03FF00
00FC00
000000
000000
000000
ENDCHAR

STARTCHAR A4A7
ENCODING 42151
SWIDTH 960 0
DWIDTH 24 0
BBX 24 24 0 -6
BITMAP
000000
000000
001E00
007F80
00E3C0
01C1C0
018080
038000
030000
073E00
077F80
07E3C0
0781E0
0700E0
0700E0
0700E0
0300E0
0381C0
01C3C0
01FF80
007E00
000000
000000
000000
ENDCHAR

STARTCHAR A4A8
ENCODING 42152
SWIDTH 960 0
DWIDTH 24 0
BBX 24 24 0 -6
BITMAP
000000
000000
07FFE0
07FFE0
07FFE0
0601C0
060180
060300
000700
000600
000E00
001C00
001C00
003800
003800
003800
007800
007800
007000
007000
007000
000000
000000
000000
ENDCHAR

STARTCHAR A4A9
ENCODING 42153
SWIDTH 960 0
DWIDTH 24 0
BBX 24 24 0 -6
BITMAP
000000
000000
003C00
00FF00
01C380
0381C0
0381C0
0381C0
0381C0
01C380
00FF00
00FF00
01C380
0381C0
0300E0
0700E0
0700E0
0700E0
0781C0
03FF80
00FE00
000000
000000
000000
ENDCHAR

STARTCHAR A4AA
ENCODING 42154
SWIDTH 960 0
DWIDTH 24 0
BBX 24 24 0 -6
BITMAP
000000
000000
007C00
01FF00
03C380
0381C0
0701C0
0700E0
0700E0
0700E0
0701E0
0387E0
03FFE0
00FCE0
0000E0
0000E0
0701C0
0701C0
078380
03FF00
00FC00
000000
000000
000000
ENDCHAR

STARTCHAR A4AB
ENCODING 42155
SWIDTH 960 0
DWIDTH 24 0
BBX 24 24 0 -6
BITMAP
000000
000000
01FF00
01FF00
003800
003800
003800
003800
003800
003800
003800
003800
003800
003800
003800
003800
003800
003800
003800
01FF00
01FF00
000000
000000
000000
ENDCHAR

STARTCHAR A4AC
ENCODING 42156
SWIDTH 960 0
DWIDTH 24 0
BBX 24 24 0 -6
BITMAP
000000
000000
1FE7F0
1FE7F0
0701C0
0701C0
0701C0
0701C0
0701C0
0701C0
0701C0
0701C0
0701C0
0701C0
0701C0
0701C0
0701C0
0701C0
0701C0
1FEFF0
1FEFF0
000000
000000
000000
ENDCHAR

STARTCHAR A4AD
ENCODING 42157
SWIDTH 960 0
DWIDTH 24 0
BBX 24 24 0 -6
BITMAP
000000
000000
3F7EFC
3F7EFC
0E3870
0E3870
0E3870
0E3870
0E3870
0E3870
0E3870
0E3870
0E3870
0E3870
0E3870
0E3870
0E3870
0E3870
0E3870
3F7EFC
3F7EFC
000000
000000
000000
ENDCHAR

STARTCHAR A4AE
ENCODING 42158
SWIDTH 960 0
DWIDTH 24 0
BBX 24 24 0 -6
BITMAP
000000
000000
7EF83E
7EF83E
1C7018
1C7018
1C3818
1C3830
1C3830
1C1C30
1C1C60
1C1C60
1C0C60
1C0EC0
1C0EC0
1C07C0
1C0780
1C0380
1C0380
7F0100
7F0100
000000
000000
000000
ENDCHAR

STARTCHAR A4AF
ENCODING 42159
SWIDTH 960 0
DWIDTH 24 0
BBX 24 24 0 -6
BITMAP
000000
000000
1FC3F8
1FC3F8
0700E0
0380C0
0380C0
038180
01C180
01C180
01C300
00E300
00E300
00E600
007600
007600
007C00
003C00
003C00
003800
001800
000000
000000
000000
ENDCHAR

STARTCHAR A4B0
ENCODING 42160
SWIDTH 960 0
DWIDTH 24 0
BBX 24 24 0 -6
BITMAP
000000
000000
7E1FFC
7E1FFC
180C70
180C70
180C70
1C1870
0C1870
0C1870
0E3870
063070
063070
073070
036070
03E070
03E070
01C070
01C070
01C3FE
0083FE
000000
000000
000000
ENDCHAR

STARTCHAR A4B1
ENCODING 42161
SWIDTH 960 0
DWIDTH 24 0
BBX 24 24 0 -6
BITMAP
000000
000000
7CFFBE
7CFFBE
30671C
30671C
30671C
30671C
18C71C
18C71C
18C71C
1D871C
0D871C
0F871C
0F871C
07071C
07071C
07071C
07071C
020FBE
020FBE
000000
000000
000000
ENDCHAR

STARTCHAR A4B2
ENCODING 42162
SWIDTH 960 0
DWIDTH 24 0
BBX 24 24 0 -6
BITMAP
000000
000000
79FFFE
79FFFE
30CCCC
30CCCC
30CCCC
30CCCC
18CCCC
198CCC
198CCC
198CCC
0D8CCC
0D8CCC
0F0CCC
0F0CCC
070CCC
070CCC
070CCC
063FFE
023FFE
000000
000000
000000
ENDCHAR

STARTCHAR A4B3
ENCODING 42163
SWIDTH 960 0
DWIDTH 24 0
BBX 24 24 0 -6
BITMAP
000000
000000
7EFEFC
7EFEFC
1C3830
1C1C30
1C1C60
1C0E60
1C0EC0
1C07C0
1C0780
1C0380
1C0780
1C07C0
1C0DC0
1C09E0
1C1CE0
1C18F0
1C3070
7F79FC
7F79FC
000000
000000
000000
ENDCHAR

STARTCHAR A4B4
ENCODING 42164
SWIDTH 960 0
DWIDTH 24 0
BBX 24 24 0 -6
BITMAP
000000
000000
0FE7E0
0FE7E0
038300
01C300
01C600
00E600
00EC00
007C00
007800
003800
003C00
007C00
006E00
00EE00
00C700
018700
018380
0FCFF0
0FCFF0
000000
000000
000000
ENDCHAR

STARTCHAR A4B5
ENCODING 42165
SWIDTH 960 0
DWIDTH 24 0
BBX 24 24 0 -6
BITMAP
000000
000000
003000
003800
003800
003800
003800
003800
003800
003800
003800
003800
003800
003800
003800
003800
003800
003800
003800
003800
003000
000000
000000
000000
ENDCHAR

STARTCHAR A4B6
ENCODING 42166
SWIDTH 960 0
DWIDTH 24 0
BBX 24 24 0 -6
BITMAP
000000
000000
000600
000700
01C700
01C700
01C700
01C700
01C700
01C700
01C700
01C700
01C700
01C700
01C700
01C700
01C700
000700
000700
000700
000600
000000
000000
000000
ENDCHAR

STARTCHAR A4B7
ENCODING 42167
SWIDTH 960 0
DWIDTH 24 0
BBX 24 24 0 -6
BITMAP
000000
000000
000180
0201C0
0301C0
033980
033980
033980
033980
033980
033980
033980
033980
033980
033980
033980
033980
033980
030180
000180
000180
000000
000000
000000
ENDCHAR

STARTCHAR A4B8
ENCODING 42168
SWIDTH 960 0
DWIDTH 24 0
BBX 24 24 0 -6
BITMAP
000000
000000
000000
0000C0
0300C0
0380C0
01C1C0
00E180
006180
003B80
003F00
001F00
000E00
003F00
003B80
00F3C0
01E1E0
0380F0
0F0078
3C003E
700000
000000
000000
000000
ENDCHAR

STARTCHAR A4B9
ENCODING 42169
SWIDTH 960 0
DWIDTH 24 0
BBX 24 24 0 -6
BITMAP
000000
000000
0000C0
00C180
018700
018600
01CC00
00F800
007800
007C00
00EE00
00C700
01C300
018380
018380
018380
01C380
01C300
00E700
007E00
003C00
000000
000000
000000
ENDCHAR

STARTCHAR A4BA
ENCODING 42170
SWIDTH 960 0
DWIDTH 24 0
BBX 24 24 0 -6
BITMAP
000000
000000
001800
001800
001800
001800
001800
3FFFFC
3FFFFC
000000
000000
000000
000000
000000
000000
000000
000000
000000
000000
000000
000000
000000
000000
000000
ENDCHAR

STARTCHAR A4BB
ENCODING 42171
SWIDTH 960 0
DWIDTH 24 0
BBX 24 24 0 -6
BITMAP
000000
000000
001800
001800
001800
001800
001800
3FFFFC
3FFFFC
000000
000000
000000
000000
0FFFE0
0FFFE0
000000
000000
000000
000000
000000
000000
000000
000000
000000
ENDCHAR

STARTCHAR A4BC
ENCODING 42172
SWIDTH 960 0
DWIDTH 24 0
BBX 24 24 0 -6
BITMAP
000000
000000
001800
001800
001800
001800
001800
3FFFFC
3FFFFC
000000
000000
000000
000000
0FFFE0
0FFFE0
000000
000000
000000
000000
3FFFFC
3FFFFC
000000
000000
000000
ENDCHAR

STARTCHAR A4BD
ENCODING 42173
SWIDTH 960 0
DWIDTH 24 0
BBX 24 24 0 -6
BITMAP
000000
000000
000000
00C000
00C000
01C000
018000
01FF80
01FF80
018380
00C300
00C700
006600
007600
003C00
003C00
007E00
00E780
03C3E0
0F01F0
1C0000
000000
000000
000000
ENDCHAR

STARTCHAR A4BE
ENCODING 42174
SWIDTH 960 0
DWIDTH 24 0
BBX 24 24 0 -6
BITMAP
000000
000000
003000
003800
003800
003800
003800
003800
003800
003800
1FFFF8
1FFFF8
003800
003800
003800
003800
003800
003800
003800
003800
003000
000000
000000
000000
ENDCHAR

STARTCHAR A4BF
ENCODING 42175
SWIDTH 960 0
DWIDTH 24 0
BBX 24 24 0 -6
BITMAP
000000
000000
018300
018300
018300
018300
018300
018300
018300
018300
3FFFFC
3FFFFC
018300
018300
018300
018300
018300
018300
018300
018300
018300
000000
000000
000000
ENDCHAR

STARTCHAR A4C0
ENCODING 42176
SWIDTH 960 0
DWIDTH 24 0
BBX 24 24 0 -6
BITMAP
000000
000000
000040
0300C0
0300C0
0318C0
0318C0
0318C0
0318C0
0318C0
3FFFFC
3FFFFC
0318C0
0318C0
0318C0
0318C0
0318C0
0318C0
0300C0
0300C0
0000C0
000000
000000
000000
ENDCHAR

STARTCHAR A4C1
ENCODING 42177
SWIDTH 960 0
DWIDTH 24 0
BBX 24 24 0 -6
BITMAP
000000
000000
001800
003C00
003C00
003C00
006E00
006E00
00C700
00C700
018380
018380
0301C0
03FFC0
0600E0
0600E0
0C0070
0C0070
180038
7F00FE
7F00FE
000000
000000
000000
ENDCHAR

STARTCHAR A4C2
ENCODING 42178
SWIDTH 960 0
DWIDTH 24 0
BBX 24 24 0 -6
BITMAP
000000
000000
1FFF00
1FFFC0
0701E0
0700F0
070070
070070
0700E0
0701C0
07FF80
07FFC0
0701E0
070070
070038
070038
070038
070078
0700F0
1FFFE0
1FFF80
000000
000000
000000
ENDCHAR

STARTCHAR A4C3
ENCODING 42179
SWIDTH 960 0
DWIDTH 24 0
BBX 24 24 0 -6
BITMAP
000000
000000
003C30
01FFB0
03C1F0
070070
0F0038
0E0018
1E0000
1C0000
1C0000
1C0000
1C0000
1C0000
1E0008
1E0018
0F0030
0F80F0
07E7E0
03FF80
007C00
000000
000000
000000
ENDCHAR

STARTCHAR A4C4
ENCODING 42180
SWIDTH 960 0
DWIDTH 24 0
BBX 24 24 0 -6
BITMAP
000000
000000
3FFE00
3FFF80
0E01C0
0E00E0
0E0070
0E0078
0E0038
0E003C
0E003C
0E003C
0E003C
0E0038
0E0038
0E0070
0E00F0
0E01E0
0E03C0
3FFF80
3FFE00
000000
000000
000000
ENDCHAR

STARTCHAR A4C5
ENCODING 42181
SWIDTH 960 0
DWIDTH 24 0
BBX 24 24 0 -6
BITMAP
000000
000000
1FFFF0
1FFFF0
070038
070018
070018
070000
070180
070180
070380
07FF80
070380
070180
070180
070000
070018
070018
070038
1FFFF0
1FFFF0
000000
000000
000000
ENDCHAR

STARTCHAR A4C6
ENCODING 42182
SWIDTH 960 0
DWIDTH 24 0
BBX 24 24 0 -6
BITMAP
000000
000000
1FFFF0
1FFFF8
070038
070018
070008
070000
070180
070180
070380
07FF80
070380
070180
070180
070000
070000
070000
070000
1FE000
1FE000
000000
000000
000000
ENDCHAR

STARTCHAR A4C7
ENCODING 42183
SWIDTH 960 0
DWIDTH 24 0
BBX 24 24 0 -6
BITMAP
000000
000000
007C00
01FF80
07C3E0
0F00F0
1E0070
1C0030
3C0000
380000
380000
380000
3800FC
3C0078
3C0030
1E0030
1E0070
0F01F0
07C7B0
03FE30
007800
000000
000000
000000
ENDCHAR

STARTCHAR A4C8
ENCODING 42184
SWIDTH 960 0
DWIDTH 24 0
BBX 24 24 0 -6
BITMAP
000000
000000
3FC3FC
3FC3FC
0E00E0
0E00E0
0E00E0
0E00E0
0E00E0
0E00E0
0E00E0
0FFFE0
0FFFE0
0E00E0
0E00E0
0E00E0
0E00E0
0E00E0
0E00E0
3FC3FC
3FC3FC
000000
000000
000000
ENDCHAR

STARTCHAR A4C9
ENCODING 42185
SWIDTH 960 0
DWIDTH 24 0
BBX 24 24 0 -6
BITMAP
000000
000000
00FF80
00FF80
001C00
001C00
001C00
001C00
001C00
001C00
001C00
001C00
001C00
001C00
001C00
001C00
001C00
001C00
001C00
01FF80
01FF80
000000
000000
000000
ENDCHAR

STARTCHAR A4CA
ENCODING 42186
SWIDTH 960 0
DWIDTH 24 0
BBX 24 24 0 -6
BITMAP
000000
000000
003FC0
003FC0
000700
000700
000700
000700
000700
000700
000700
000700
000700
000700
000700
030700
038F00
038E00
038E00
01FC00
007000
000000
000000
000000
ENDCHAR

STARTCHAR A4CB
ENCODING 42187
SWIDTH 960 0
DWIDTH 24 0
BBX 24 24 0 -6
BITMAP
000000
000000
7F8FF8
7F8FF8
0E0380
0E0700
0E0E00
0E1C00
0E3800
0E7000
0EF000
0FF800
0FBC00
0F1E00
0E0F00
0E0780
0E03C0
0E01E0
0E00F0
7F81FE
7F81FE
000000
000000
000000
ENDCHAR

STARTCHAR A4CC
ENCODING 42188
SWIDTH 960 0
DWIDTH 24 0
BBX 24 24 0 -6
BITMAP
000000
000000
1FC000
1FC000
070000
070000
070000
070000
070000
070000
070000
070000
070000
070000
070000
070000
07000C
07001C
070038
3FFFF8
3FFFF0
000000
000000
000000
ENDCHAR

STARTCHAR A4CD
ENCODING 42189
SWIDTH 960 0
DWIDTH 24 0
BBX 24 24 0 -6
BITMAP
000000
000000
38003C
3C007C
1C0078
1E00F8
1E00F8
1701B8
1701B8
138338
138338
11C638
11C638
10EC38
10EC38
107838
107838
103838
103038
7E00FE
7E00FE
000000
000000
000000
ENDCHAR

STARTCHAR A4CE
ENCODING 42190
SWIDTH 960 0
DWIDTH 24 0
BBX 24 24 0 -6
BITMAP
000000
000000
1C00FC
1E00FC
0F0020
0F8020
0FC020
0DC020
0CE020
0C7020
0C3820
0C3820
0C1C20
0C0E20
0C0720
0C03A0
0C01E0
0C00E0
0C0060
3F0020
3F0020
000000
000000
000000
ENDCHAR

STARTCHAR A4CF
ENCODING 42191
SWIDTH 960 0
DWIDTH 24 0
BBX 24 24 0 -6
BITMAP
000000
000000
007C00
01FF80
0781C0
0F00E0
1E0070
1C0030
3C0038
380038
380038
380038
380038
380038
3C0038
1C0030
1E0070
0F00E0
0781E0
01FF80
007E00
000000
000000
000000
ENDCHAR

STARTCHAR A4D0
ENCODING 42192
SWIDTH 960 0
DWIDTH 24 0
BBX 24 24 0 -6
BITMAP
000000
000000
0FFE00
0FFF80
0381C0
0380E0
0380E0
038070
038070
0380E0
0380E0
0381C0
03FF80
03FE00
038000
038000
038000
038000
038000
1FE000
1FE000
000000
000000
000000
ENDCHAR

STARTCHAR A4D1
ENCODING 42193
SWIDTH 960 0
DWIDTH 24 0
BBX 24 24 0 -6
BITMAP
000000
000000
007C00
01FF80
0781C0
0E00E0
1E0070
1C0030
3C0038
380038
380038
380038
380038
3C0038
3C0038
1E7870
1EFC70
0F8EE0
0787C0
01FF80
007FDC
0001F8
0000F0
000000
ENDCHAR

STARTCHAR A4D2
ENCODING 42194
SWIDTH 960 0
DWIDTH 24 0
BBX 24 24 0 -6
BITMAP
000000
000000
0FFE00
0FFF80
0303C0
0301E0
0300E0
0300E0
0300E0
0301C0
0303C0
030780
03FF00
030700
030380
030380
0301C0
0301C8
0300F8
1FE0F0
1FE060
000000
000000
000000
ENDCHAR

STARTCHAR A4D3
ENCODING 42195
SWIDTH 960 0
DWIDTH 24 0
BBX 24 24 0 -6
BITMAP
000000
000000
003C00
03FFC0
07C3E0
0700E0
0E0060
0E0000
0F0000
07F000
01FF00
003FC0
0007E0
0800F0
080070
0C0070
0E0070
0F00E0
0BC1E0
08FFC0
003E00
000000
000000
000000
ENDCHAR

STARTCHAR A4D4
ENCODING 42196
SWIDTH 960 0
DWIDTH 24 0
BBX 24 24 0 -6
BITMAP
000000
000000
1FFFF8
1FFFF8
183818
30380C
30380C
003800
003800
003800
003800
003800
003800
003800
003800
003800
003800
003800
003800
01FF00
01FF00
000000
000000
000000
ENDCHAR

STARTCHAR A4D5
ENCODING 42197
SWIDTH 960 0
DWIDTH 24 0
BBX 24 24 0 -6
BITMAP
000000
000000
3FC0FC
3FC0FC
0E0030
0E0030
0E0030
0E0030
0E0030
0E0030
0E0030
0E0030
0E0030
0E0030
0E0030
0F0030
070060
0780E0
03C1C0
01FF80
003C00
000000
000000
000000
ENDCHAR

STARTCHAR A4D6
ENCODING 42198
SWIDTH 960 0
DWIDTH 24 0
BBX 24 24 0 -6
BITMAP
000000
000000
7F007E
7F007E
1E0018
0E0030
0F0030
070060
078060
0380C0
03C0C0
01C180
01E180
00E300
00F300
007600
007E00
003C00
003C00
001800
001800
000000
000000
000000
ENDCHAR

STARTCHAR A4D7
ENCODING 42199
SWIDTH 960 0
DWIDTH 24 0
BBX 24 24 0 -6
BITMAP
000000
000000
7C001E
7C7E1E
301C0C
301C0C
383E0C
383E0C
182E18
1C6718
1C6718
0E4718
0EC3B0
0EC3B0
0681B0
0781E0
0781E0
0301C0
0300C0
0300C0
020080
000000
000000
000000
ENDCHAR

STARTCHAR A4D8
ENCODING 42200
SWIDTH 960 0
DWIDTH 24 0
BBX 24 24 0 -6
BITMAP
000000
000000
7F00FC
7F00FC
1C0030
0E0030
070060
0380C0
01C180
00E300
007E00
003C00
001C00
003E00
006700
00C380
0181C0
0300E0
060070
3F01FC
3F01FC
000000
000000
000000
ENDCHAR

STARTCHAR A4D9
ENCODING 42201
SWIDTH 960 0
DWIDTH 24 0
BBX 24 24 0 -6
BITMAP
000000
000000
3F80FC
3F80FC
070030
038070
0180E0
01C1C0
00E380
007700
007E00
003E00
003C00
001C00
001C00
001C00
001C00
001C00
001C00
007F00
007F00
000000
000000
000000
ENDCHAR

STARTCHAR A4DA
ENCODING 42202
SWIDTH 960 0
DWIDTH 24 0
BBX 24 24 0 -6
BITMAP
000000
000000
07FFF0
07FFF0
0E01E0
0C01C0
000380
000780
000F00
000E00
001C00
003800
007800
007000
00E000
01C010
038030
070030
0F0070
0FFFF0
0FFFF0
000000
000000
000000
ENDCHAR

STARTCHAR A4DB
ENCODING 42203
SWIDTH 960 0
DWIDTH 24 0
BBX 24 24 0 -6
BITMAP
000000
000000
000000
000000
000000
000000
000000
000000
000000
00FC00
03FE00
03C700
010300
00FF00
03C700
070300
060300
060720
070FE0
03FBC0
01E180
000000
000000
000000
ENDCHAR

STARTCHAR A4DC
ENCODING 42204
SWIDTH 960 0
DWIDTH 24 0
BBX 24 24 0 -6
BITMAP
000000
000000
030000
070000
030000
030000
030000
030000
030000
033C00
037F00
03C380
0381C0
0300C0
0300E0
0300E0
0380E0
0381C0
03E3C0
037F80
031E00
000000
000000
000000
ENDCHAR

STARTCHAR A4DD
ENCODING 42205
SWIDTH 960 0
DWIDTH 24 0
BBX 24 24 0 -6
BITMAP
000000
000000
000000
000000
000000
000000
000000
000000
000000
003E00
00FF00
01C380
038180
030180
030000
030000
038040
0380C0
01C1C0
00FF80
003C00
000000
000000
000000
ENDCHAR

STARTCHAR A4DE
ENCODING 42206
SWIDTH 960 0
DWIDTH 24 0
BBX 24 24 0 -6
BITMAP
000000
000000
000180
000780
000180
000180
000180
000180
000180
007D80
01FF80
038780
070380
070180
070180
070180
070180
070380
038780
01FDE0
00F8E0
000000
000000
000000
ENDCHAR

STARTCHAR A4DF
ENCODING 42207
SWIDTH 960 0
DWIDTH 24 0
BBX 24 24 0 -6
BITMAP
000000
000000
000000
000000
000000
000000
000000
000000
000000
007E00
00FF80
01C180
0380C0
0380C0
03FFC0
038000
0380C0
03C0C0
01C180
00FF00
007C00
000000
000000
000000
ENDCHAR

STARTCHAR A4E0
ENCODING 42208
SWIDTH 960 0
DWIDTH 24 0
BBX 24 24 0 -6
BITMAP
000000
000000
000600
001F00
003B80
003180
003000
003000
003000
01FF00
003000
003000
003000
003000
003000
003000
003000
003000
003000
00FC00
00FC00
000000
000000
000000
ENDCHAR

STARTCHAR A4E1
ENCODING 42209
SWIDTH 960 0
DWIDTH 24 0
BBX 24 24 0 -6
BITMAP
000000
000000
000000
000000
000000
000000
000000
000000
001000
007DC0
00EFC0
01C700
018300
018300
01C700
00FE00
003C00
00FE00
01C700
038380
030180
03C780
01FE00
000000
ENDCHAR

STARTCHAR A4E2
ENCODING 42210
SWIDTH 960 0
DWIDTH 24 0
BBX 24 24 0 -6
BITMAP
000000
000000
018000
038000
018000
018000
018000
018000
018000
01BE00
01FF00
01C380
018180
018180
018180
018180
018180
018180
018180
07C7E0
07C7E0
000000
000000
000000
ENDCHAR

STARTCHAR A4E3
ENCODING 42211
SWIDTH 960 0
DWIDTH 24 0
BBX 24 24 0 -6
BITMAP
000000
000000
000000
000000
001800
003C00
003C00
001800
000000
003800
003800
001800
001800
001800
001800
001800
001800
001800
001800
007E00
007E00
000000
000000
000000
ENDCHAR

STARTCHAR A4E4
ENCODING 42212
SWIDTH 960 0
DWIDTH 24 0
BBX 24 24 0 -6
BITMAP
000000
000000
000000
000000
000600
000F00
000F00
000600
000000
000E00
000E00
000600
000600
000600
000600
000600
000600
000600
000600
004E00
00EC00
00FC00
007800
000000
ENDCHAR

STARTCHAR A4E5
ENCODING 42213
SWIDTH 960 0
DWIDTH 24 0
BBX 24 24 0 -6
BITMAP
000000
000000
030000
070000
030000
030000
030000
030000
030000
031F80
030E00
030C00
031800
033000
037800
03DC00
038E00
030700
030380
07CFE0
07CFE0
000000
000000
000000
ENDCHAR

STARTCHAR A4E6
ENCODING 42214
SWIDTH 960 0
DWIDTH 24 0
BBX 24 24 0 -6
BITMAP
000000
000000
001800
003800
001800
001800
001800
001800
001800
001800
001800
001800
001800
001800
001800
001800
001800
001800
001800
007E00
007E00
000000
000000
000000
ENDCHAR

STARTCHAR A4E7
ENCODING 42215
SWIDTH 960 0
DWIDTH 24 0
BBX 24 24 0 -6
BITMAP
000000
000000
000000
000000
000000
000000
000000
000000
000000
08F3C0
0DFFF0
0F1C70
0E1830
0C1830
0C1830
0C1830
0C1830
0C1830
0C1830
1F3CFC
1F3CFC
000000
000000
000000
ENDCHAR

STARTCHAR A4E8
ENCODING 42216
SWIDTH 960 0
DWIDTH 24 0
BBX 24 24 0 -6
BITMAP
000000
000000
000000
000000
000000
000000
000000
000000
000000
033E00
037F00
03C380
038180
030180
030180
030180
030180
030180
030180
07C7E0
07C7E0
000000
000000
000000
ENDCHAR

STARTCHAR A4E9
ENCODING 42217
SWIDTH 960 0
DWIDTH 24 0
BBX 24 24 0 -6
BITMAP
000000
000000
000000
000000
000000
000000
000000
000000
000000
003C00
00FF00
01C380
0381C0
0700C0
0700E0
0700E0
0300C0
0381C0
01C380
00FF00
003C00
000000
000000
000000
ENDCHAR

STARTCHAR A4EA
ENCODING 42218
SWIDTH 960 0
DWIDTH 24 0
BBX 24 24 0 -6
BITMAP
000000
000000
000000
000000
000000
000000
000000
000000
000000
03BE00
01FF00
01C380
0181C0
0180C0
0180C0
0180C0
018180
01C380
01FF00
01BE00
018000
01C000
03E000
000000
ENDCHAR

STARTCHAR A4EB
ENCODING 42219
SWIDTH 960 0
DWIDTH 24 0
BBX 24 24 0 -6
BITMAP
000000
000000
000000
000000
000000
000000
000000
000000
000000
007D80
01FF80
038380
030180
030180
030180
030180
038180
01C380
00FF80
003D80
000180
000380
0007C0
000000
ENDCHAR

STARTCHAR A4EC
ENCODING 42220
SWIDTH 960 0
DWIDTH 24 0
BBX 24 24 0 -6
BITMAP
000000
000000
000000
000000
000000
000000
000000
000000
000000
01DF00
00FB80
00E180
00C000
00C000
00C000
00C000
00C000
00C000
00C000
01F000
01F000
000000
000000
000000
ENDCHAR

STARTCHAR A4ED
ENCODING 42221
SWIDTH 960 0
DWIDTH 24 0
BBX 24 24 0 -6
BITMAP
000000
000000
000000
000000
000000
000000
000000
000000
000000
007D80
01FF80
038180
038080
01F000
007E00
001F80
0001C0
0301C0
0381C0
01FF80
00FE00
000000
000000
000000
ENDCHAR

STARTCHAR A4EE
ENCODING 42222
SWIDTH 960 0
DWIDTH 24 0
BBX 24 24 0 -6
BITMAP
000000
000000
000000
000000
000000
003000
003000
003000
003000
01FF00
003000
003000
003000
003000
003000
003000
003000
003000
003900
001F00
000E00
000000
000000
000000
ENDCHAR

STARTCHAR A4EF
ENCODING 42223
SWIDTH 960 0
DWIDTH 24 0
BBX 24 24 0 -6
BITMAP
000000
000000
000000
000000
000000
000000
000000
000000
000000
038380
038380
018180
018180
018180
018180
018180
018180
018180
01C380
00FFC0
003CC0
000000
000000
000000
ENDCHAR

STARTCHAR A4F0
ENCODING 42224
SWIDTH 960 0
DWIDTH 24 0
BBX 24 24 0 -6
BITMAP
000000
000000
000000
000000
000000
000000
000000
000000
000000
0FC1F0
0380C0
0180C0
01C180
00C180
00E300
006300
007600
003E00
003C00
001C00
000800
000000
000000
000000
ENDCHAR

STARTCHAR A4F1
ENCODING 42225
SWIDTH 960 0
DWIDTH 24 0
BBX 24 24 0 -6
BITMAP
000000
000000
000000
000000
000000
000000
000000
000000
000000
7E7E7E
387E18
1C1818
1C3C18
0E3E30
0E3630
076760
0763E0
03C3C0
03C1C0
018180
018080
000000
000000
000000
ENDCHAR

STARTCHAR A4F2
ENCODING 42226
SWIDTH 960 0
DWIDTH 24 0
BBX 24 24 0 -6
BITMAP
000000
000000
000000
000000
000000
000000
000000
000000
000000
07E7C0
01C300
00C700
006E00
007C00
003800
003C00
006E00
006600
00C300
07E7E0
07E7E0
000000
000000
000000
ENDCHAR

STARTCHAR A4F3
ENCODING 42227
SWIDTH 960 0
DWIDTH 24 0
BBX 24 24 0 -6
BITMAP
000000
000000
000000
000000
000000
000000
000000
000000
000000
07E3E0
0180C0
01C180
00C180
00E300
007700
003600
003E00
001C00
001C00
031800
03B800
01F000
00E000
000000
ENDCHAR

STARTCHAR A4F4
ENCODING 42228
SWIDTH 960 0
DWIDTH 24 0
BBX 24 24 0 -6
BITMAP
000000
000000
000000
000000
000000
000000
000000
000000
000000
01FFC0
0183C0
010780
010F00
001E00
003C00
007800
00F040
01E0C0
03C0C0
03FFC0
03FFC0
000000
000000
000000
ENDCHAR

STARTCHAR A4F5
ENCODING 42229
SWIDTH 960 0
DWIDTH 24 0
BBX 24 24 0 -6
BITMAP
000000
000000
001800
001C00
003C00
003E00
006E00
006F00
00C700
00C780
018380
0183C0
0301C0
03FFE0
0600E0
0600F0
0C0070
0C0078
180038
7F00FE
7F00FE
000000
000000
000000
ENDCHAR

STARTCHAR A4F6
ENCODING 42230
SWIDTH 960 0
DWIDTH 24 0
BBX 24 24 0 -6
BITMAP
000000
000000
1FFF00
1FFFC0
0701E0
0700F0
070070
070070
0700E0
0701C0
07FF80
07FFC0
0701E0
070070
070038
070038
070038
070078
0700F0
1FFFE0
1FFF80
000000
000000
000000
ENDCHAR

STARTCHAR A4F7
ENCODING 42231
SWIDTH 960 0
DWIDTH 24 0
BBX 24 24 0 -6
BITMAP
000000
000000
1FFFF0
1FFFF0
01C038
01C018
01C018
01C000
01C000
01C000
01C000
01C000
01C000
01C000
01C000
01C000
01C000
01C000
01C000
0FF800
0FF800
000000
000000
000000
ENDCHAR

STARTCHAR A4F8
ENCODING 42232
SWIDTH 960 0
DWIDTH 24 0
BBX 24 24 0 -6
BITMAP
000000
000000
001800
001800
003C00
003C00
006E00
006600
00C700
00C300
018380
018180
0301C0
0300C0
0600E0
060060
0C0070
0C0030
180030
1FFFF8
1FFFF8
000000
000000
000000
ENDCHAR

STARTCHAR A4F9
ENCODING 42233
SWIDTH 960 0
DWIDTH 24 0
BBX 24 24 0 -6
BITMAP
000000
000000
1FFFF0
1FFFF0
070038
070018
070018
070000
070180
070180
070380
07FF80
070380
070180
070180
070000
070018
070018
070038
1FFFF0
1FFFF0
000000
000000
000000
ENDCHAR

STARTCHAR A4FA
ENCODING 42234
SWIDTH 960 0
DWIDTH 24 0
BBX 24 24 0 -6
BITMAP
000000
000000
07FFF0
07FFF0
0E01E0
0C01C0
000380
000780
000F00
000E00
001C00
003800
007800
00F000
00E000
01C010
038030
070030
0F0070
0FFFF0
0FFFF0
000000
000000
000000
ENDCHAR

STARTCHAR A4FB
ENCODING 42235
SWIDTH 960 0
DWIDTH 24 0
BBX 24 24 0 -6
BITMAP
000000
000000
3FC3FC
3FC3FC
0E00E0
0E00E0
0E00E0
0E00E0
0E00E0
0E00E0
0E00E0
0FFFE0
0E00E0
0E00E0
0E00E0
0E00E0
0E00E0
0E00E0
0E00E0
3FC3FC
3FC3FC
000000
000000
000000
ENDCHAR

STARTCHAR A4FC
ENCODING 42236
SWIDTH 960 0
DWIDTH 24 0
BBX 24 24 0 -6
BITMAP
000000
000000
007C00
01FF80
0781E0
0E00F0
1E0070
1C0038
3D81BC
39819C
39FF9C
39FF9C
39819C
39819C
1C0038
1C0038
0E0070
0F00F0
0781E0
03FF80
007E00
000000
000000
000000
ENDCHAR

STARTCHAR A4FD
ENCODING 42237
SWIDTH 960 0
DWIDTH 24 0
BBX 24 24 0 -6
BITMAP
000000
000000
00FF80
00FF80
001C00
001C00
001C00
001C00
001C00
001C00
001C00
001C00
001C00
001C00
001C00
001C00
001C00
001C00
001C00
01FF80
01FF80
000000
000000
000000
ENDCHAR

STARTCHAR A4FE
ENCODING 42238
SWIDTH 960 0
DWIDTH 24 0
BBX 24 24 0 -6
BITMAP
000000
000000
7F8FF8
7F8FF8
0E0380
0E0700
0E0E00
0E1C00
0E3800
0E7000
0EF000
0FF800
0FBC00
0F1E00
0E0F00
0E0780
0E03C0
0E01E0
0E00F0
7F81FE
7F81FE
000000
000000
000000
ENDCHAR

STARTCHAR A521
ENCODING 42273
SWIDTH 960 0
DWIDTH 24 0
BBX 24 24 0 -6
BITMAP
000000
018180
018180
018180
7FFFFE
7FFFFE
018180
018180
0181F0
1FFFF0
1FFFC0
001800
001800
001800
7FFFFE
7FFFFE
001800
001800
001800
001800
001800
001800
001800
000000
ENDCHAR

STARTCHAR A522
ENCODING 42274
SWIDTH 960 0
DWIDTH 24 0
BBX 24 24 0 -6
BITMAP
000000
030300
030300
030300
7FFFFE
7FFFFE
030300
030300
01FE00
03FF00
030300
030300
034300
036300
037300
033B00
031B00
030B00
070306
060306
1E030E
7C03FE
7801FC
000000
ENDCHAR

STARTCHAR A523
ENCODING 42275
SWIDTH 960 0
DWIDTH 24 0
BBX 24 24 0 -6
BITMAP
000000
018300
018300
7FFFFE
7FFFFE
018300
018300
01E300
006000
006000
3FFF80
3FFF80
006180
066180
07E180
03C180
01E380
01F300
03FB00
079B0C
1F030C
7E03FC
7001FC
000000
ENDCHAR

STARTCHAR A524
ENCODING 42276
SWIDTH 960 0
DWIDTH 24 0
BBX 24 24 0 -6
BITMAP
000000
0000C0
000FC0
00FF00
0FFC18
0F0C78
038CF0
0187C0
01C780
00FF00
03FE00
1FDF00
1E3F00
007300
00E780
03CF80
0F9D80
0E3980
007180
01E180
0F8180
0E1F80
001F00
000000
ENDCHAR

STARTCHAR A525
ENCODING 42277
SWIDTH 960 0
DWIDTH 24 0
BBX 24 24 0 -6
BITMAP
000000
000000
303FFC
383FFC
1C300C
0C300C
003FFC
003FFC
003000
7E3000
7E3000
063000
0C3000
0C3000
183000
786000
1C6000
06C000
06C000
0C0000
1F0000
3BFFFE
70FFFC
000000
ENDCHAR

STARTCHAR A526
ENCODING 42278
SWIDTH 960 0
DWIDTH 24 0
BBX 24 24 0 -6
BITMAP
000000
000300
300300
380300
1C0318
0CC318
00C318
00C318
00C318
7EC318
7EC318
06C318
0CC318
0CC318
18C318
78C318
1CFFF8
06FFF8
060000
0C0000
1F0000
3BFFFE
70FFFC
000000
ENDCHAR

STARTCHAR A527
ENCODING 42279
SWIDTH 960 0
DWIDTH 24 0
BBX 24 24 0 -6
BITMAP
000000
030000
0300FE
0301FE
7FF98E
7FF98C
00019C
000198
0781B8
0FC1B0
0CC1B8
0CC19C
0CC18E
0CC18E
0CC186
0CC186
0CC186
0CC186
1CCDBE
18CD9C
38FD80
707980
600180
000000
ENDCHAR

STARTCHAR A528
ENCODING 42280
SWIDTH 960 0
DWIDTH 24 0
BBX 24 24 0 -6
BITMAP
000000
018000
0180FE
0181FE
01818C
7FFD9C
7FFD98
0301B8
0301B0
0301F0
03F9E0
03FDF0
030DB8
030D9C
070D8C
060D8E
060D86
060D86
0E0D86
1C0DBE
3D9D9C
79F980
70F180
000000
ENDCHAR

STARTCHAR A529
ENCODING 42281
SWIDTH 960 0
DWIDTH 24 0
BBX 24 24 0 -6
BITMAP
000000
0301FE
0301FE
03018E
03018C
03019C
1FE198
3FF1B8
3331B0
3331B8
333198
07019C
07018E
07018E
078186
0F9986
0DB986
0DF186
19E1E6
19C1FE
3381BC
630180
000180
000000
ENDCHAR

STARTCHAR A52A
ENCODING 42282
SWIDTH 960 0
DWIDTH 24 0
BBX 24 24 0 -6
BITMAP
000000
018000
0180FE
0181FE
01818E
01818C
1FF19C
1FF198
0181B8
0181B0
0181B8
7FFD9C
7FFD8E
01818E
01C186
01C186
03C186
03E186
0761BE
0E319C
1C1980
380D80
600580
000000
ENDCHAR

STARTCHAR A52B
ENCODING 42283
SWIDTH 960 0
DWIDTH 24 0
BBX 24 24 0 -6
BITMAP
000000
1FF0FE
1FF1FE
00018E
00018C
00019C
000198
7FFDB8
7FFDB0
06C1B8
06C198
06C19C
06C18C
06C18E
06C186
06C186
0EC186
0CCD86
0CCDBE
1CCD9C
78FD80
707D80
000180
000000
ENDCHAR

STARTCHAR A52C
ENCODING 42284
SWIDTH 960 0
DWIDTH 24 0
BBX 24 24 0 -6
BITMAP
000000
07E1FE
0FE3FE
0C630C
0C631C
1C7318
1C7338
383B30
701F70
600F60
7FE378
7FF33C
03331C
03330E
03330E
033306
073306
063306
063306
0E337E
1F337E
3FF300
39F300
000000
ENDCHAR

STARTCHAR A52D
ENCODING 42285
SWIDTH 960 0
DWIDTH 24 0
BBX 24 24 0 -6
BITMAP
000000
3E6300
7E6300
666300
666300
6C6300
6C6304
7C630C
78631C
7C6378
6E7FF0
667FC0
636300
636300
636300
636300
636306
6F6306
666306
606F86
607FFE
63F9FE
638000
000000
ENDCHAR

STARTCHAR A52E
ENCODING 42286
SWIDTH 960 0
DWIDTH 24 0
BBX 24 24 0 -6
BITMAP
000000
3F0000
7F1FFE
673FFE
663000
6E3000
6C37F8
7837FC
78360C
7C360C
6E360C
66360C
66360C
63360C
63360C
63367C
63767C
7F6600
6EC606
618606
600606
6007FE
6003FC
000000
ENDCHAR

STARTCHAR A52F
ENCODING 42287
SWIDTH 960 0
DWIDTH 24 0
BBX 24 24 0 -6
BITMAP
000000
0000C0
3F00C0
7F00C0
6300C0
6700C0
6618C0
6618C0
6E18C0
6C18C0
6E18FE
6618FE
6718C0
6318C0
6398C0
6198C0
6198C0
6198C0
6F98C0
6718C0
6018C0
63FFFE
63FFFE
000000
ENDCHAR

STARTCHAR A530
ENCODING 42288
SWIDTH 960 0
DWIDTH 24 0
BBX 24 24 0 -6
BITMAP
000000
000C00
3F0C00
7F1800
6738C0
6E70E0
6EE3F0
7DFFF0
7DFDB8
6C1998
661980
661980
661980
631980
631980
631980
7E3980
7C3180
603186
607186
60E1FE
63C0FC
600000
000000
ENDCHAR

STARTCHAR A531
ENCODING 42289
SWIDTH 960 0
DWIDTH 24 0
BBX 24 24 0 -6
BITMAP
000000
00C600
00C600
00C600
07FFE0
0FFFF0
0CC630
0CC630
0FFFF0
07FFE0
00C600
00C600
0FFFF8
1FFFFC
18C60C
18C60C
18C60C
1FFFFC
0FFFF8
00C600
018600
018600
030600
000000
ENDCHAR

STARTCHAR A532
ENCODING 42290
SWIDTH 960 0
DWIDTH 24 0
BBX 24 24 0 -6
BITMAP
000000
030300
030300
030300
073FF8
067FFC
0E600C
0E603C
1E61FC
1E7FEC
3E1F0C
760300
660300
06FFFE
06FFFE
060300
060300
060300
060306
060306
060306
0603FE
0601FE
000000
ENDCHAR

STARTCHAR A533
ENCODING 42291
SWIDTH 960 0
DWIDTH 24 0
BBX 24 24 0 -6
BITMAP
000000
030300
030300
070300
060300
0FFFFE
1DFFFE
1C1C18
3C3C1C
7C780C
6CF03E
0CF836
0C1830
0C1C70
0C0C70
0C0EE0
0C06E0
0C07C0
0C0380
0C07C0
0C1EF0
0CFC3C
0CF00E
000000
ENDCHAR

STARTCHAR A534
ENCODING 42292
SWIDTH 960 0
DWIDTH 24 0
BBX 24 24 0 -6
BITMAP
000000
018300
018300
038300
030300
07FFFE
0EFFFE
0E01C0
1E0380
1E6718
3E7E38
763C70
661EE6
0607CE
06039C
060738
060E70
063CE0
0671E0
06C770
061E18
06780C
066006
000000
ENDCHAR

STARTCHAR A535
ENCODING 42293
SWIDTH 960 0
DWIDTH 24 0
BBX 24 24 0 -6
BITMAP
000000
060300
060300
0E0300
0C0700
1C0700
180FFC
3FEFFC
3FEF98
381DB8
7819B0
783980
7831C0
1801C0
1801C0
1803E0
1803E0
1FF370
1FF770
180738
180E1C
183C0E
183806
000000
ENDCHAR

STARTCHAR A536
ENCODING 42294
SWIDTH 960 0
DWIDTH 24 0
BBX 24 24 0 -6
BITMAP
000000
030006
030006
07FFB6
07FFB6
0E6636
1C6636
3C6636
7C6636
6C6636
4DFFB6
0DFFB6
0C6636
0C6636
0C6636
0C6636
0C6636
0C6636
0CC636
0CC636
0CC606
0D863E
0D863C
000000
ENDCHAR

STARTCHAR A537
ENCODING 42295
SWIDTH 960 0
DWIDTH 24 0
BBX 24 24 0 -6
BITMAP
000000
030300
030300
07FFFE
06FFFE
060300
0EFFF8
0CFFFC
1C030C
1C030C
3CFFFC
7CFFF8
6CC300
0CC300
0CFFFC
0C7FFE
0C0306
0C073E
0C0FBC
0C1DC0
0C78F0
0DF03C
0DC00E
000000
ENDCHAR

STARTCHAR A538
ENCODING 42296
SWIDTH 960 0
DWIDTH 24 0
BBX 24 24 0 -6
BITMAP
000000
0180C0
0180C0
0180C0
0380C0
0300C0
077FFE
067FFE
0E00C0
1E00C0
3E3FFC
763FFC
660000
060000
061FF8
061FFC
06180C
06180C
06180C
06180C
061FFC
060FF8
060000
000000
ENDCHAR

STARTCHAR A539
ENCODING 42297
SWIDTH 960 0
DWIDTH 24 0
BBX 24 24 0 -6
BITMAP
000000
018000
01FFFE
03FFFE
030C30
070C30
0E0C30
0E0FF0
1C0FF0
3C0C30
7C0C30
6C0C30
0C0FF0
0C0FF0
0C0C30
0C0C30
0C0C3E
0C0DFE
0C1FF0
0CFF30
0CF030
0C0030
0C0030
000000
ENDCHAR

STARTCHAR A53A
ENCODING 42298
SWIDTH 960 0
DWIDTH 24 0
BBX 24 24 0 -6
BITMAP
000000
060180
060180
06FFFE
0CFFFE
0C03C0
1C0760
1C0E30
3C1C18
3C3FFC
7C7FFE
6C0000
0C7FFE
0C7FFE
0C0C00
0C0C00
0C1800
0C1FF8
0C1FFC
0C000C
0C000C
0C007C
0C0078
000000
ENDCHAR

STARTCHAR A53B
ENCODING 42299
SWIDTH 960 0
DWIDTH 24 0
BBX 24 24 0 -6
BITMAP
000000
060000
07FFFE
07FFFE
0E0300
0C0660
0C0E70
1C1C30
1C38F8
3CFFFC
3CFF8C
7C0306
6C0300
0C0300
0CFFFE
0CFFFE
0C0300
0C0300
0C0300
0C0300
0DFFFE
0DFFFE
0C0000
000000
ENDCHAR

STARTCHAR A53C
ENCODING 42300
SWIDTH 960 0
DWIDTH 24 0
BBX 24 24 0 -6
BITMAP
000000
030000
033FF0
073FF8
063018
0E3018
1C3FF8
1C3FF8
3C3018
7C3018
6C3FF8
4C3FF0
0C3300
0C3302
0C3306
0C318E
0C319C
0C31F8
0C31F0
0C31F0
0C3FB8
0DFF1E
0DE00E
000000
ENDCHAR

STARTCHAR A53D
ENCODING 42301
SWIDTH 960 0
DWIDTH 24 0
BBX 24 24 0 -6
BITMAP
000000
0198C0
0398C0
0718C0
0F18C0
0E18C0
1C18C0
3CD8C6
3CD8CE
7CD8FE
6CDFF8
0CDFF0
0CD8E0
0CD8C0
0CD8C0
0CD8C0
0CD8C0
0CD8C6
0CD8C6
0CDFC6
0CFFC6
0FFCFE
0FC0FC
000000
ENDCHAR

STARTCHAR A53E
ENCODING 42302
SWIDTH 960 0
DWIDTH 24 0
BBX 24 24 0 -6
BITMAP
000000
037FFC
03FFFE
07C006
06C006
0EC006
1CCFF6
1CCFF6
3CC006
3CC006
7CC7E6
6CCFF6
0CCC36
0CCC36
0CCC36
0CCC36
0CCFF6
0CCFE6
0CC006
0CC006
0CC006
0CC07E
0CC07C
000000
ENDCHAR

STARTCHAR A53F
ENCODING 42303
SWIDTH 960 0
DWIDTH 24 0
BBX 24 24 0 -6
BITMAP
000000
030000
033FFC
037FFE
076006
066006
0E6FC6
1E6FE6
1C6C66
3C6C66
7C6C66
6C6C66
4C6C66
0C6C66
0C6C66
0C6C66
0C6FE6
0C67C6
0C6006
0C6006
0C6006
0C7FFE
0C3FFC
000000
ENDCHAR

STARTCHAR A540
ENCODING 42304
SWIDTH 960 0
DWIDTH 24 0
BBX 24 24 0 -6
BITMAP
000000
031800
031800
073800
063FFC
0E7FFE
1C7006
1CE006
3DFF86
3DFFC6
7C60C6
6C60C6
0C7FC6
0C7FC6
0C60C6
0C60C6
0C60C6
0C7FC6
0C7F86
0C000E
0C000C
0C00FC
0C00F8
000000
ENDCHAR

STARTCHAR A541
ENCODING 42305
SWIDTH 960 0
DWIDTH 24 0
BBX 24 24 0 -6
BITMAP
000000
031800
033FE0
073FE0
0661C0
0EC180
0DFFFE
1DFFFE
3CC000
7CC000
6CC7E0
0CCFF0
0CCC30
0CCC30
0CCC30
0CCC30
0CCC30
0CCCF6
0DCCE6
0D8C06
0D8E06
0F8FFE
0F07FE
000000
ENDCHAR

STARTCHAR A542
ENCODING 42306
SWIDTH 960 0
DWIDTH 24 0
BBX 24 24 0 -6
BITMAP
000000
063300
063300
067300
0C6300
0CFFFE
1CFFFE
39C300
798300
780300
5BFFFE
1BFFFE
180CC0
180CC0
180CC0
180CC0
180CC0
180CC6
180CC6
181CC6
1838FE
18F07C
180000
000000
ENDCHAR

STARTCHAR A543
ENCODING 42307
SWIDTH 960 0
DWIDTH 24 0
BBX 24 24 0 -6
BITMAP
000000
030000
03000C
037FFC
067FF8
060300
0E0300
0C0300
1C0300
3DFFFE
7DFFFE
6C0300
0C0300
0C0300
0C1FF0
0C3FF8
0C3018
0C3018
0C3018
0C3018
0C3018
0C3FF8
0C1FF0
000000
ENDCHAR

STARTCHAR A544
ENCODING 42308
SWIDTH 960 0
DWIDTH 24 0
BBX 24 24 0 -6
BITMAP
000000
0601C0
060380
0E0700
0C1E00
0C7FF8
1C7FFC
1C666C
3C666C
3C666C
7C666C
6C666C
0C666C
0C666C
0C666C
0C666C
0C666C
0C666C
0C666C
0C666C
0DFFFE
0DFFFE
0C0000
000000
ENDCHAR

STARTCHAR A545
ENCODING 42309
SWIDTH 960 0
DWIDTH 24 0
BBX 24 24 0 -6
BITMAP
000000
030300
030700
070E00
063FF0
0E7FF8
0C6C18
1C6618
3C6718
3C6318
7C6318
6FFFFE
0FFFFE
0C6618
0C6618
0C6618
0C6618
0C6618
0CE618
0CC618
0DC018
0F8078
0F0070
000000
ENDCHAR

STARTCHAR A546
ENCODING 42310
SWIDTH 960 0
DWIDTH 24 0
BBX 24 24 0 -6
BITMAP
000000
018180
038380
030730
070638
0E0E1C
1E1DFC
1C7FFE
3C7FC6
7C0CC6
6C1CC0
0C3FFC
0C3FFC
0C70C0
0C60C0
0C00C0
0CFFFE
0CFFFE
0C00C0
0C00C0
0C00C0
0C00C0
0C00C0
000000
ENDCHAR

STARTCHAR A547
ENCODING 42311
SWIDTH 960 0
DWIDTH 24 0
BBX 24 24 0 -6
BITMAP
000000
031800
031800
073000
0E3000
0E707C
1FFEFE
1FFEC6
3C66C6
3CE6C6
7CC6C6
6CC6C6
0DC6C6
0D8EC6
0DECC6
0CFCC6
0C3CC6
0C1CC6
0C3EC6
0C76C6
0CF7FE
0FE37C
0F8000
000000
ENDCHAR

STARTCHAR A548
ENCODING 42312
SWIDTH 960 0
DWIDTH 24 0
BBX 24 24 0 -6
BITMAP
000000
030300
030300
030300
070300
063FFC
0E7FFE
0E6186
1C6386
1C6306
3C6706
7CFFFE
6CFFFE
0C0C30
0C1C70
0C1860
0C3860
0C3EE0
0C3FE0
0C03F0
0C1FB8
0CFE1C
0CF00C
000000
ENDCHAR

STARTCHAR A549
ENCODING 42313
SWIDTH 960 0
DWIDTH 24 0
BBX 24 24 0 -6
BITMAP
000000
060300
060300
0E0300
0EFFFE
1DFFFE
1D8060
3983E0
79BFC0
79BF00
198600
1987FC
19FFFC
19FF00
198600
198600
198600
19870C
1B87FC
1B83FC
1F0000
1E0000
180000
000000
ENDCHAR

STARTCHAR A54A
ENCODING 42314
SWIDTH 960 0
DWIDTH 24 0
BBX 24 24 0 -6
BITMAP
000000
030000
037FFE
077FFE
060180
0E0380
1C0700
1CFFFC
3DFFFE
3D8CC6
7D8CC6
6D8CC6
4D8CC6
0D8CC6
0D8CC6
0D8CC6
0D8CC6
0D8CC6
0D8CC6
0D8CC6
0D8CC6
0D8CDE
0D8CDC
000000
ENDCHAR

STARTCHAR A54B
ENCODING 42315
SWIDTH 960 0
DWIDTH 24 0
BBX 24 24 0 -6
BITMAP
000000
060600
060600
060C00
0C1FFE
0C3FFE
1C7E0C
1CE61C
3DC738
3D83F0
7C03E0
6C07F0
0C1F38
0DFC1E
0DF006
0C3FF8
0C3FFC
0C300C
0C300C
0C300C
0C300C
0C3FFC
0C1FF8
000000
ENDCHAR

STARTCHAR A54C
ENCODING 42316
SWIDTH 960 0
DWIDTH 24 0
BBX 24 24 0 -6
BITMAP
000000
060200
060700
060700
0E0F80
0E1F80
0C39C0
1C70E0
1CE078
1DC03C
3DBFEC
3C3FE0
7C0000
6C0000
0C3FE0
0C7FF0
0C6030
0C6030
0C6030
0C6030
0C7FF0
0C3FE0
0C0000
000000
ENDCHAR

STARTCHAR A54D
ENCODING 42317
SWIDTH 960 0
DWIDTH 24 0
BBX 24 24 0 -6
BITMAP
000000
3FFFF8
7FFFFC
60180C
6C183C
6E187C
6718FC
6399EC
01DBC0
00DB80
001800
3FFFFE
3FFFFE
003F00
007B00
00FB00
01DB80
039980
0719C0
0E18E0
3C1878
38181C
001800
000000
ENDCHAR

STARTCHAR A54E
ENCODING 42318
SWIDTH 960 0
DWIDTH 24 0
BBX 24 24 0 -6
BITMAP
000000
000300
603300
703300
387300
1C6300
0CFFFC
04FFFC
01C300
018300
000300
03FFFE
03FFFE
0C1980
0C1980
0C1980
181980
181980
181986
383986
307186
70E1FE
63C0FC
000000
ENDCHAR

STARTCHAR A54F
ENCODING 42319
SWIDTH 960 0
DWIDTH 24 0
BBX 24 24 0 -6
BITMAP
000000
400600
600600
700F00
381F80
1C39C0
0C70E0
00E070
01C03C
03FFFE
07FFF6
000000
060000
060000
0C7FE0
1CFFF0
18C030
38C030
30C030
70C030
60C030
00FFF0
007FE0
000000
ENDCHAR

STARTCHAR A550
ENCODING 42320
SWIDTH 960 0
DWIDTH 24 0
BBX 24 24 0 -6
BITMAP
000000
000006
7FFC06
7FFC06
0C60C6
0C60C6
0FE0C6
0FE0C6
0C60C6
0C60C6
0FE0C6
0FE0C6
0C60C6
0C60C6
0C60C6
0DE0C6
1FE0C6
7F60C6
7060C6
0060C6
006006
00603E
00603C
000000
ENDCHAR

STARTCHAR A551
ENCODING 42321
SWIDTH 960 0
DWIDTH 24 0
BBX 24 24 0 -6
BITMAP
000000
00C00C
00C00C
00C00C
00C06C
1FFC6C
1FFC6C
00C06C
00C06C
00C06C
7FFE6C
7FFE6C
00C06C
00C06C
00C06C
1FFE6C
1FFE6C
00C06C
00C06C
00C30C
00FF0C
3FFE7C
3FE078
000000
ENDCHAR

STARTCHAR A552
ENCODING 42322
SWIDTH 960 0
DWIDTH 24 0
BBX 24 24 0 -6
BITMAP
000000
03000C
03000C
0300CC
7FFECC
7FFECC
06C0CC
0E60CC
1C70CC
3838CC
7FFECC
6FF0CC
0000CC
7FFECC
7FFECC
0C00CC
0C00CC
1FFCCC
1FFCCC
180C0C
001C0C
01F8FC
01F0F8
000000
ENDCHAR

STARTCHAR A553
ENCODING 42323
SWIDTH 960 0
DWIDTH 24 0
BBX 24 24 0 -6
BITMAP
000000
030006
0300C6
0300C6
1FE0C6
3FF0C6
3030C6
3FF0C6
3FF0C6
3030C6
3030C6
3FF0C6
3FE0C6
3000C6
3180C6
31C0C6
30E0C6
30E0C6
33F0C6
3FB8C6
3E1806
78003E
60003C
000000
ENDCHAR

STARTCHAR A554
ENCODING 42324
SWIDTH 960 0
DWIDTH 24 0
BBX 24 24 0 -6
BITMAP
000000
0CC000
0CCFF8
0CCFF8
0CC0D8
0CC0D8
7FF0D8
7FF0D8
0CC6D8
0CC6DC
0CC6DC
0CCEDE
7FFD9E
7FFD9A
0CC398
0CC318
0CC718
1CC718
18C618
38CE38
30CC30
60DDF0
40D9E0
000000
ENDCHAR

STARTCHAR A555
ENCODING 42325
SWIDTH 960 0
DWIDTH 24 0
BBX 24 24 0 -6
BITMAP
000000
030060
030060
030060
030060
7FFC60
7FFC60
0303FC
0303FE
030066
3FF866
3FF866
000066
000066
1FE066
3FF0E6
3030C6
3030C6
3031C6
303186
303386
3FF73E
1FE63C
000000
ENDCHAR

STARTCHAR A556
ENCODING 42326
SWIDTH 960 0
DWIDTH 24 0
BBX 24 24 0 -6
BITMAP
000000
018000
018000
030000
07FFFC
0FFFFC
1E300C
3B318C
73B386
61F706
00FE06
0FFFE6
0FFFE6
01B806
01BC06
01BE06
01B706
03B38C
0731CC
1E30CC
1C300C
0033FC
0033F8
000000
ENDCHAR

STARTCHAR A557
ENCODING 42327
SWIDTH 960 0
DWIDTH 24 0
BBX 24 24 0 -6
BITMAP
000000
030000
030000
070000
07FFF8
0FFFFC
1C300C
1C600C
38FFCC
71FFCC
639806
071806
1FFFF6
1FFFF6
001806
0318CC
0318CC
0318CC
03FFCC
01FF9C
000018
0000F8
0000F0
000000
ENDCHAR

STARTCHAR A558
ENCODING 42328
SWIDTH 960 0
DWIDTH 24 0
BBX 24 24 0 -6
BITMAP
000000
3FFFFE
7FFFFE
600C00
601C00
603E00
60F780
63E3C0
6FC1F0
6FFFF0
61FFC0
600000
600000
600000
60FF80
61FFC0
6180C0
6180C0
61FFC0
60FF80
600000
7FFFFE
3FFFFE
000000
ENDCHAR

STARTCHAR A559
ENCODING 42329
SWIDTH 960 0
DWIDTH 24 0
BBX 24 24 0 -6
BITMAP
000000
000000
0FFFFE
1FFFFE
181800
181800
181800
183FF8
187FF8
18F300
18E300
180300
1FFFFE
1FFFFE
180300
18C318
38C318
30C318
70C318
60C318
60FFF8
407FF0
000000
000000
ENDCHAR

STARTCHAR A55A
ENCODING 42330
SWIDTH 960 0
DWIDTH 24 0
BBX 24 24 0 -6
BITMAP
000000
000000
0FFFFE
1FFFFE
180000
1BFFFC
1BFFFC
181800
183180
1870C0
18EFE0
1FFFF0
1FFE18
18060C
180600
1BFFFC
1BFFFC
380600
300600
300600
7FFFFE
6FFFFE
000000
000000
ENDCHAR

STARTCHAR A55B
ENCODING 42331
SWIDTH 960 0
DWIDTH 24 0
BBX 24 24 0 -6
BITMAP
000000
000E18
000718
7E0398
7F01D8
6306F8
633630
633630
633630
633678
633678
633678
63366C
6336EC
6336CC
7F76C6
3E66C6
00E786
00C786
000F06
003FFE
01FFFC
01E000
000000
ENDCHAR

STARTCHAR A55C
ENCODING 42332
SWIDTH 960 0
DWIDTH 24 0
BBX 24 24 0 -6
BITMAP
000000
000180
000180
000180
3E0180
7F7FFC
637FFC
630180
630180
630180
630180
63FFFE
63FFFE
630300
630300
630760
7F0670
3E0E30
000C18
001DFC
001FEE
007F06
007000
000000
ENDCHAR

STARTCHAR A55D
ENCODING 42333
SWIDTH 960 0
DWIDTH 24 0
BBX 24 24 0 -6
BITMAP
000000
001830
001830
001830
3C1830
7E1830
661830
67FFFE
67FFFE
661830
661830
661830
661830
661FF0
661FF0
661830
7E1830
3C1830
001830
001830
001830
001FF0
000FE0
000000
ENDCHAR

STARTCHAR A55E
ENCODING 42334
SWIDTH 960 0
DWIDTH 24 0
BBX 24 24 0 -6
BITMAP
000000
003000
003000
0037FE
7C37FE
7E3018
66FE18
66FE18
663018
663018
663618
663E18
663C18
667818
66F018
67F018
7FB018
3C3018
003018
003018
003018
01F0F8
01E0F0
000000
ENDCHAR

STARTCHAR A55F
ENCODING 42335
SWIDTH 960 0
DWIDTH 24 0
BBX 24 24 0 -6
BITMAP
000000
007FFE
00FFFE
00C0C0
00C0C0
3CC0C0
7EC0C0
66CFF8
66DFFC
66D8CC
66D8CC
66D8CC
66D8CC
66D8CC
66D8CC
66D8CC
66D8DC
66D8D8
7EC0C0
3CC0C0
00C0C0
00FFFE
007FFE
000000
ENDCHAR

STARTCHAR A560
ENCODING 42336
SWIDTH 960 0
DWIDTH 24 0
BBX 24 24 0 -6
BITMAP
000000
000CC0
000CC0
000CC0
3E7FF8
7F7FFC
630CCC
630CCC
637FFC
637FF8
636CC0
636CC0
636CC0
637FFC
637FFE
630CC6
7F0CC6
3E0CC6
0018C6
0018C6
0078DE
01F0DC
01C0C0
000000
ENDCHAR

STARTCHAR A561
ENCODING 42337
SWIDTH 960 0
DWIDTH 24 0
BBX 24 24 0 -6
BITMAP
000000
000300
7F0300
7F8300
618300
618300
618300
6183FE
6183FE
618300
618300
618300
618300
618FF8
619FFC
61980C
7F980C
3F180C
00180C
00180C
001FFC
000FF8
000000
000000
ENDCHAR

STARTCHAR A562
ENCODING 42338
SWIDTH 960 0
DWIDTH 24 0
BBX 24 24 0 -6
BITMAP
000000
001FF8
003FFC
00300C
3C300C
7E300C
663FFC
661FF8
660000
667FFE
667FFE
660600
660600
660600
660FF8
660FFC
7E000C
3C000C
00000C
00000C
00000C
0003FC
0003F8
000000
ENDCHAR

STARTCHAR A563
ENCODING 42339
SWIDTH 960 0
DWIDTH 24 0
BBX 24 24 0 -6
BITMAP
000000
000000
000FF0
3E1FF8
7F1818
631818
631818
631818
631818
631FF8
631FF8
631818
631818
631818
631818
631818
631818
7F1FF8
3E0FF0
000000
00FFFE
00FFFE
000000
000000
ENDCHAR

STARTCHAR A564
ENCODING 42340
SWIDTH 960 0
DWIDTH 24 0
BBX 24 24 0 -6
BITMAP
000000
000600
000600
000600
000600
3C0600
7E7FF0
66FFF8
66C618
66C618
66FFF8
66FFF8
66C618
66C618
67FFFE
67FFFE
66C018
66C018
7EC018
3CC018
00C0D8
00C0F8
00C078
000000
ENDCHAR

STARTCHAR A565
ENCODING 42341
SWIDTH 960 0
DWIDTH 24 0
BBX 24 24 0 -6
BITMAP
000000
001FFC
7F1FFE
7F9B66
619B66
619B66
619B66
619B66
619B66
619B66
619B66
619B66
619F66
619E7E
61983E
619806
7F9806
3F1806
001806
001806
001806
001FFE
000FFC
000000
ENDCHAR

STARTCHAR A566
ENCODING 42342
SWIDTH 960 0
DWIDTH 24 0
BBX 24 24 0 -6
BITMAP
000000
000C00
000C00
7C1C00
7E1800
663FFC
667FFE
667006
66E006
67C006
679F06
663F86
663186
663186
663186
7E3186
3C3F86
001F0C
00000C
00000C
0001CC
0001FC
0000F8
000000
ENDCHAR

STARTCHAR A567
ENCODING 42343
SWIDTH 960 0
DWIDTH 24 0
BBX 24 24 0 -6
BITMAP
000000
001860
001860
003060
3C3060
7E6060
66EFFC
66CFFE
66EC66
667866
667866
663866
663066
667866
667C66
666EC6
7EE7C6
3CFFCE
03FF8C
03C38C
00070C
000E7C
000C78
000000
ENDCHAR

STARTCHAR A568
ENCODING 42344
SWIDTH 960 0
DWIDTH 24 0
BBX 24 24 0 -6
BITMAP
000000
000180
000180
7C0300
7E0730
660638
660C18
661C1C
66380E
6671FE
67FFFA
67FE00
660000
660000
663FF8
667FFC
7E600C
3C600C
00600C
00600C
00600C
007FFC
003FF8
000000
ENDCHAR

STARTCHAR A569
ENCODING 42345
SWIDTH 960 0
DWIDTH 24 0
BBX 24 24 0 -6
BITMAP
000000
007FFC
007FFC
3E0300
7F3304
63330C
633B1C
631B18
631F38
630F70
630F60
63FFFE
63FFFE
630300
630300
7F0300
3E0300
000300
000300
000300
000300
000300
000300
000000
ENDCHAR

STARTCHAR A56A
ENCODING 42346
SWIDTH 960 0
DWIDTH 24 0
BBX 24 24 0 -6
BITMAP
000000
000000
003FF8
3E7FFC
7F600C
63600C
637FFC
637FF8
636180
636180
636180
637FFE
637FFE
6360C0
6360C0
7F60C0
3E60E0
0060E0
0060E6
0067F6
007FBE
01FE1E
01E00C
000000
ENDCHAR

STARTCHAR A56B
ENCODING 42347
SWIDTH 960 0
DWIDTH 24 0
BBX 24 24 0 -6
BITMAP
000000
000300
000300
000300
7C0300
7E0300
67FFFE
67FFFE
660300
6607C0
6607C0
660FE0
661F60
663B70
667338
66E31C
7FC30E
3F8306
037FFA
007FF8
000300
000300
000300
000000
ENDCHAR

STARTCHAR A56C
ENCODING 42348
SWIDTH 960 0
DWIDTH 24 0
BBX 24 24 0 -6
BITMAP
000000
000180
000180
000180
7EFFFE
7FFFFE
630380
630780
630780
630F80
631FF8
633FFC
63798C
63D98C
63198C
7F198C
7E198C
00198C
00198C
0019BC
0019B8
000180
000180
000000
ENDCHAR

STARTCHAR A56D
ENCODING 42349
SWIDTH 960 0
DWIDTH 24 0
BBX 24 24 0 -6
BITMAP
000000
000000
007FE0
007FF0
006630
7C6630
7E6630
666330
666330
67FFFE
67FFFE
66C630
66C630
66C630
66C330
66C330
7EC330
7CFFFE
00FFFE
000030
000370
0003F0
0001E0
000000
ENDCHAR

STARTCHAR A56E
ENCODING 42350
SWIDTH 960 0
DWIDTH 24 0
BBX 24 24 0 -6
BITMAP
000000
00003C
0007FC
3C3FE0
7E3D80
663180
663180
663180
663180
663FFE
663FFE
663180
663180
6631C0
6630C0
6630C0
7E37E0
3E3FE0
03FC70
03E036
007FFE
007FDE
00000E
000000
ENDCHAR

STARTCHAR A56F
ENCODING 42351
SWIDTH 960 0
DWIDTH 24 0
BBX 24 24 0 -6
BITMAP
000000
000300
000380
0007C0
3C0EE0
7E1C70
663838
66F61E
67E70E
678380
660180
660000
66FFF8
66FFF8
660018
660030
660070
7E00E0
3C19C0
000D80
000700
000300
000180
000000
ENDCHAR

STARTCHAR A570
ENCODING 42352
SWIDTH 960 0
DWIDTH 24 0
BBX 24 24 0 -6
BITMAP
000000
000000
1FFFF8
3FFFFC
30038C
300F0C
31FE0C
31F80C
30180C
3FFFFC
3FFFFC
303C0C
307E0C
30FE0C
31DF0C
339B8C
3719CC
3E18EC
3C187C
30180C
3FFFFC
1FFFF8
000000
000000
ENDCHAR

ENDFONT
